SplineFontDB: 3.2
FontName: CSLSans-ExtraBold
FullName: CSL Sans ExtraBold
FamilyName: CSL Sans ExtraBold
Weight: Heavy
Copyright: Copyright (c) 2019 IBM Corp. with Reserved Font Name "Plex"\n\nCopyright (c) 2019 The HMI Sans Project Authors (https://github.com/somegoodpixels/hmi-sans)\nCopyright (c) 2021 The CSL Sans Project Authors (https://github.com/cssobral2013/CSL-Sans)\nThis Font Software is licensed under the SIL Open Font License, Version 1.1.\nThis license is copied below, and is also available with a FAQ at: http://scripts.sil.org/OFL.
Version: 2.001;January 21, 2022;FontCreator 14.0.0.2808 64-bit
ItalicAngle: 0
UnderlinePosition: -225
UnderlineWidth: 100
Ascent: 800
Descent: 200
InvalidEm: 0
sfntRevision: 0x00020041
LayerCount: 2
Layer: 0 1 "Back" 1
Layer: 1 1 "Fore" 0
XUID: [1021 651 537639564 30947]
StyleMap: 0x0000
FSType: 0
OS2Version: 3
OS2_WeightWidthSlopeOnly: 0
OS2_UseTypoMetrics: 0
CreationTime: 1550580372
ModificationTime: 1642760090
PfmFamily: 81
TTFWeight: 800
TTFWidth: 5
LineGap: 0
VLineGap: 0
Panose: 0 0 8 0 0 0 0 0 0 0
OS2TypoAscent: 1000
OS2TypoAOffset: 0
OS2TypoDescent: -220
OS2TypoDOffset: 0
OS2TypoLinegap: 0
OS2WinAscent: 1000
OS2WinAOffset: 0
OS2WinDescent: 220
OS2WinDOffset: 0
HheadAscent: 1000
HheadAOffset: 0
HheadDescent: -220
HheadDOffset: 0
OS2SubXSize: 650
OS2SubYSize: 600
OS2SubXOff: 0
OS2SubYOff: 75
OS2SupXSize: 650
OS2SupYSize: 600
OS2SupXOff: 0
OS2SupYOff: 350
OS2StrikeYSize: 100
OS2StrikeYPos: 315
OS2CapHeight: 698
OS2XHeight: 525
OS2Vendor: 'UKWN'
OS2CodePages: 2000019f.00000000
OS2UnicodeRanges: a10002ff.5000a07b.00000000.00000000
Lookup: 258 0 0 "'kern' Kerning Horizontal lookup 0" { "'kern' Kerning Horizontal lookup 0 per glyph data 0"  "'kern' Kerning Horizontal lookup 0 kerning class 1"  "'kern' Kerning Horizontal lookup 0 kerning class 2"  "'kern' Kerning Horizontal lookup 0 kerning class 3"  } ['kern' ('DFLT' <'dflt' > 'cyrl' <'dflt' > 'grek' <'dflt' > 'latn' <'dflt' > ) ]
DEI: 91125

StartChar: .notdef
Encoding: 65536 -1 0
Width: 472
Flags: W
LayerCount: 2
Fore
SplineSet
440 0 m 1,0,-1
 440 780 l 1,1,-1
 32 780 l 1,2,-1
 32 0 l 1,3,-1
 440 0 l 1,0,-1
340 100 m 1,4,-1
 132 100 l 1,5,-1
 132 680 l 1,6,-1
 340 680 l 1,7,-1
 340 100 l 1,4,-1
EndSplineSet
EndChar

StartChar: exclam
Encoding: 33 33 2
Width: 320
GlyphClass: 1
Flags: W
LayerCount: 2
Fore
SplineSet
193 220 m 1,0,-1
 239 504 l 1,1,-1
 239 698 l 1,2,-1
 83 698 l 1,3,-1
 83 504 l 1,4,-1
 130 220 l 1,5,-1
 193 220 l 1,0,-1
160 -12 m 256,6,7
 208 -12 208 -12 228.5 10 c 128,-1,8
 249 32 249 32 249 64 c 2,9,-1
 249 88 l 2,10,11
 249 120 249 120 228.5 142 c 128,-1,12
 208 164 208 164 160 164 c 256,13,14
 112 164 112 164 91.5 142 c 128,-1,15
 71 120 71 120 71 88 c 2,16,-1
 71 64 l 2,17,18
 71 32 71 32 91.5 10 c 128,-1,19
 112 -12 112 -12 160 -12 c 256,6,7
EndSplineSet
EndChar

StartChar: quotedbl
Encoding: 34 34 3
Width: 493
GlyphClass: 7
Flags: W
LayerCount: 2
Fore
SplineSet
200 414 m 1,0,-1
 200 740 l 1,1,-1
 68 740 l 1,2,-1
 68 414 l 1,3,-1
 200 414 l 1,0,-1
425 414 m 1,4,-1
 425 740 l 1,5,-1
 293 740 l 1,6,-1
 293 414 l 1,7,-1
 425 414 l 1,4,-1
EndSplineSet
EndChar

StartChar: numbersign
Encoding: 35 35 4
Width: 632
GlyphClass: 5
Flags: W
LayerCount: 2
Fore
SplineSet
429 0 m 1,0,-1
 459 173 l 1,1,-1
 576 173 l 1,2,-1
 576 263 l 1,3,-1
 475 263 l 1,4,-1
 504 435 l 1,5,-1
 621 435 l 1,6,-1
 621 525 l 1,7,-1
 520 525 l 1,8,-1
 550 698 l 1,9,-1
 456 698 l 1,10,-1
 426 525 l 1,11,-1
 266 525 l 1,12,-1
 296 698 l 1,13,-1
 203 698 l 1,14,-1
 173 525 l 1,15,-1
 56 525 l 1,16,-1
 56 435 l 1,17,-1
 157 435 l 1,18,-1
 128 263 l 1,19,-1
 11 263 l 1,20,-1
 11 173 l 1,21,-1
 112 173 l 1,22,-1
 82 0 l 1,23,-1
 176 0 l 1,24,-1
 206 173 l 1,25,-1
 366 173 l 1,26,-1
 336 0 l 1,27,-1
 429 0 l 1,0,-1
381 263 m 1,28,-1
 221 263 l 1,29,-1
 251 435 l 1,30,-1
 411 435 l 1,31,-1
 381 263 l 1,28,-1
EndSplineSet
EndChar

StartChar: dollar
Encoding: 36 36 5
Width: 601
Flags: W
LayerCount: 2
Fore
SplineSet
364 -82 m 1,0,-1
 364 14 l 1,1,2
 463 33 463 33 511 88 c 128,-1,3
 559 143 559 143 559 217 c 0,4,5
 559 294 559 294 508 339.5 c 128,-1,6
 457 385 457 385 352 408 c 1,7,-1
 352 574 l 1,8,9
 422 556 422 556 456 514 c 1,10,-1
 547 596 l 1,11,12
 483 673 483 673 364 686 c 1,13,-1
 364 780 l 1,14,-1
 250 780 l 1,15,-1
 250 686 l 1,16,17
 153 674 153 674 102.5 624.5 c 128,-1,18
 52 575 52 575 52 496 c 0,19,20
 52 423 52 423 101.5 374 c 128,-1,21
 151 325 151 325 263 302 c 1,22,-1
 263 122 l 1,23,24
 180 136 180 136 122 197 c 1,25,-1
 32 115 l 1,26,27
 113 23 113 23 250 10 c 1,28,-1
 250 -82 l 1,29,-1
 364 -82 l 1,0,-1
263 428 m 1,30,31
 225 439 225 439 207.5 455 c 128,-1,32
 190 471 190 471 190 500 c 0,33,34
 190 559 190 559 263 576 c 1,35,-1
 263 428 l 1,30,31
352 124 m 1,36,-1
 352 282 l 1,37,38
 394 269 394 269 407.5 248.5 c 128,-1,39
 421 228 421 228 421 206 c 0,40,41
 421 144 421 144 352 124 c 1,36,-1
EndSplineSet
EndChar

StartChar: percent
Encoding: 37 37 6
Width: 974
Flags: W
LayerCount: 2
Fore
SplineSet
311 0 m 1,0,-1
 795 698 l 1,1,-1
 663 698 l 1,2,-1
 179 0 l 1,3,-1
 311 0 l 1,0,-1
230 314 m 0,4,5
 318 314 318 314 364 364 c 128,-1,6
 410 414 410 414 410 512 c 0,7,8
 410 709 410 709 230 710 c 0,9,10
 142 710 142 710 96 660 c 128,-1,11
 50 610 50 610 50 512 c 0,12,13
 50 316 50 316 230 314 c 0,4,5
234 400 m 2,14,-1
 230 400 l 2,15,16
 178 400 178 400 178 486 c 2,17,-1
 178 538 l 2,18,19
 178 624 178 624 226 624 c 2,20,-1
 230 624 l 2,21,22
 282 624 282 624 282 541 c 2,23,-1
 282 486 l 2,24,25
 282 400 282 400 234 400 c 2,14,-1
744 -12 m 0,26,27
 832 -12 832 -12 878 38 c 128,-1,28
 924 88 924 88 924 186 c 0,29,30
 924 383 924 383 744 384 c 0,31,32
 656 384 656 384 610 334 c 128,-1,33
 564 284 564 284 564 186 c 0,34,35
 564 -10 564 -10 744 -12 c 0,26,27
748 74 m 2,36,-1
 744 74 l 2,37,38
 692 74 692 74 692 160 c 2,39,-1
 692 212 l 2,40,41
 692 298 692 298 740 298 c 2,42,-1
 744 298 l 2,43,44
 796 298 796 298 796 215 c 2,45,-1
 796 160 l 2,46,47
 796 74 796 74 748 74 c 2,36,-1
EndSplineSet
EndChar

StartChar: ampersand
Encoding: 38 38 7
Width: 721
GlyphClass: 3
Flags: W
LayerCount: 2
Fore
SplineSet
287 -12 m 0,0,1
 360 -12 360 -12 407.5 8.5 c 128,-1,2
 455 29 455 29 487 57 c 1,3,-1
 539 0 l 1,4,-1
 718 0 l 1,5,-1
 579 151 l 1,6,7
 608 198 608 198 624 262 c 1,8,-1
 687 262 l 1,9,-1
 687 385 l 1,10,-1
 520 385 l 1,11,12
 516 313 516 313 491 246 c 1,13,-1
 383 363 l 1,14,15
 441 397 441 397 481 441 c 0,16,17
 522 489 522 489 522 550 c 0,18,19
 522 627 522 627 464.5 668.5 c 128,-1,20
 407 710 407 710 321 710 c 0,21,22
 225 710 225 710 168.5 660.5 c 128,-1,23
 112 611 112 611 112 543 c 0,24,25
 112 495 112 495 135.5 452 c 128,-1,26
 159 409 159 409 190 377 c 1,27,28
 128 343 128 343 90 298 c 0,29,30
 50 249 50 249 50 183 c 0,31,32
 50 99 50 99 111 43.5 c 128,-1,33
 172 -12 172 -12 287 -12 c 0,0,1
310 442 m 1,34,35
 280 476 280 476 266.5 496 c 128,-1,36
 253 516 253 516 253 536 c 0,37,38
 253 567 253 567 271.5 582 c 128,-1,39
 290 597 290 597 317 597 c 256,40,41
 344 597 344 597 362.5 582 c 128,-1,42
 381 567 381 567 381 540 c 0,43,44
 381 506 381 506 363 484.5 c 128,-1,45
 345 463 345 463 310 442 c 1,34,35
309 111 m 0,46,47
 255 111 255 111 228 136 c 128,-1,48
 201 161 201 161 201 199 c 2,49,-1
 201 209 l 2,50,51
 201 263 201 263 263 298 c 1,52,-1
 410 139 l 1,53,54
 368 111 368 111 309 111 c 0,46,47
EndSplineSet
EndChar

StartChar: quotesingle
Encoding: 39 39 8
Width: 268
Flags: W
LayerCount: 2
Fore
SplineSet
200 414 m 1,0,-1
 200 740 l 1,1,-1
 68 740 l 1,2,-1
 68 414 l 1,3,-1
 200 414 l 1,0,-1
EndSplineSet
EndChar

StartChar: parenleft
Encoding: 40 40 9
Width: 338
Flags: W
LayerCount: 2
Fore
SplineSet
351 -138 m 1,0,1
 270 -65 270 -65 223.5 39 c 128,-1,2
 177 143 177 143 177 276 c 2,3,-1
 177 346 l 2,4,5
 177 474 177 474 223 579.5 c 128,-1,6
 269 685 269 685 351 760 c 1,7,-1
 212 760 l 1,8,9
 135 692 135 692 87 576 c 0,10,11
 37 456 37 456 37 312 c 0,12,13
 37 167 37 167 87 46.5 c 128,-1,14
 137 -74 137 -74 211 -138 c 1,15,-1
 351 -138 l 1,0,1
EndSplineSet
EndChar

StartChar: parenright
Encoding: 41 41 10
Width: 338
GlyphClass: 3
Flags: W
LayerCount: 2
Fore
SplineSet
126 -138 m 1,0,1
 202 -70 202 -70 251.5 49 c 128,-1,2
 301 168 301 168 301 312 c 0,3,4
 301 458 301 458 251 578 c 0,5,6
 201 694 201 694 127 760 c 1,7,-1
 -13 760 l 1,8,9
 68 687 68 687 114.5 583 c 128,-1,10
 161 479 161 479 161 346 c 2,11,-1
 161 276 l 2,12,13
 161 148 161 148 115 42.5 c 128,-1,14
 69 -63 69 -63 -13 -138 c 1,15,-1
 126 -138 l 1,0,1
EndSplineSet
EndChar

StartChar: asterisk
Encoding: 42 42 11
Width: 601
Flags: W
LayerCount: 2
Fore
SplineSet
192 238 m 1,0,-1
 300 401 l 1,1,-1
 408 239 l 1,2,-1
 512 308 l 1,3,-1
 386 461 l 1,4,-1
 569 516 l 1,5,-1
 530 630 l 1,6,-1
 356 557 l 1,7,-1
 365 747 l 1,8,-1
 236 747 l 1,9,-1
 245 557 l 1,10,-1
 71 630 l 1,11,-1
 32 516 l 1,12,-1
 215 461 l 1,13,-1
 88 308 l 1,14,-1
 192 238 l 1,0,-1
EndSplineSet
EndChar

StartChar: plus
Encoding: 43 43 12
Width: 600
Flags: W
LayerCount: 2
Fore
SplineSet
364 63 m 1,0,-1
 364 247 l 1,1,-1
 533 247 l 1,2,-1
 533 365 l 1,3,-1
 364 365 l 1,4,-1
 364 549 l 1,5,-1
 236 549 l 1,6,-1
 236 365 l 1,7,-1
 67 365 l 1,8,-1
 67 247 l 1,9,-1
 236 247 l 1,10,-1
 236 63 l 1,11,-1
 364 63 l 1,0,-1
EndSplineSet
EndChar

StartChar: comma
Encoding: 44 44 13
Width: 310
GlyphClass: 3
Flags: W
LayerCount: 2
Fore
SplineSet
138 -147 m 1,0,1
 187 -109 187 -109 216 -50.5 c 128,-1,2
 245 8 245 8 245 69 c 2,3,-1
 245 89 l 2,4,5
 245 124 245 124 223.5 146.5 c 128,-1,6
 202 169 202 169 157 169 c 256,7,8
 112 169 112 169 90.5 146.5 c 128,-1,9
 69 124 69 124 69 89 c 2,10,-1
 69 69 l 2,11,12
 69 40 69 40 85 18.5 c 128,-1,13
 101 -3 101 -3 136 -9 c 1,14,15
 110 -85 110 -85 38 -147 c 1,16,-1
 138 -147 l 1,0,1
EndSplineSet
EndChar

StartChar: hyphen
Encoding: 45 45 14
Width: 403
Flags: W
LayerCount: 2
Fore
SplineSet
350 233 m 1,0,-1
 350 377 l 1,1,-1
 53 377 l 1,2,-1
 53 233 l 1,3,-1
 350 233 l 1,0,-1
EndSplineSet
EndChar

StartChar: period
Encoding: 46 46 15
Width: 310
Flags: W
LayerCount: 2
Fore
SplineSet
155 -11 m 256,0,1
 200 -11 200 -11 221.5 11.5 c 128,-1,2
 243 34 243 34 243 69 c 2,3,-1
 243 89 l 2,4,5
 243 124 243 124 221.5 146.5 c 128,-1,6
 200 169 200 169 155 169 c 256,7,8
 110 169 110 169 88.5 146.5 c 128,-1,9
 67 124 67 124 67 89 c 2,10,-1
 67 69 l 2,11,12
 67 34 67 34 88.5 11.5 c 128,-1,13
 110 -11 110 -11 155 -11 c 256,0,1
EndSplineSet
EndChar

StartChar: slash
Encoding: 47 47 16
Width: 460
GlyphClass: 3
Flags: W
LayerCount: 2
Fore
SplineSet
125 -151 m 1,0,-1
 423 740 l 1,1,-1
 301 740 l 1,2,-1
 3 -151 l 1,3,-1
 125 -151 l 1,0,-1
EndSplineSet
EndChar

StartChar: zero
Encoding: 48 48 17
Width: 600
GlyphClass: 5
Flags: W
LayerCount: 2
Fore
SplineSet
300 -12 m 256,0,1
 437 -12 437 -12 503 83 c 128,-1,2
 569 178 569 178 569 349 c 256,3,4
 569 520 569 520 503 615 c 128,-1,5
 437 710 437 710 300 710 c 256,6,7
 163 710 163 710 97 615 c 128,-1,8
 31 520 31 520 31 349 c 256,9,10
 31 178 31 178 97 83 c 128,-1,11
 163 -12 163 -12 300 -12 c 256,0,1
300 115 m 256,12,13
 240 115 240 115 217 159 c 128,-1,14
 194 203 194 203 194 283 c 2,15,-1
 194 415 l 2,16,17
 194 495 194 495 217 539 c 128,-1,18
 240 583 240 583 300 583 c 256,19,20
 360 583 360 583 383 539 c 128,-1,21
 406 495 406 495 406 415 c 2,22,-1
 406 283 l 2,23,24
 406 203 406 203 383 159 c 128,-1,25
 360 115 360 115 300 115 c 256,12,13
EndSplineSet
EndChar

StartChar: one
Encoding: 49 49 18
Width: 600
Flags: W
LayerCount: 2
Fore
SplineSet
423 0 m 1,0,-1
 274 0 l 1,1,-1
 274 561 l 1,2,-1
 124 479 l 1,3,-1
 124 619 l 1,4,-1
 266 698 l 1,5,-1
 423 698 l 1,6,-1
 423 0 l 1,0,-1
EndSplineSet
EndChar

StartChar: two
Encoding: 50 50 19
Width: 600
Flags: W
LayerCount: 2
Fore
SplineSet
551 0 m 1,0,-1
 551 126 l 1,1,-1
 221 126 l 1,2,-1
 367 241 l 2,3,4
 434 292 434 292 482 349 c 0,5,6
 537 417 537 417 537 500 c 0,7,8
 537 590 537 590 475 650 c 0,9,10
 409 710 409 710 299 710 c 0,11,12
 196 710 196 710 128 658 c 0,13,14
 66 606 66 606 42 532 c 1,15,-1
 173 482 l 1,16,17
 183 523 183 523 209.5 551.5 c 128,-1,18
 236 580 236 580 285 580 c 0,19,20
 320 580 320 580 348.5 560.5 c 128,-1,21
 377 541 377 541 377 500 c 2,22,-1
 377 486 l 2,23,24
 377 443 377 443 353.5 406 c 128,-1,25
 330 369 330 369 272 321 c 2,26,-1
 57 137 l 1,27,-1
 57 0 l 1,28,-1
 551 0 l 1,0,-1
EndSplineSet
EndChar

StartChar: three
Encoding: 51 51 20
Width: 600
Flags: W
LayerCount: 2
Fore
SplineSet
274 -12 m 0,0,1
 393 -12 393 -12 466 44 c 128,-1,2
 539 100 539 100 539 194 c 0,3,4
 539 266 539 266 498 308 c 128,-1,5
 457 350 457 350 394 362 c 1,6,-1
 394 368 l 1,7,8
 449 378 449 378 488 418.5 c 128,-1,9
 527 459 527 459 527 525 c 0,10,11
 527 609 527 609 460 659.5 c 128,-1,12
 393 710 393 710 280 710 c 0,13,14
 190 710 190 710 134 678 c 128,-1,15
 78 646 78 646 39 593 c 1,16,-1
 133 505 l 1,17,18
 191 588 191 588 275 588 c 0,19,20
 369 588 369 588 369 497 c 0,21,22
 369 465 369 465 343.5 443.5 c 128,-1,23
 318 422 318 422 262 422 c 2,24,-1
 197 422 l 1,25,-1
 197 297 l 1,26,-1
 260 297 l 2,27,28
 317 297 317 297 349.5 275.5 c 128,-1,29
 382 254 382 254 382 211 c 2,30,-1
 382 205 l 2,31,32
 382 161 382 161 353.5 135.5 c 128,-1,33
 325 110 325 110 274 110 c 0,34,35
 217 110 217 110 183 137 c 128,-1,36
 149 164 149 164 127 208 c 1,37,-1
 16 122 l 1,38,39
 49 67 49 67 109 29 c 0,40,41
 174 -12 174 -12 274 -12 c 0,0,1
EndSplineSet
EndChar

StartChar: four
Encoding: 52 52 21
Width: 600
GlyphClass: 2
Flags: W
LayerCount: 2
Fore
SplineSet
480 0 m 1,0,-1
 480 134 l 1,1,-1
 568 134 l 1,2,-1
 568 250 l 1,3,-1
 480 250 l 1,4,-1
 480 698 l 1,5,-1
 302 698 l 1,6,-1
 30 262 l 1,7,-1
 30 134 l 1,8,-1
 337 134 l 1,9,-1
 337 0 l 1,10,-1
 480 0 l 1,0,-1
337 250 m 1,11,-1
 150 250 l 1,12,-1
 327 543 l 1,13,-1
 337 543 l 1,14,-1
 337 250 l 1,11,-1
EndSplineSet
EndChar

StartChar: five
Encoding: 53 53 22
Width: 600
Flags: W
LayerCount: 2
Fore
SplineSet
295 -12 m 0,0,1
 423 -12 423 -12 494 58 c 0,2,3
 563 129 563 129 563 235 c 0,4,5
 563 339 563 339 500.5 398 c 128,-1,6
 438 457 438 457 348 457 c 0,7,8
 282 457 282 457 249.5 426.5 c 128,-1,9
 217 396 217 396 198 346 c 1,10,-1
 190 346 l 1,11,-1
 205 567 l 1,12,-1
 522 567 l 1,13,-1
 522 698 l 1,14,-1
 95 698 l 1,15,-1
 69 303 l 1,16,-1
 192 286 l 1,17,18
 233 335 233 335 300 335 c 0,19,20
 349 335 349 335 377 307 c 128,-1,21
 405 279 405 279 405 231 c 2,22,-1
 405 223 l 2,23,24
 405 172 405 172 377.5 141 c 128,-1,25
 350 110 350 110 296 110 c 256,26,27
 242 110 242 110 209.5 138 c 128,-1,28
 177 166 177 166 155 208 c 1,29,-1
 46 122 l 1,30,31
 77 67 77 67 136 29 c 0,32,33
 200 -12 200 -12 295 -12 c 0,0,1
EndSplineSet
EndChar

StartChar: six
Encoding: 54 54 23
Width: 600
GlyphClass: 2
Flags: W
LayerCount: 2
Fore
SplineSet
304 -12 m 0,0,1
 424 -12 424 -12 495 56.5 c 128,-1,2
 566 125 566 125 566 233 c 0,3,4
 566 331 566 331 508 391 c 0,5,6
 448 450 448 450 362 450 c 0,7,8
 301 450 301 450 263 418.5 c 128,-1,9
 225 387 225 387 208 345 c 1,10,-1
 199 348 l 1,11,12
 220 446 220 446 295.5 527.5 c 128,-1,13
 371 609 371 609 499 698 c 1,14,-1
 292 698 l 1,15,16
 198 637 198 637 123 525 c 0,17,18
 42 402 42 402 42 265 c 0,19,20
 42 139 42 139 111 63.5 c 128,-1,21
 180 -12 180 -12 304 -12 c 0,0,1
304 105 m 0,22,23
 254 105 254 105 226 132.5 c 128,-1,24
 198 160 198 160 198 211 c 2,25,-1
 198 229 l 2,26,27
 198 331 198 331 304 335 c 0,28,29
 354 335 354 335 382 307.5 c 128,-1,30
 410 280 410 280 410 229 c 2,31,-1
 410 211 l 2,32,33
 410 109 410 109 304 105 c 0,22,23
EndSplineSet
EndChar

StartChar: seven
Encoding: 55 55 24
Width: 600
Flags: W
LayerCount: 2
Fore
SplineSet
324 0 m 1,0,-1
 166 0 l 1,1,-1
 400 576 l 1,2,-1
 55 576 l 1,3,-1
 55 698 l 1,4,-1
 549 698 l 1,5,-1
 549 568 l 1,6,-1
 324 0 l 1,0,-1
EndSplineSet
EndChar

StartChar: eight
Encoding: 56 56 25
Width: 600
Flags: W
LayerCount: 2
Fore
SplineSet
300 -12 m 0,0,1
 425 -12 425 -12 492.5 45.5 c 128,-1,2
 560 103 560 103 560 191 c 0,3,4
 560 258 560 258 523.5 300.5 c 128,-1,5
 487 343 487 343 423 360 c 1,6,-1
 423 368 l 1,7,8
 475 387 475 387 507 426 c 128,-1,9
 539 465 539 465 539 526 c 0,10,11
 539 606 539 606 478 659 c 0,12,13
 416 710 416 710 300 710 c 0,14,15
 185 710 185 710 123 658 c 128,-1,16
 61 606 61 606 61 526 c 0,17,18
 61 465 61 465 93 426 c 128,-1,19
 125 387 125 387 177 368 c 1,20,-1
 177 360 l 1,21,22
 113 343 113 343 76.5 300.5 c 128,-1,23
 40 258 40 258 40 191 c 0,24,25
 40 103 40 103 108 45.5 c 128,-1,26
 176 -12 176 -12 300 -12 c 0,0,1
300 103 m 0,27,28
 200 103 200 103 197 192 c 2,29,-1
 197 212 l 2,30,31
 197 254 197 254 223.5 277.5 c 128,-1,32
 250 301 250 301 300 301 c 0,33,34
 401 301 401 301 403 212 c 2,35,-1
 403 192 l 2,36,37
 403 150 403 150 376.5 126.5 c 128,-1,38
 350 103 350 103 300 103 c 0,27,28
300 411 m 0,39,40
 204 411 204 411 202 495 c 2,41,-1
 202 511 l 2,42,43
 202 550 202 550 227 572.5 c 128,-1,44
 252 595 252 595 300 595 c 0,45,46
 396 595 396 595 398 511 c 2,47,-1
 398 495 l 2,48,49
 398 456 398 456 373 433.5 c 128,-1,50
 348 411 348 411 300 411 c 0,39,40
EndSplineSet
EndChar

StartChar: nine
Encoding: 57 57 26
Width: 600
GlyphClass: 1
Flags: W
LayerCount: 2
Fore
SplineSet
308 0 m 1,0,1
 402 62 402 62 478 174 c 0,2,3
 558 298 558 298 558 433 c 0,4,5
 558 559 558 559 489.5 634.5 c 128,-1,6
 421 710 421 710 296 710 c 0,7,8
 176 710 176 710 105 641.5 c 128,-1,9
 34 573 34 573 34 465 c 0,10,11
 34 365 34 365 93.5 306.5 c 128,-1,12
 153 248 153 248 238 248 c 0,13,14
 350 248 350 248 392 353 c 1,15,-1
 401 350 l 1,16,17
 379 252 379 252 304 170.5 c 128,-1,18
 229 89 229 89 101 0 c 1,19,-1
 308 0 l 1,0,1
296 363 m 0,20,21
 246 363 246 363 218 390.5 c 128,-1,22
 190 418 190 418 190 469 c 2,23,-1
 190 487 l 2,24,25
 190 589 190 589 296 593 c 0,26,27
 346 593 346 593 374 565.5 c 128,-1,28
 402 538 402 538 402 487 c 2,29,-1
 402 469 l 2,30,31
 402 367 402 367 296 363 c 0,20,21
EndSplineSet
EndChar

StartChar: colon
Encoding: 58 58 27
Width: 330
Flags: W
LayerCount: 2
Fore
SplineSet
165 -11 m 256,0,1
 210 -11 210 -11 231.5 11.5 c 128,-1,2
 253 34 253 34 253 69 c 2,3,-1
 253 89 l 2,4,5
 253 124 253 124 231.5 146.5 c 128,-1,6
 210 169 210 169 165 169 c 256,7,8
 120 169 120 169 98.5 146.5 c 128,-1,9
 77 124 77 124 77 89 c 2,10,-1
 77 69 l 2,11,12
 77 34 77 34 98.5 11.5 c 128,-1,13
 120 -11 120 -11 165 -11 c 256,0,1
165 355 m 256,14,15
 210 355 210 355 231.5 377.5 c 128,-1,16
 253 400 253 400 253 435 c 2,17,-1
 253 455 l 2,18,19
 253 490 253 490 231.5 512.5 c 128,-1,20
 210 535 210 535 165 535 c 256,21,22
 120 535 120 535 98.5 512.5 c 128,-1,23
 77 490 77 490 77 455 c 2,24,-1
 77 435 l 2,25,26
 77 400 77 400 98.5 377.5 c 128,-1,27
 120 355 120 355 165 355 c 256,14,15
EndSplineSet
EndChar

StartChar: semicolon
Encoding: 59 59 28
Width: 330
GlyphClass: 2
Flags: W
LayerCount: 2
Fore
SplineSet
146 -147 m 1,0,1
 195 -109 195 -109 224 -50.5 c 128,-1,2
 253 8 253 8 253 69 c 2,3,-1
 253 89 l 2,4,5
 253 124 253 124 231.5 146.5 c 128,-1,6
 210 169 210 169 165 169 c 256,7,8
 120 169 120 169 98.5 146.5 c 128,-1,9
 77 124 77 124 77 89 c 2,10,-1
 77 69 l 2,11,12
 77 40 77 40 93 18.5 c 128,-1,13
 109 -3 109 -3 144 -9 c 1,14,15
 118 -85 118 -85 46 -147 c 1,16,-1
 146 -147 l 1,0,1
164 355 m 256,17,18
 209 355 209 355 230.5 377.5 c 128,-1,19
 252 400 252 400 252 435 c 2,20,-1
 252 455 l 2,21,22
 252 490 252 490 230.5 512.5 c 128,-1,23
 209 535 209 535 164 535 c 256,24,25
 119 535 119 535 97.5 512.5 c 128,-1,26
 76 490 76 490 76 455 c 2,27,-1
 76 435 l 2,28,29
 76 400 76 400 97.5 377.5 c 128,-1,30
 119 355 119 355 164 355 c 256,17,18
EndSplineSet
EndChar

StartChar: less
Encoding: 60 60 29
Width: 600
Flags: W
LayerCount: 2
Fore
SplineSet
497 -2 m 1,0,-1
 497 148 l 1,1,-1
 259 298 l 1,2,-1
 259 305 l 1,3,-1
 497 455 l 1,4,-1
 497 604 l 1,5,-1
 103 345 l 1,6,-1
 103 258 l 1,7,-1
 497 -2 l 1,0,-1
EndSplineSet
EndChar

StartChar: equal
Encoding: 61 61 30
Width: 600
GlyphClass: 2
Flags: W
LayerCount: 2
Fore
SplineSet
533 362 m 1,0,-1
 533 480 l 1,1,-1
 67 480 l 1,2,-1
 67 362 l 1,3,-1
 533 362 l 1,0,-1
533 130 m 1,4,-1
 533 248 l 1,5,-1
 67 248 l 1,6,-1
 67 130 l 1,7,-1
 533 130 l 1,4,-1
EndSplineSet
EndChar

StartChar: greater
Encoding: 62 62 31
Width: 600
GlyphClass: 5
Flags: W
LayerCount: 2
Fore
SplineSet
103 -2 m 1,0,-1
 497 259 l 1,1,-1
 497 346 l 1,2,-1
 103 604 l 1,3,-1
 103 455 l 1,4,-1
 341 305 l 1,5,-1
 341 298 l 1,6,-1
 103 148 l 1,7,-1
 103 -2 l 1,0,-1
EndSplineSet
EndChar

StartChar: question
Encoding: 63 63 32
Width: 500
GlyphClass: 3
Flags: W
LayerCount: 2
Fore
SplineSet
298 233 m 1,0,-1
 298 305 l 1,1,2
 371 318 371 318 422 371 c 128,-1,3
 473 424 473 424 473 504 c 0,4,5
 473 596 473 596 408.5 653 c 128,-1,6
 344 710 344 710 240 710 c 0,7,8
 144 710 144 710 85 660 c 0,9,10
 31 613 31 613 14 550 c 1,11,-1
 136 499 l 1,12,13
 145 536 145 536 170.5 560 c 128,-1,14
 196 584 196 584 235 584 c 0,15,16
 271 584 271 584 293.5 564 c 128,-1,17
 316 544 316 544 316 506 c 2,18,-1
 316 492 l 2,19,20
 316 436 316 436 276.5 412 c 128,-1,21
 237 388 237 388 158 386 c 1,22,-1
 158 233 l 1,23,-1
 298 233 l 1,0,-1
230 -12 m 256,24,25
 278 -12 278 -12 298.5 10 c 128,-1,26
 319 32 319 32 319 64 c 2,27,-1
 319 88 l 2,28,29
 319 120 319 120 298.5 142 c 128,-1,30
 278 164 278 164 230 164 c 256,31,32
 182 164 182 164 161.5 142 c 128,-1,33
 141 120 141 120 141 88 c 2,34,-1
 141 64 l 2,35,36
 141 32 141 32 161.5 10 c 128,-1,37
 182 -12 182 -12 230 -12 c 256,24,25
EndSplineSet
EndChar

StartChar: at
Encoding: 64 64 33
Width: 903
Flags: W
LayerCount: 2
Fore
SplineSet
672 -121 m 1,0,-1
 672 -33 l 1,1,-1
 462 -33 l 2,2,3
 323 -33 323 -33 238.5 51.5 c 128,-1,4
 154 136 154 136 154 272 c 2,5,-1
 154 310 l 2,6,7
 154 447 154 447 238.5 534.5 c 128,-1,8
 323 622 323 622 462 622 c 0,9,10
 590 622 590 622 671.5 549 c 128,-1,11
 753 476 753 476 753 348 c 2,12,-1
 753 320 l 2,13,14
 753 244 753 244 732.5 207 c 128,-1,15
 712 170 712 170 677 170 c 0,16,17
 634 170 634 170 633 220 c 2,18,-1
 633 489 l 1,19,-1
 522 489 l 1,20,-1
 522 420 l 1,21,-1
 517 420 l 1,22,23
 508 454 508 454 482 476 c 128,-1,24
 456 498 456 498 414 498 c 0,25,26
 348 498 348 498 304 445.5 c 128,-1,27
 260 393 260 393 260 291 c 256,28,29
 260 189 260 189 304 136.5 c 128,-1,30
 348 84 348 84 414 84 c 0,31,32
 509 84 509 84 529 176 c 1,33,-1
 534 176 l 1,34,35
 538 133 538 133 571.5 107.5 c 128,-1,36
 605 82 605 82 659 82 c 0,37,38
 745 82 745 82 795.5 148.5 c 128,-1,39
 846 215 846 215 846 335 c 0,40,41
 846 505 846 505 741 608 c 0,42,43
 635 709 635 709 462 709 c 0,44,45
 369 709 369 709 295 678.5 c 128,-1,46
 221 648 221 648 169 592 c 0,47,48
 61 473 61 473 61 291 c 0,49,50
 61 107 61 107 167.5 -7 c 128,-1,51
 274 -121 274 -121 462 -121 c 2,52,-1
 672 -121 l 1,0,-1
455 175 m 0,53,54
 419 175 419 175 397.5 198 c 128,-1,55
 376 221 376 221 376 257 c 2,56,-1
 376 325 l 2,57,58
 376 361 376 361 397.5 384 c 128,-1,59
 419 407 419 407 455 407 c 0,60,61
 481 407 481 407 501.5 391.5 c 128,-1,62
 522 376 522 376 522 353 c 2,63,-1
 522 237 l 2,64,65
 522 214 522 214 501.5 194.5 c 128,-1,66
 481 175 481 175 455 175 c 0,53,54
EndSplineSet
EndChar

StartChar: A
Encoding: 65 65 34
Width: 685
GlyphClass: 5
Flags: W
LayerCount: 2
Fore
SplineSet
665 0 m 1,0,-1
 438 698 l 1,1,-1
 250 698 l 1,2,-1
 20 0 l 1,3,-1
 174 0 l 1,4,-1
 224 166 l 1,5,-1
 457 166 l 1,6,-1
 507 0 l 1,7,-1
 665 0 l 1,0,-1
420 295 m 1,8,-1
 260 295 l 1,9,-1
 337 560 l 1,10,-1
 342 560 l 1,11,-1
 420 295 l 1,8,-1
EndSplineSet
EndChar

StartChar: B
Encoding: 66 66 35
Width: 667
GlyphClass: 7
Flags: W
LayerCount: 2
Fore
SplineSet
447 0 m 2,0,1
 525 0 525 0 576 58.5 c 128,-1,2
 627 117 627 117 627 199 c 0,3,4
 627 282 627 282 573 326 c 0,5,6
 528 363 528 363 470 363 c 1,7,-1
 470 369 l 1,8,9
 525 370 525 370 562.5 407 c 128,-1,10
 600 444 600 444 600 519 c 0,11,12
 600 600 600 600 551.5 649 c 128,-1,13
 503 698 503 698 416 698 c 2,14,-1
 77 698 l 1,15,-1
 77 0 l 1,16,-1
 447 0 l 2,0,1
404 128 m 2,17,-1
 229 128 l 1,18,-1
 229 288 l 1,19,-1
 404 288 l 2,20,21
 464 288 464 288 469 225 c 1,22,-1
 469 191 l 2,23,24
 469 131 469 131 404 128 c 2,17,-1
380 412 m 1,25,-1
 229 412 l 1,26,-1
 229 570 l 1,27,-1
 380 570 l 2,28,29
 440 570 440 570 444 506 c 1,30,-1
 444 476 l 2,31,32
 444 416 444 416 380 412 c 1,25,-1
EndSplineSet
EndChar

StartChar: C
Encoding: 67 67 36
Width: 651
Flags: W
LayerCount: 2
Fore
SplineSet
359 -12 m 0,0,1
 456 -12 456 -12 520 31 c 128,-1,2
 584 74 584 74 622 155 c 1,3,-1
 498 227 l 1,4,5
 483 183 483 183 449 153 c 128,-1,6
 415 123 415 123 359 123 c 0,7,8
 292 123 292 123 251.5 166.5 c 128,-1,9
 211 210 211 210 211 293 c 2,10,-1
 211 405 l 2,11,12
 211 488 211 488 251.5 531.5 c 128,-1,13
 292 575 292 575 359 575 c 0,14,15
 416 575 416 575 446 549 c 128,-1,16
 476 523 476 523 489 478 c 1,17,-1
 620 546 l 1,18,19
 582 630 582 630 519 670 c 128,-1,20
 456 710 456 710 359 710 c 0,21,22
 217 710 217 710 133.5 615 c 128,-1,23
 50 520 50 520 50 344 c 0,24,25
 50 171 50 171 133.5 79.5 c 128,-1,26
 217 -12 217 -12 359 -12 c 0,0,1
EndSplineSet
EndChar

StartChar: D
Encoding: 68 68 37
Width: 697
Flags: W
LayerCount: 2
Fore
SplineSet
340 0 m 2,0,1
 478 0 478 0 563 88 c 0,2,3
 647 179 647 179 647 349 c 0,4,5
 647 520 647 520 563 611 c 0,6,7
 478 698 478 698 340 698 c 2,8,-1
 77 698 l 1,9,-1
 77 0 l 1,10,-1
 340 0 l 2,0,1
340 135 m 2,11,-1
 229 135 l 1,12,-1
 229 563 l 1,13,-1
 340 563 l 2,14,15
 486 563 486 563 486 403 c 2,16,-1
 486 295 l 2,17,18
 486 135 486 135 340 135 c 2,11,-1
EndSplineSet
EndChar

StartChar: E
Encoding: 69 69 38
Width: 607
Flags: W
LayerCount: 2
Fore
SplineSet
552 0 m 1,0,-1
 552 135 l 1,1,-1
 229 135 l 1,2,-1
 229 286 l 1,3,-1
 506 286 l 1,4,-1
 506 420 l 1,5,-1
 229 420 l 1,6,-1
 229 563 l 1,7,-1
 552 563 l 1,8,-1
 552 698 l 1,9,-1
 77 698 l 1,10,-1
 77 0 l 1,11,-1
 552 0 l 1,0,-1
EndSplineSet
EndChar

StartChar: F
Encoding: 70 70 39
Width: 585
GlyphClass: 2
Flags: W
LayerCount: 2
Fore
SplineSet
229 0 m 1,0,-1
 229 286 l 1,1,-1
 494 286 l 1,2,-1
 494 420 l 1,3,-1
 229 420 l 1,4,-1
 229 563 l 1,5,-1
 540 563 l 1,6,-1
 540 698 l 1,7,-1
 77 698 l 1,8,-1
 77 0 l 1,9,-1
 229 0 l 1,0,-1
EndSplineSet
EndChar

StartChar: G
Encoding: 71 71 40
Width: 719
Flags: W
LayerCount: 2
Fore
SplineSet
336 -12 m 0,0,1
 415 -12 415 -12 460.5 22.5 c 128,-1,2
 506 57 506 57 515 111 c 1,3,-1
 520 111 l 1,4,-1
 520 0 l 1,5,-1
 648 0 l 1,6,-1
 648 389 l 1,7,-1
 373 389 l 1,8,-1
 373 262 l 1,9,-1
 503 262 l 1,10,-1
 503 227 l 2,11,12
 503 178 503 178 462.5 150.5 c 128,-1,13
 422 123 422 123 366 123 c 0,14,15
 295 123 295 123 253 164.5 c 128,-1,16
 211 206 211 206 211 293 c 2,17,-1
 211 405 l 2,18,19
 211 493 211 493 253 534 c 128,-1,20
 295 575 295 575 366 575 c 0,21,22
 476 575 476 575 511 477 c 1,23,-1
 635 548 l 1,24,25
 554 710 554 710 366 710 c 0,26,27
 224 710 224 710 137 616 c 128,-1,28
 50 522 50 522 50 346 c 0,29,30
 50 174 50 174 133 79 c 0,31,32
 216 -12 216 -12 336 -12 c 0,0,1
EndSplineSet
EndChar

StartChar: H
Encoding: 72 72 41
Width: 724
GlyphClass: 5
Flags: W
LayerCount: 2
Fore
SplineSet
647 0 m 1,0,-1
 647 698 l 1,1,-1
 495 698 l 1,2,-1
 495 420 l 1,3,-1
 229 420 l 1,4,-1
 229 698 l 1,5,-1
 77 698 l 1,6,-1
 77 0 l 1,7,-1
 229 0 l 1,8,-1
 229 286 l 1,9,-1
 495 286 l 1,10,-1
 495 0 l 1,11,-1
 647 0 l 1,0,-1
EndSplineSet
EndChar

StartChar: I
Encoding: 73 73 42
Width: 306
Flags: W
LayerCount: 2
Fore
SplineSet
229 0 m 1,0,-1
 77 0 l 1,1,-1
 77 698 l 1,2,-1
 229 698 l 1,3,-1
 229 0 l 1,0,-1
EndSplineSet
EndChar

StartChar: J
Encoding: 74 74 43
Width: 559
GlyphClass: 7
Flags: W
LayerCount: 2
Fore
SplineSet
256 -11 m 0,0,1
 153 -11 153 -11 97 43 c 0,2,3
 39 96 39 96 25 185 c 1,4,-1
 167 213 l 1,5,6
 184 122 184 122 254 122 c 0,7,8
 287 122 287 122 310.5 143 c 128,-1,9
 334 164 334 164 334 209 c 2,10,-1
 334 698 l 1,11,-1
 486 698 l 1,12,-1
 486 202 l 2,13,14
 486 106 486 106 425 47.5 c 128,-1,15
 364 -11 364 -11 256 -11 c 0,0,1
EndSplineSet
EndChar

StartChar: K
Encoding: 75 75 44
Width: 696
GlyphClass: 7
Flags: W
LayerCount: 2
Fore
SplineSet
684 0 m 1,0,-1
 428 411 l 1,1,-1
 663 698 l 1,2,-1
 491 698 l 1,3,-1
 334 501 l 1,4,-1
 235 366 l 1,5,-1
 229 366 l 1,6,-1
 229 698 l 1,7,-1
 77 698 l 1,8,-1
 77 0 l 1,9,-1
 229 0 l 1,10,-1
 229 194 l 1,11,-1
 320 304 l 1,12,-1
 505 0 l 1,13,-1
 684 0 l 1,0,-1
EndSplineSet
EndChar

StartChar: L
Encoding: 76 76 45
Width: 530
GlyphClass: 5
Flags: W
LayerCount: 2
Fore
SplineSet
495 0 m 1,0,-1
 495 135 l 1,1,-1
 229 135 l 1,2,-1
 229 698 l 1,3,-1
 77 698 l 1,4,-1
 77 0 l 1,5,-1
 495 0 l 1,0,-1
EndSplineSet
EndChar

StartChar: M
Encoding: 77 77 46
Width: 819
GlyphClass: 7
Flags: W
LayerCount: 2
Fore
SplineSet
742 0 m 1,0,-1
 742 698 l 1,1,-1
 580 698 l 1,2,-1
 411 371 l 1,3,-1
 409 371 l 1,4,-1
 238 698 l 1,5,-1
 77 698 l 1,6,-1
 77 0 l 1,7,-1
 220 0 l 1,8,-1
 220 465 l 1,9,-1
 223 465 l 1,10,-1
 276 355 l 1,11,-1
 409 109 l 1,12,-1
 545 356 l 1,13,-1
 596 458 l 1,14,-1
 599 458 l 1,15,-1
 599 0 l 1,16,-1
 742 0 l 1,0,-1
EndSplineSet
EndChar

StartChar: N
Encoding: 78 78 47
Width: 724
GlyphClass: 3
Flags: W
LayerCount: 2
Fore
SplineSet
647 0 m 1,0,-1
 647 698 l 1,1,-1
 504 698 l 1,2,-1
 504 228 l 1,3,-1
 501 228 l 1,4,-1
 434 368 l 1,5,-1
 243 698 l 1,6,-1
 77 698 l 1,7,-1
 77 0 l 1,8,-1
 220 0 l 1,9,-1
 220 470 l 1,10,-1
 223 470 l 1,11,-1
 290 330 l 1,12,-1
 481 0 l 1,13,-1
 647 0 l 1,0,-1
EndSplineSet
EndChar

StartChar: O
Encoding: 79 79 48
Width: 714
GlyphClass: 7
Flags: W
LayerCount: 2
Fore
SplineSet
357 -12 m 256,0,1
 495 -12 495 -12 580 80 c 0,2,3
 664 174 664 174 664 349 c 0,4,5
 664 523 664 523 580 619 c 1,6,7
 495 710 495 710 357 710 c 256,8,9
 219 710 219 710 134 619 c 1,10,11
 50 523 50 523 50 349 c 0,12,13
 50 174 50 174 134 80 c 0,14,15
 219 -12 219 -12 357 -12 c 256,0,1
357 123 m 0,16,17
 288 123 288 123 249.5 168 c 128,-1,18
 211 213 211 213 211 297 c 2,19,-1
 211 401 l 2,20,21
 211 569 211 569 357 575 c 0,22,23
 426 575 426 575 464.5 530 c 128,-1,24
 503 485 503 485 503 401 c 2,25,-1
 503 297 l 2,26,27
 503 129 503 129 357 123 c 0,16,17
EndSplineSet
EndChar

StartChar: P
Encoding: 80 80 49
Width: 656
GlyphClass: 1
Flags: W
LayerCount: 2
Fore
SplineSet
229 0 m 1,0,-1
 229 252 l 1,1,-1
 407 252 l 2,2,3
 505 252 505 252 562 313.5 c 128,-1,4
 619 375 619 375 619 475 c 0,5,6
 619 573 619 573 562 635.5 c 128,-1,7
 505 698 505 698 407 698 c 2,8,-1
 77 698 l 1,9,-1
 77 0 l 1,10,-1
 229 0 l 1,0,-1
389 384 m 2,11,-1
 229 384 l 1,12,-1
 229 566 l 1,13,-1
 389 566 l 2,14,15
 423 566 423 566 442.5 548.5 c 128,-1,16
 462 531 462 531 462 497 c 2,17,-1
 462 453 l 2,18,19
 462 386 462 386 389 384 c 2,11,-1
EndSplineSet
EndChar

StartChar: Q
Encoding: 81 81 50
Width: 714
GlyphClass: 7
Flags: W
LayerCount: 2
Fore
SplineSet
357 123 m 0,0,1
 288 123 288 123 249.5 168 c 128,-1,2
 211 213 211 213 211 297 c 2,3,-1
 211 401 l 2,4,5
 211 569 211 569 357 575 c 0,6,7
 426 575 426 575 464.5 530 c 128,-1,8
 503 485 503 485 503 401 c 2,9,-1
 503 297 l 2,10,11
 503 129 503 129 357 123 c 0,0,1
580 80 m 1,12,13
 664 174 664 174 664 349 c 0,14,15
 664 523 664 523 580 619 c 1,16,17
 495 710 495 710 357 710 c 256,18,19
 219 710 219 710 134 619 c 1,20,21
 50 523 50 523 50 349 c 0,22,23
 50 174 50 174 134 80 c 0,24,25
 219 -12 219 -12 357 -12 c 0,26,27
 409 -12 409 -12 453 1 c 1,28,-1
 622 -97 l 1,29,-1
 684 10 l 1,30,-1
 574 74 l 1,31,-1
 580 80 l 1,12,13
EndSplineSet
EndChar

StartChar: R
Encoding: 82 82 51
Width: 674
GlyphClass: 1
Flags: W
LayerCount: 2
Fore
SplineSet
629 0 m 1,0,-1
 492 274 l 1,1,2
 556 299 556 299 587.5 351.5 c 128,-1,3
 619 404 619 404 619 475 c 0,4,5
 619 576 619 576 561.5 637 c 128,-1,6
 504 698 504 698 408 698 c 2,7,-1
 77 698 l 1,8,-1
 77 0 l 1,9,-1
 229 0 l 1,10,-1
 229 256 l 1,11,-1
 338 256 l 1,12,-1
 460 0 l 1,13,-1
 629 0 l 1,0,-1
389 384 m 2,14,-1
 229 384 l 1,15,-1
 229 566 l 1,16,-1
 389 566 l 2,17,18
 423 566 423 566 442.5 548.5 c 128,-1,19
 462 531 462 531 462 497 c 2,20,-1
 462 453 l 2,21,22
 462 386 462 386 389 384 c 2,14,-1
EndSplineSet
EndChar

StartChar: S
Encoding: 83 83 52
Width: 624
GlyphClass: 3
Flags: W
LayerCount: 2
Fore
SplineSet
303 -12 m 0,0,1
 434 -12 434 -12 504.5 51.5 c 128,-1,2
 575 115 575 115 575 215 c 0,3,4
 575 306 575 306 523 355.5 c 128,-1,5
 471 405 471 405 363 422 c 2,6,-1
 294 433 l 2,7,8
 250 439 250 439 230.5 455.5 c 128,-1,9
 211 472 211 472 211 508 c 0,10,11
 211 540 211 540 236 558 c 128,-1,12
 261 576 261 576 312 576 c 0,13,14
 408 576 408 576 462 510 c 1,15,-1
 563 612 l 1,16,17
 479 710 479 710 321 710 c 0,18,19
 197 710 197 710 129 651 c 0,20,21
 59 593 59 593 59 498 c 0,22,23
 59 318 59 318 273 290 c 2,24,-1
 342 281 l 2,25,26
 390 274 390 274 406.5 254.5 c 128,-1,27
 423 235 423 235 423 206 c 0,28,29
 423 168 423 168 396 145 c 128,-1,30
 369 122 369 122 313 122 c 0,31,32
 210 122 210 122 138 202 c 1,33,-1
 38 101 l 1,34,35
 136 -12 136 -12 303 -12 c 0,0,1
EndSplineSet
EndChar

StartChar: T
Encoding: 84 84 53
Width: 584
GlyphClass: 1
Flags: W
LayerCount: 2
Fore
SplineSet
368 0 m 1,0,-1
 368 563 l 1,1,-1
 557 563 l 1,2,-1
 557 698 l 1,3,-1
 27 698 l 1,4,-1
 27 563 l 1,5,-1
 216 563 l 1,6,-1
 216 0 l 1,7,-1
 368 0 l 1,0,-1
EndSplineSet
EndChar

StartChar: U
Encoding: 85 85 54
Width: 694
Flags: W
LayerCount: 2
Fore
SplineSet
347 -12 m 256,0,1
 497 -12 497 -12 559 60 c 0,2,3
 621 128 621 128 621 286 c 2,4,-1
 621 698 l 1,5,-1
 473 698 l 1,6,-1
 473 270 l 2,7,8
 473 196 473 196 444 159.5 c 128,-1,9
 415 123 415 123 347 123 c 256,10,11
 279 123 279 123 250 159.5 c 128,-1,12
 221 196 221 196 221 270 c 2,13,-1
 221 698 l 1,14,-1
 73 698 l 1,15,-1
 73 286 l 2,16,17
 73 128 73 128 135 60 c 0,18,19
 197 -12 197 -12 347 -12 c 256,0,1
EndSplineSet
EndChar

StartChar: V
Encoding: 86 86 55
Width: 650
Flags: W
LayerCount: 2
Fore
SplineSet
409 0 m 1,0,-1
 636 698 l 1,1,-1
 487 698 l 1,2,-1
 383 363 l 1,3,-1
 330 144 l 1,4,-1
 327 144 l 1,5,-1
 272 363 l 1,6,-1
 168 698 l 1,7,-1
 14 698 l 1,8,-1
 239 0 l 1,9,-1
 409 0 l 1,0,-1
EndSplineSet
EndChar

StartChar: W
Encoding: 87 87 56
Width: 973
Flags: W
LayerCount: 2
Fore
SplineSet
782 0 m 1,0,-1
 944 698 l 1,1,-1
 800 698 l 1,2,3
 747 434 747 434 696 169 c 1,4,-1
 693 169 l 1,5,6
 634 434 634 434 572 698 c 1,7,-1
 406 698 l 1,8,-1
 285 169 l 1,9,-1
 282 169 l 1,10,11
 231 434 231 434 179 698 c 1,12,-1
 29 698 l 1,13,-1
 187 0 l 1,14,-1
 361 0 l 1,15,16
 423 265 423 265 484 531 c 1,17,-1
 487 531 l 1,18,19
 521 378 521 378 609 0 c 1,20,-1
 782 0 l 1,0,-1
EndSplineSet
EndChar

StartChar: X
Encoding: 88 88 57
Width: 673
Flags: W
LayerCount: 2
Fore
SplineSet
657 0 m 1,0,-1
 430 358 l 1,1,-1
 645 698 l 1,2,-1
 481 698 l 1,3,-1
 343 462 l 1,4,-1
 340 462 l 1,5,-1
 204 698 l 1,6,-1
 27 698 l 1,7,-1
 240 361 l 1,8,-1
 16 0 l 1,9,-1
 180 0 l 1,10,-1
 327 257 l 1,11,-1
 330 257 l 1,12,-1
 481 0 l 1,13,-1
 657 0 l 1,0,-1
EndSplineSet
EndChar

StartChar: Y
Encoding: 89 89 58
Width: 649
Flags: W
LayerCount: 2
Fore
SplineSet
401 0 m 1,0,-1
 401 274 l 1,1,-1
 640 698 l 1,2,-1
 475 698 l 1,3,-1
 331 420 l 1,4,-1
 329 420 l 1,5,-1
 179 698 l 1,6,-1
 9 698 l 1,7,-1
 248 273 l 1,8,-1
 248 0 l 1,9,-1
 401 0 l 1,0,-1
EndSplineSet
EndChar

StartChar: Z
Encoding: 90 90 59
Width: 607
Flags: W
LayerCount: 2
Fore
SplineSet
568 0 m 1,0,-1
 568 134 l 1,1,-1
 214 134 l 1,2,-1
 560 563 l 1,3,-1
 560 698 l 1,4,-1
 56 698 l 1,5,-1
 56 564 l 1,6,-1
 384 564 l 1,7,-1
 39 135 l 1,8,-1
 39 0 l 1,9,-1
 568 0 l 1,0,-1
EndSplineSet
EndChar

StartChar: bracketleft
Encoding: 91 91 60
Width: 334
Flags: W
LayerCount: 2
Fore
SplineSet
284 -138 m 1,0,-1
 284 -34 l 1,1,-1
 214 -34 l 1,2,-1
 214 656 l 1,3,-1
 284 656 l 1,4,-1
 284 760 l 1,5,-1
 77 760 l 1,6,-1
 77 -138 l 1,7,-1
 284 -138 l 1,0,-1
EndSplineSet
EndChar

StartChar: backslash
Encoding: 92 92 61
Width: 460
Flags: W
LayerCount: 2
Fore
SplineSet
456 -151 m 1,0,-1
 158 740 l 1,1,-1
 36 740 l 1,2,-1
 334 -151 l 1,3,-1
 456 -151 l 1,0,-1
EndSplineSet
EndChar

StartChar: bracketright
Encoding: 93 93 62
Width: 334
Flags: W
LayerCount: 2
Fore
SplineSet
257 -138 m 1,0,-1
 257 760 l 1,1,-1
 50 760 l 1,2,-1
 50 656 l 1,3,-1
 120 656 l 1,4,-1
 120 -34 l 1,5,-1
 50 -34 l 1,6,-1
 50 -138 l 1,7,-1
 257 -138 l 1,0,-1
EndSplineSet
EndChar

StartChar: asciicircum
Encoding: 94 94 63
Width: 600
Flags: W
LayerCount: 2
Fore
SplineSet
440 277 m 1,0,-1
 559 334 l 1,1,-1
 362 698 l 1,2,-1
 242 698 l 1,3,-1
 42 334 l 1,4,-1
 154 277 l 1,5,-1
 294 537 l 1,6,-1
 300 537 l 1,7,-1
 440 277 l 1,0,-1
EndSplineSet
EndChar

StartChar: underscore
Encoding: 95 95 64
Width: 556
Flags: W
LayerCount: 2
Fore
SplineSet
526 -190 m 1,0,-1
 526 -67 l 1,1,-1
 30 -67 l 1,2,-1
 30 -190 l 1,3,-1
 526 -190 l 1,0,-1
EndSplineSet
EndChar

StartChar: grave
Encoding: 96 96 65
Width: 600
Flags: W
LayerCount: 2
Fore
SplineSet
284 579 m 1,0,-1
 372 622 l 1,1,-1
 273 816 l 1,2,-1
 150 755 l 1,3,-1
 284 579 l 1,0,-1
EndSplineSet
EndChar

StartChar: a
Encoding: 97 97 66
Width: 553
Flags: W
LayerCount: 2
Fore
SplineSet
197 -12 m 0,0,1
 118 -12 118 -12 76 30 c 128,-1,2
 34 72 34 72 34 141 c 0,3,4
 34 224 34 224 94.5 264.5 c 128,-1,5
 155 305 155 305 259 305 c 2,6,-1
 342 305 l 1,7,-1
 342 338 l 2,8,9
 342 421 342 421 255 421 c 0,10,11
 211 421 211 421 185 402.5 c 128,-1,12
 159 384 159 384 142 359 c 1,13,-1
 54 437 l 1,14,15
 85 485 85 485 134 511 c 128,-1,16
 183 537 183 537 266 537 c 0,17,18
 490 537 490 537 490 345 c 2,19,-1
 490 0 l 1,20,-1
 357 0 l 1,21,-1
 357 92 l 1,22,-1
 351 92 l 1,23,24
 338 41 338 41 297.5 14.5 c 128,-1,25
 257 -12 257 -12 197 -12 c 0,0,1
252 91 m 0,26,27
 289 91 289 91 315.5 107 c 128,-1,28
 342 123 342 123 342 159 c 2,29,-1
 342 221 l 1,30,-1
 270 221 l 2,31,32
 183 221 183 221 183 162 c 2,33,-1
 183 147 l 2,34,35
 183 91 183 91 252 91 c 0,26,27
EndSplineSet
EndChar

StartChar: b
Encoding: 98 98 67
Width: 608
Flags: W
LayerCount: 2
Fore
SplineSet
363 -12 m 0,0,1
 563 -12 563 -12 565 263 c 0,2,3
 565 397 565 397 514 467 c 128,-1,4
 463 537 463 537 363 537 c 0,5,6
 312 537 312 537 273 509.5 c 128,-1,7
 234 482 234 482 222 437 c 1,8,-1
 217 437 l 1,9,-1
 217 740 l 1,10,-1
 69 740 l 1,11,-1
 69 0 l 1,12,-1
 217 0 l 1,13,-1
 217 88 l 1,14,-1
 222 88 l 1,15,16
 235 45 235 45 273 16.5 c 128,-1,17
 311 -12 311 -12 363 -12 c 0,0,1
314 108 m 256,18,19
 272 108 272 108 244.5 128.5 c 128,-1,20
 217 149 217 149 217 185 c 2,21,-1
 217 340 l 2,22,23
 217 376 217 376 244.5 396.5 c 128,-1,24
 272 417 272 417 314 417 c 256,25,26
 356 417 356 417 383.5 387.5 c 128,-1,27
 411 358 411 358 411 308 c 2,28,-1
 411 217 l 2,29,30
 411 167 411 167 383.5 137.5 c 128,-1,31
 356 108 356 108 314 108 c 256,18,19
EndSplineSet
EndChar

StartChar: c
Encoding: 99 99 68
Width: 517
GlyphClass: 7
Flags: W
LayerCount: 2
Fore
SplineSet
281 -12 m 0,0,1
 442 -12 442 -12 494 133 c 1,2,-1
 379 183 l 1,3,4
 369 150 369 150 347 127 c 128,-1,5
 325 104 325 104 281 104 c 0,6,7
 236 104 236 104 213 133.5 c 128,-1,8
 190 163 190 163 190 213 c 2,9,-1
 190 311 l 2,10,11
 190 361 190 361 213 390.5 c 128,-1,12
 236 420 236 420 281 420 c 0,13,14
 320 420 320 420 342 399.5 c 128,-1,15
 364 379 364 379 371 348 c 1,16,-1
 491 400 l 1,17,18
 442 537 442 537 281 537 c 0,19,20
 163 537 163 537 99.5 463 c 128,-1,21
 36 389 36 389 36 263 c 256,22,23
 36 137 36 137 99.5 62.5 c 128,-1,24
 163 -12 163 -12 281 -12 c 0,0,1
EndSplineSet
EndChar

StartChar: d
Encoding: 100 100 69
Width: 608
Flags: W
LayerCount: 2
Fore
SplineSet
245 -12 m 0,0,1
 295 -12 295 -12 336 17 c 0,2,3
 373 45 373 45 386 88 c 1,4,-1
 391 88 l 1,5,-1
 391 0 l 1,6,-1
 539 0 l 1,7,-1
 539 740 l 1,8,-1
 391 740 l 1,9,-1
 391 437 l 1,10,-1
 386 437 l 1,11,12
 374 482 374 482 335 509.5 c 128,-1,13
 296 537 296 537 245 537 c 0,14,15
 46 537 46 537 43 263 c 0,16,17
 43 129 43 129 94 58.5 c 128,-1,18
 145 -12 145 -12 245 -12 c 0,0,1
294 108 m 256,19,20
 252 108 252 108 224.5 137.5 c 128,-1,21
 197 167 197 167 197 217 c 2,22,-1
 197 308 l 2,23,24
 197 358 197 358 224.5 387.5 c 128,-1,25
 252 417 252 417 294 417 c 256,26,27
 336 417 336 417 363.5 396.5 c 128,-1,28
 391 376 391 376 391 340 c 2,29,-1
 391 185 l 2,30,31
 391 149 391 149 363.5 128.5 c 128,-1,32
 336 108 336 108 294 108 c 256,19,20
EndSplineSet
EndChar

StartChar: e
Encoding: 101 101 70
Width: 562
Flags: W
LayerCount: 2
Fore
SplineSet
288 -12 m 0,0,1
 432 -12 432 -12 508 75 c 1,2,-1
 434 167 l 1,3,4
 410 140 410 140 380.5 122 c 128,-1,5
 351 104 351 104 305 104 c 0,6,7
 245 104 245 104 217 134.5 c 128,-1,8
 189 165 189 165 189 217 c 2,9,-1
 189 225 l 1,10,-1
 526 225 l 1,11,-1
 526 269 l 2,12,13
 526 384 526 384 470 456 c 0,14,15
 405 537 405 537 282 537 c 0,16,17
 164 537 164 537 100 462.5 c 128,-1,18
 36 388 36 388 36 263 c 0,19,20
 36 137 36 137 102 62.5 c 128,-1,21
 168 -12 168 -12 288 -12 c 0,0,1
373 312 m 1,22,-1
 189 312 l 1,23,-1
 189 320 l 2,24,25
 189 369 189 369 214.5 398.5 c 128,-1,26
 240 428 240 428 285 428 c 256,27,28
 330 428 330 428 351.5 398.5 c 128,-1,29
 373 369 373 369 373 321 c 2,30,-1
 373 312 l 1,22,-1
EndSplineSet
EndChar

StartChar: f
Encoding: 102 102 71
Width: 361
Flags: W
LayerCount: 2
Fore
SplineSet
243 0 m 1,0,-1
 243 410 l 1,1,-1
 348 410 l 1,2,-1
 348 525 l 1,3,-1
 243 525 l 1,4,-1
 243 625 l 1,5,-1
 348 625 l 1,6,-1
 348 740 l 1,7,-1
 252 740 l 2,8,9
 98 740 98 740 95 587 c 2,10,-1
 95 525 l 1,11,-1
 21 525 l 1,12,-1
 21 410 l 1,13,-1
 95 410 l 1,14,-1
 95 0 l 1,15,-1
 243 0 l 1,0,-1
EndSplineSet
EndChar

StartChar: g
Encoding: 103 103 72
Width: 562
Flags: W
LayerCount: 2
Fore
SplineSet
271 -212 m 0,0,1
 140 -212 140 -212 79 -179 c 0,2,3
 22 -150 22 -150 22 -90 c 0,4,5
 22 -46 22 -46 48 -21 c 128,-1,6
 74 4 74 4 120 10 c 1,7,-1
 120 21 l 1,8,9
 82 28 82 28 63 53.5 c 128,-1,10
 44 79 44 79 44 113 c 0,11,12
 44 151 44 151 75 177 c 0,13,14
 98 196 98 196 142 206 c 1,15,-1
 142 210 l 1,16,17
 48 253 48 253 48 360 c 0,18,19
 48 440 48 440 103.5 488.5 c 128,-1,20
 159 537 159 537 273 537 c 0,21,22
 333 537 333 537 372 525 c 1,23,-1
 546 525 l 1,24,-1
 546 426 l 1,25,-1
 482 426 l 1,26,27
 498 398 498 398 498 360 c 0,28,29
 498 281 498 281 442.5 233.5 c 128,-1,30
 387 186 387 186 273 186 c 0,31,32
 222 186 222 186 180 197 c 1,33,34
 157 182 157 182 157 155 c 0,35,36
 157 115 157 115 220 115 c 2,37,-1
 372 115 l 2,38,39
 555 115 555 115 555 -38 c 0,40,41
 555 -124 555 -124 493 -166 c 0,42,43
 426 -212 426 -212 271 -212 c 0,0,1
273 283 m 256,44,45
 360 283 360 283 360 355 c 2,46,-1
 360 367 l 2,47,48
 360 439 360 439 273 439 c 256,49,50
 186 439 186 439 186 367 c 2,51,-1
 186 355 l 2,52,53
 186 283 186 283 273 283 c 256,44,45
306 -114 m 2,54,55
 366 -114 366 -114 391 -100.5 c 128,-1,56
 416 -87 416 -87 416 -58 c 0,57,58
 416 -35 416 -35 398 -23 c 128,-1,59
 380 -11 380 -11 335 -11 c 2,60,-1
 155 -11 l 1,61,62
 136 -30 136 -30 136 -58 c 0,63,64
 136 -87 136 -87 161 -100.5 c 128,-1,65
 186 -114 186 -114 246 -114 c 2,66,-1
 306 -114 l 2,54,55
EndSplineSet
EndChar

StartChar: h
Encoding: 104 104 73
Width: 596
Flags: W
LayerCount: 2
Fore
SplineSet
533 0 m 1,0,-1
 533 329 l 2,1,2
 533 429 533 429 491.5 483 c 128,-1,3
 450 537 450 537 369 537 c 0,4,5
 307 537 307 537 272 507.5 c 128,-1,6
 237 478 237 478 223 436 c 1,7,-1
 217 436 l 1,8,-1
 217 740 l 1,9,-1
 69 740 l 1,10,-1
 69 0 l 1,11,-1
 217 0 l 1,12,-1
 217 340 l 2,13,14
 217 378 217 378 246.5 397.5 c 128,-1,15
 276 417 276 417 312 417 c 0,16,17
 353 417 353 417 369 392.5 c 128,-1,18
 385 368 385 368 385 317 c 2,19,-1
 385 0 l 1,20,-1
 533 0 l 1,0,-1
EndSplineSet
EndChar

StartChar: i
Encoding: 105 105 74
Width: 286
GlyphClass: 7
Flags: W
LayerCount: 2
Fore
SplineSet
143 581 m 256,0,1
 188 581 188 581 208.5 601.5 c 128,-1,2
 229 622 229 622 229 654 c 2,3,-1
 229 676 l 2,4,5
 229 708 229 708 208.5 728.5 c 128,-1,6
 188 749 188 749 143 749 c 256,7,8
 98 749 98 749 77.5 728.5 c 128,-1,9
 57 708 57 708 57 676 c 2,10,-1
 57 654 l 2,11,12
 57 622 57 622 77.5 601.5 c 128,-1,13
 98 581 98 581 143 581 c 256,0,1
217 0 m 1,14,-1
 217 525 l 1,15,-1
 69 525 l 1,16,-1
 69 0 l 1,17,-1
 217 0 l 1,14,-1
EndSplineSet
EndChar

StartChar: j
Encoding: 106 106 75
Width: 286
Flags: W
LayerCount: 2
Fore
SplineSet
69 -200 m 2,0,1
 147 -200 147 -200 182 -163 c 128,-1,2
 217 -126 217 -126 217 -56 c 2,3,-1
 217 525 l 1,4,-1
 69 525 l 1,5,-1
 69 -85 l 1,6,-1
 -9 -85 l 1,7,-1
 -9 -200 l 1,8,-1
 69 -200 l 2,0,1
143 581 m 256,9,10
 188 581 188 581 208.5 601.5 c 128,-1,11
 229 622 229 622 229 654 c 2,12,-1
 229 676 l 2,13,14
 229 708 229 708 208.5 728.5 c 128,-1,15
 188 749 188 749 143 749 c 256,16,17
 98 749 98 749 77.5 728.5 c 128,-1,18
 57 708 57 708 57 676 c 2,19,-1
 57 654 l 2,20,21
 57 622 57 622 77.5 601.5 c 128,-1,22
 98 581 98 581 143 581 c 256,9,10
EndSplineSet
EndChar

StartChar: k
Encoding: 107 107 76
Width: 577
Flags: W
LayerCount: 2
Fore
SplineSet
577 0 m 1,0,-1
 382 324 l 1,1,-1
 557 525 l 1,2,-1
 393 525 l 1,3,-1
 288 400 l 1,4,-1
 223 303 l 1,5,-1
 217 303 l 1,6,-1
 217 740 l 1,7,-1
 69 740 l 1,8,-1
 69 0 l 1,9,-1
 217 0 l 1,10,-1
 217 148 l 1,11,-1
 283 222 l 1,12,-1
 401 0 l 1,13,-1
 577 0 l 1,0,-1
EndSplineSet
EndChar

StartChar: l
Encoding: 108 108 77
Width: 303
Flags: W
LayerCount: 2
Fore
SplineSet
283 0 m 1,0,-1
 283 115 l 1,1,-1
 217 115 l 1,2,-1
 217 740 l 1,3,-1
 69 740 l 1,4,-1
 69 144 l 2,5,6
 69 0 69 0 216 0 c 2,7,-1
 283 0 l 1,0,-1
EndSplineSet
EndChar

StartChar: m
Encoding: 109 109 78
Width: 894
Flags: W
LayerCount: 2
Fore
SplineSet
831 0 m 1,0,-1
 831 329 l 2,1,2
 831 429 831 429 790.5 483 c 128,-1,3
 750 537 750 537 674 537 c 0,4,5
 614 537 614 537 571 506.5 c 128,-1,6
 528 476 528 476 514 431 c 1,7,-1
 511 431 l 1,8,9
 472 537 472 537 364 537 c 0,10,11
 305 537 305 537 271 508 c 128,-1,12
 237 479 237 479 223 436 c 1,13,-1
 217 436 l 1,14,-1
 217 525 l 1,15,-1
 69 525 l 1,16,-1
 69 0 l 1,17,-1
 217 0 l 1,18,-1
 217 340 l 2,19,20
 217 378 217 378 245 397.5 c 128,-1,21
 273 417 273 417 304 417 c 0,22,23
 376 417 376 417 376 317 c 2,24,-1
 376 0 l 1,25,-1
 524 0 l 1,26,-1
 524 340 l 2,27,28
 524 379 524 379 551 398 c 128,-1,29
 578 417 578 417 611 417 c 0,30,31
 683 417 683 417 683 317 c 2,32,-1
 683 0 l 1,33,-1
 831 0 l 1,0,-1
EndSplineSet
EndChar

StartChar: n
Encoding: 110 110 79
Width: 596
Flags: W
LayerCount: 2
Fore
SplineSet
533 0 m 1,0,-1
 533 329 l 2,1,2
 533 429 533 429 491.5 483 c 128,-1,3
 450 537 450 537 369 537 c 0,4,5
 307 537 307 537 272 507.5 c 128,-1,6
 237 478 237 478 223 436 c 1,7,-1
 217 436 l 1,8,-1
 217 525 l 1,9,-1
 69 525 l 1,10,-1
 69 0 l 1,11,-1
 217 0 l 1,12,-1
 217 340 l 2,13,14
 217 378 217 378 246.5 397.5 c 128,-1,15
 276 417 276 417 312 417 c 0,16,17
 353 417 353 417 369 392.5 c 128,-1,18
 385 368 385 368 385 317 c 2,19,-1
 385 0 l 1,20,-1
 533 0 l 1,0,-1
EndSplineSet
EndChar

StartChar: o
Encoding: 111 111 80
Width: 564
Flags: W
LayerCount: 2
Fore
SplineSet
282 -12 m 0,0,1
 398 -12 398 -12 463 62.5 c 128,-1,2
 528 137 528 137 528 263 c 256,3,4
 528 389 528 389 463 463 c 128,-1,5
 398 537 398 537 282 537 c 0,6,7
 167 537 167 537 101.5 463 c 128,-1,8
 36 389 36 389 36 263 c 256,9,10
 36 137 36 137 101.5 62.5 c 128,-1,11
 167 -12 167 -12 282 -12 c 0,0,1
282 105 m 0,12,13
 194 105 194 105 190 209 c 1,14,-1
 190 316 l 2,15,16
 190 417 190 417 282 420 c 0,17,18
 371 420 371 420 374 316 c 2,19,-1
 374 209 l 2,20,21
 374 109 374 109 282 105 c 0,12,13
EndSplineSet
EndChar

StartChar: p
Encoding: 112 112 81
Width: 608
Flags: W
LayerCount: 2
Fore
SplineSet
217 -200 m 1,0,-1
 217 88 l 1,1,-1
 222 88 l 1,2,3
 235 45 235 45 273 16.5 c 128,-1,4
 311 -12 311 -12 363 -12 c 0,5,6
 563 -12 563 -12 565 263 c 0,7,8
 565 397 565 397 514 467 c 128,-1,9
 463 537 463 537 363 537 c 0,10,11
 312 537 312 537 273 509.5 c 128,-1,12
 234 482 234 482 222 437 c 1,13,-1
 217 437 l 1,14,-1
 217 525 l 1,15,-1
 69 525 l 1,16,-1
 69 -200 l 1,17,-1
 217 -200 l 1,0,-1
314 108 m 256,18,19
 272 108 272 108 244.5 128.5 c 128,-1,20
 217 149 217 149 217 185 c 2,21,-1
 217 340 l 2,22,23
 217 376 217 376 244.5 396.5 c 128,-1,24
 272 417 272 417 314 417 c 256,25,26
 356 417 356 417 383.5 387.5 c 128,-1,27
 411 358 411 358 411 308 c 2,28,-1
 411 217 l 2,29,30
 411 167 411 167 383.5 137.5 c 128,-1,31
 356 108 356 108 314 108 c 256,18,19
EndSplineSet
EndChar

StartChar: q
Encoding: 113 113 82
Width: 608
Flags: W
LayerCount: 2
Fore
SplineSet
539 -200 m 1,0,-1
 539 525 l 1,1,-1
 391 525 l 1,2,-1
 391 437 l 1,3,-1
 386 437 l 1,4,5
 374 482 374 482 335 509.5 c 128,-1,6
 296 537 296 537 245 537 c 0,7,8
 46 537 46 537 43 263 c 0,9,10
 43 129 43 129 94 58.5 c 128,-1,11
 145 -12 145 -12 245 -12 c 0,12,13
 295 -12 295 -12 336 17 c 0,14,15
 373 45 373 45 386 88 c 1,16,-1
 391 88 l 1,17,-1
 391 -200 l 1,18,-1
 539 -200 l 1,0,-1
294 108 m 256,19,20
 252 108 252 108 224.5 137.5 c 128,-1,21
 197 167 197 167 197 217 c 2,22,-1
 197 308 l 2,23,24
 197 358 197 358 224.5 387.5 c 128,-1,25
 252 417 252 417 294 417 c 256,26,27
 336 417 336 417 363.5 396.5 c 128,-1,28
 391 376 391 376 391 340 c 2,29,-1
 391 185 l 2,30,31
 391 149 391 149 363.5 128.5 c 128,-1,32
 336 108 336 108 294 108 c 256,19,20
EndSplineSet
EndChar

StartChar: r
Encoding: 114 114 83
Width: 404
Flags: W
LayerCount: 2
Fore
SplineSet
217 0 m 1,0,-1
 217 307 l 2,1,2
 217 353 217 353 248.5 370 c 128,-1,3
 280 387 280 387 345 387 c 2,4,-1
 382 387 l 1,5,-1
 382 525 l 1,6,-1
 356 525 l 2,7,8
 299 525 299 525 264.5 491 c 128,-1,9
 230 457 230 457 222 411 c 1,10,-1
 217 411 l 1,11,-1
 217 525 l 1,12,-1
 69 525 l 1,13,-1
 69 0 l 1,14,-1
 217 0 l 1,0,-1
EndSplineSet
EndChar

StartChar: s
Encoding: 115 115 84
Width: 504
Flags: W
LayerCount: 2
Fore
SplineSet
247 -12 m 0,0,1
 349 -12 349 -12 410.5 37.5 c 128,-1,2
 472 87 472 87 472 163 c 0,3,4
 472 298 472 298 299 321 c 0,5,6
 270 325 270 325 239 329.5 c 128,-1,7
 208 334 208 334 196.5 345.5 c 128,-1,8
 185 357 185 357 185 378 c 0,9,10
 185 422 185 422 255 422 c 0,11,12
 321 422 321 422 376 368 c 1,13,-1
 461 455 l 1,14,15
 422 494 422 494 376 515.5 c 128,-1,16
 330 537 330 537 247 537 c 0,17,18
 153 537 153 537 98 490 c 128,-1,19
 43 443 43 443 43 366 c 0,20,21
 43 227 43 227 220 204 c 2,22,-1
 277 197 l 2,23,24
 330 191 330 191 330 153 c 0,25,26
 330 130 330 130 313 116.5 c 128,-1,27
 296 103 296 103 252 103 c 0,28,29
 173 103 173 103 113 170 c 1,30,-1
 26 82 l 1,31,32
 66 37 66 37 118.5 12.5 c 128,-1,33
 171 -12 171 -12 247 -12 c 0,0,1
EndSplineSet
EndChar

StartChar: t
Encoding: 116 116 85
Width: 383
GlyphClass: 1
Flags: W
LayerCount: 2
Fore
SplineSet
341 0 m 1,0,-1
 341 115 l 1,1,-1
 245 115 l 1,2,-1
 245 410 l 1,3,-1
 349 410 l 1,4,-1
 349 525 l 1,5,-1
 245 525 l 1,6,-1
 245 667 l 1,7,-1
 112 667 l 1,8,-1
 112 581 l 2,9,10
 112 554 112 554 101 539.5 c 128,-1,11
 90 525 90 525 60 525 c 2,12,-1
 23 525 l 1,13,-1
 23 410 l 1,14,-1
 97 410 l 1,15,-1
 97 153 l 2,16,17
 97 3 97 3 253 0 c 2,18,-1
 341 0 l 1,0,-1
EndSplineSet
EndChar

StartChar: u
Encoding: 117 117 86
Width: 596
Flags: W
LayerCount: 2
Fore
SplineSet
227 -12 m 0,0,1
 292 -12 292 -12 326.5 17.5 c 128,-1,2
 361 47 361 47 374 88 c 1,3,-1
 379 88 l 1,4,-1
 379 0 l 1,5,-1
 527 0 l 1,6,-1
 527 525 l 1,7,-1
 379 525 l 1,8,-1
 379 184 l 2,9,10
 379 147 379 147 350 127.5 c 128,-1,11
 321 108 321 108 286 108 c 0,12,13
 245 108 245 108 228 134 c 128,-1,14
 211 160 211 160 211 208 c 2,15,-1
 211 525 l 1,16,-1
 63 525 l 1,17,-1
 63 195 l 2,18,19
 63 95 63 95 104.5 41.5 c 128,-1,20
 146 -12 146 -12 227 -12 c 0,0,1
EndSplineSet
EndChar

StartChar: v
Encoding: 118 118 87
Width: 538
Flags: W
LayerCount: 2
Fore
SplineSet
357 0 m 1,0,-1
 529 525 l 1,1,-1
 389 525 l 1,2,-1
 326 313 l 1,3,-1
 277 123 l 1,4,-1
 269 123 l 1,5,-1
 220 313 l 1,6,-1
 155 525 l 1,7,-1
 9 525 l 1,8,-1
 181 0 l 1,9,-1
 357 0 l 1,0,-1
EndSplineSet
EndChar

StartChar: w
Encoding: 119 119 88
Width: 841
Flags: W
LayerCount: 2
Fore
SplineSet
677 0 m 1,0,-1
 822 525 l 1,1,-1
 685 525 l 1,2,-1
 634 313 l 1,3,-1
 598 153 l 1,4,-1
 594 153 l 1,5,-1
 551 313 l 1,6,-1
 490 525 l 1,7,-1
 355 525 l 1,8,-1
 295 313 l 1,9,-1
 253 153 l 1,10,-1
 249 153 l 1,11,-1
 213 313 l 1,12,-1
 162 525 l 1,13,-1
 19 525 l 1,14,-1
 166 0 l 1,15,-1
 318 0 l 1,16,-1
 382 222 l 1,17,-1
 418 358 l 1,18,-1
 421 358 l 1,19,20
 470 179 470 179 522 0 c 1,21,-1
 677 0 l 1,0,-1
EndSplineSet
EndChar

StartChar: x
Encoding: 120 120 89
Width: 560
Flags: W
LayerCount: 2
Fore
SplineSet
542 0 m 1,0,-1
 367 262 l 1,1,-1
 541 525 l 1,2,-1
 385 525 l 1,3,-1
 290 360 l 1,4,-1
 286 360 l 1,5,-1
 188 525 l 1,6,-1
 20 525 l 1,7,-1
 191 267 l 1,8,-1
 18 0 l 1,9,-1
 172 0 l 1,10,-1
 269 171 l 1,11,-1
 273 171 l 1,12,-1
 374 0 l 1,13,-1
 542 0 l 1,0,-1
EndSplineSet
EndChar

StartChar: y
Encoding: 121 121 90
Width: 534
Flags: W
LayerCount: 2
Fore
SplineSet
165 -200 m 2,0,1
 233 -200 233 -200 270 -171 c 128,-1,2
 307 -142 307 -142 326 -81 c 2,3,-1
 528 525 l 1,4,-1
 390 525 l 1,5,-1
 313 280 l 1,6,-1
 274 128 l 1,7,-1
 268 128 l 1,8,-1
 230 280 l 1,9,-1
 153 525 l 1,10,-1
 6 525 l 1,11,-1
 190 -27 l 1,12,-1
 172 -85 l 1,13,-1
 73 -85 l 1,14,-1
 73 -200 l 1,15,-1
 165 -200 l 2,0,1
EndSplineSet
EndChar

StartChar: z
Encoding: 122 122 91
Width: 518
Flags: W
LayerCount: 2
Fore
SplineSet
479 0 m 1,0,-1
 479 115 l 1,1,-1
 210 115 l 1,2,-1
 472 409 l 1,3,-1
 472 525 l 1,4,-1
 48 525 l 1,5,-1
 48 410 l 1,6,-1
 300 410 l 1,7,-1
 39 117 l 1,8,-1
 39 0 l 1,9,-1
 479 0 l 1,0,-1
EndSplineSet
EndChar

StartChar: braceleft
Encoding: 123 123 92
Width: 372
Flags: W
LayerCount: 2
Fore
SplineSet
322 -138 m 1,0,-1
 322 -34 l 1,1,-1
 253 -34 l 1,2,-1
 253 181 l 2,3,4
 253 229 253 229 222.5 265 c 128,-1,5
 192 301 192 301 149 309 c 1,6,-1
 149 313 l 1,7,8
 192 322 192 322 222.5 357.5 c 128,-1,9
 253 393 253 393 253 441 c 2,10,-1
 253 656 l 1,11,-1
 322 656 l 1,12,-1
 322 760 l 1,13,-1
 213 760 l 2,14,15
 172 760 172 760 144 734 c 128,-1,16
 116 708 116 708 116 659 c 2,17,-1
 116 457 l 2,18,19
 116 413 116 413 88.5 390.5 c 128,-1,20
 61 368 61 368 19 368 c 1,21,-1
 19 255 l 1,22,23
 61 255 61 255 88.5 232.5 c 128,-1,24
 116 210 116 210 116 166 c 2,25,-1
 116 -37 l 2,26,27
 116 -86 116 -86 144 -112 c 128,-1,28
 172 -138 172 -138 213 -138 c 2,29,-1
 322 -138 l 1,0,-1
EndSplineSet
EndChar

StartChar: bar
Encoding: 124 124 93
Width: 402
Flags: W
LayerCount: 2
Fore
SplineSet
264 -138 m 1,0,-1
 264 760 l 1,1,-1
 138 760 l 1,2,-1
 138 -138 l 1,3,-1
 264 -138 l 1,0,-1
EndSplineSet
EndChar

StartChar: braceright
Encoding: 125 125 94
Width: 372
Flags: W
LayerCount: 2
Fore
SplineSet
159 -138 m 2,0,1
 200 -138 200 -138 228 -112 c 128,-1,2
 256 -86 256 -86 256 -37 c 2,3,-1
 256 166 l 2,4,5
 256 210 256 210 283.5 232.5 c 128,-1,6
 311 255 311 255 353 255 c 1,7,-1
 353 368 l 1,8,9
 311 368 311 368 283.5 390.5 c 128,-1,10
 256 413 256 413 256 457 c 2,11,-1
 256 659 l 2,12,13
 256 708 256 708 228 734 c 128,-1,14
 200 760 200 760 159 760 c 2,15,-1
 50 760 l 1,16,-1
 50 656 l 1,17,-1
 119 656 l 1,18,-1
 119 442 l 2,19,20
 119 394 119 394 149.5 358.5 c 128,-1,21
 180 323 180 323 223 314 c 1,22,-1
 223 310 l 1,23,24
 180 302 180 302 149.5 266 c 128,-1,25
 119 230 119 230 119 182 c 2,26,-1
 119 -34 l 1,27,-1
 50 -34 l 1,28,-1
 50 -138 l 1,29,-1
 159 -138 l 2,0,1
EndSplineSet
EndChar

StartChar: asciitilde
Encoding: 126 126 95
Width: 600
Flags: W
LayerCount: 2
Fore
SplineSet
416 212 m 0,0,1
 506 212 506 212 547 274 c 1,2,-1
 498 358 l 1,3,4
 477 344 477 344 460 337.5 c 128,-1,5
 443 331 443 331 420 331 c 0,6,7
 389 331 389 331 363 340 c 128,-1,8
 337 349 337 349 310 364 c 0,9,10
 278 381 278 381 249.5 390.5 c 128,-1,11
 221 400 221 400 184 400 c 0,12,13
 94 400 94 400 53 338 c 1,14,-1
 102 254 l 1,15,16
 123 268 123 268 140 274.5 c 128,-1,17
 157 281 157 281 180 281 c 0,18,19
 211 281 211 281 237 272 c 128,-1,20
 263 263 263 263 290 248 c 0,21,22
 322 231 322 231 350.5 221.5 c 128,-1,23
 379 212 379 212 416 212 c 0,0,1
EndSplineSet
EndChar

StartChar: exclamdown
Encoding: 161 161 97
Width: 320
Flags: W
LayerCount: 2
Fore
SplineSet
238 -173 m 1,0,-1
 238 21 l 1,1,-1
 191 305 l 1,2,-1
 128 305 l 1,3,-1
 82 21 l 1,4,-1
 82 -173 l 1,5,-1
 238 -173 l 1,0,-1
160 361 m 256,6,7
 208 361 208 361 228.5 383 c 128,-1,8
 249 405 249 405 249 437 c 2,9,-1
 249 461 l 2,10,11
 249 493 249 493 228.5 515 c 128,-1,12
 208 537 208 537 160 537 c 256,13,14
 112 537 112 537 91.5 515 c 128,-1,15
 71 493 71 493 71 461 c 2,16,-1
 71 437 l 2,17,18
 71 405 71 405 91.5 383 c 128,-1,19
 112 361 112 361 160 361 c 256,6,7
EndSplineSet
EndChar

StartChar: cent
Encoding: 162 162 98
Width: 552
Flags: W
LayerCount: 2
Fore
SplineSet
347 -114 m 1,0,-1
 347 -8 l 1,1,2
 471 14 471 14 516 114 c 1,3,-1
 411 173 l 1,4,5
 389 124 389 124 338 104 c 1,6,-1
 338 411 l 1,7,8
 384 390 384 390 402 344 c 1,9,-1
 508 402 l 1,10,11
 467 501 467 501 347 524 c 1,12,-1
 347 630 l 1,13,-1
 237 630 l 1,14,-1
 237 523 l 1,15,16
 143 505 143 505 92 436 c 128,-1,17
 41 367 41 367 41 258 c 256,18,19
 41 149 41 149 92 80.5 c 128,-1,20
 143 12 143 12 237 -7 c 1,21,-1
 237 -114 l 1,22,-1
 347 -114 l 1,0,-1
247 106 m 1,23,24
 182 137 182 137 182 216 c 2,25,-1
 182 300 l 2,26,27
 182 380 182 380 247 410 c 1,28,-1
 247 106 l 1,23,24
EndSplineSet
EndChar

StartChar: sterling
Encoding: 163 163 99
Width: 582
Flags: W
LayerCount: 2
Fore
SplineSet
554 0 m 1,0,-1
 554 128 l 1,1,-1
 220 128 l 1,2,-1
 220 137 l 1,3,4
 247 150 247 150 272 180.5 c 128,-1,5
 297 211 297 211 297 263 c 0,6,7
 297 279 297 279 295 291 c 1,8,-1
 445 291 l 1,9,-1
 445 411 l 1,10,-1
 249 411 l 1,11,12
 235 441 235 441 235 481 c 0,13,14
 235 576 235 576 336 579 c 0,15,16
 408 579 408 579 458 512 c 1,17,-1
 568 589 l 1,18,19
 489 710 489 710 332 710 c 0,20,21
 218 710 218 710 150 653.5 c 128,-1,22
 82 597 82 597 82 505 c 0,23,24
 82 453 82 453 100 411 c 1,25,-1
 34 411 l 1,26,-1
 34 291 l 1,27,-1
 145 291 l 1,28,29
 149 276 149 276 149 258 c 0,30,31
 149 215 149 215 127 184 c 128,-1,32
 105 153 105 153 66 136 c 1,33,-1
 66 0 l 1,34,-1
 554 0 l 1,0,-1
EndSplineSet
EndChar

StartChar: yen
Encoding: 165 165 100
Width: 650
Flags: W
LayerCount: 2
Fore
SplineSet
399 0 m 1,0,-1
 399 133 l 1,1,-1
 567 133 l 1,2,-1
 567 223 l 1,3,-1
 399 223 l 1,4,-1
 399 291 l 1,5,-1
 567 291 l 1,6,-1
 567 381 l 1,7,-1
 457 381 l 1,8,-1
 631 698 l 1,9,-1
 468 698 l 1,10,-1
 331 423 l 1,11,-1
 329 423 l 1,12,-1
 191 698 l 1,13,-1
 19 698 l 1,14,-1
 188 381 l 1,15,-1
 78 381 l 1,16,-1
 78 291 l 1,17,-1
 246 291 l 1,18,-1
 246 223 l 1,19,-1
 78 223 l 1,20,-1
 78 133 l 1,21,-1
 246 133 l 1,22,-1
 246 0 l 1,23,-1
 399 0 l 1,0,-1
EndSplineSet
EndChar

StartChar: brokenbar
Encoding: 166 166 101
Width: 402
Flags: W
LayerCount: 2
Fore
SplineSet
264 401 m 1,0,-1
 264 760 l 1,1,-1
 138 760 l 1,2,-1
 138 401 l 1,3,-1
 264 401 l 1,0,-1
264 -138 m 1,4,-1
 264 221 l 1,5,-1
 138 221 l 1,6,-1
 138 -138 l 1,7,-1
 264 -138 l 1,4,-1
EndSplineSet
EndChar

StartChar: section
Encoding: 167 167 102
Width: 569
Flags: W
LayerCount: 2
Fore
SplineSet
271 -161 m 0,0,1
 367 -161 367 -161 427.5 -115 c 128,-1,2
 488 -69 488 -69 488 13 c 0,3,4
 488 103 488 103 411 153 c 1,5,-1
 411 169 l 1,6,7
 519 215 519 215 519 307 c 0,8,9
 519 329 519 329 511 351 c 0,10,11
 487 422 487 422 368 457 c 2,12,-1
 291 478 l 2,13,14
 246 489 246 489 225 504.5 c 128,-1,15
 204 520 204 520 204 546 c 0,16,17
 204 605 204 605 293 605 c 0,18,19
 337 605 337 605 367.5 590.5 c 128,-1,20
 398 576 398 576 424 550 c 1,21,-1
 497 638 l 1,22,23
 418 710 418 710 296 710 c 0,24,25
 202 710 202 710 141 667 c 128,-1,26
 80 624 80 624 80 541 c 0,27,28
 80 452 80 452 157 402 c 1,29,-1
 157 385 l 1,30,31
 102 361 102 361 76 325.5 c 128,-1,32
 50 290 50 290 50 247 c 0,33,34
 50 143 50 143 200 99 c 2,35,-1
 277 78 l 2,36,37
 322 67 322 67 343 51 c 128,-1,38
 364 35 364 35 364 7 c 0,39,40
 364 -54 364 -54 273 -56 c 0,41,42
 195 -56 195 -56 144 -1 c 1,43,-1
 72 -89 l 1,44,45
 152 -161 152 -161 271 -161 c 0,0,1
361 179 m 1,46,47
 343 186 343 186 252 211 c 0,48,49
 205 225 205 225 188.5 246 c 128,-1,50
 172 267 172 267 172 292 c 0,51,52
 172 339 172 339 208 376 c 1,53,-1
 213 374 l 1,54,-1
 316 345 l 2,55,56
 363 331 363 331 379.5 309.5 c 128,-1,57
 396 288 396 288 396 262 c 0,58,59
 396 216 396 216 361 179 c 1,46,47
EndSplineSet
EndChar

StartChar: dieresis
Encoding: 168 168 103
Width: 600
Flags: W
LayerCount: 2
Fore
SplineSet
190 600 m 256,0,1
 270 600 270 600 270 663 c 2,2,-1
 270 688 l 2,3,4
 270 751 270 751 190 751 c 256,5,6
 110 751 110 751 110 688 c 2,7,-1
 110 663 l 2,8,9
 110 600 110 600 190 600 c 256,0,1
410 600 m 256,10,11
 490 600 490 600 490 663 c 2,12,-1
 490 688 l 2,13,14
 490 751 490 751 410 751 c 256,15,16
 330 751 330 751 330 688 c 2,17,-1
 330 663 l 2,18,19
 330 600 330 600 410 600 c 256,10,11
EndSplineSet
EndChar

StartChar: copyright
Encoding: 169 169 104
Width: 792
GlyphClass: 1
Flags: W
LayerCount: 2
Fore
SplineSet
396 -12 m 0,0,1
 548 -12 548 -12 646 85 c 0,2,3
 744 186 744 186 744 349 c 256,4,5
 744 512 744 512 646 613 c 0,6,7
 548 710 548 710 396 710 c 0,8,9
 245 710 245 710 146 613 c 0,10,11
 48 512 48 512 48 349 c 256,12,13
 48 186 48 186 146 85 c 0,14,15
 245 -12 245 -12 396 -12 c 0,0,1
396 52 m 256,16,17
 276 52 276 52 200 128 c 0,18,19
 122 203 122 203 122 315 c 2,20,-1
 122 383 l 2,21,22
 122 493 122 493 199 569.5 c 128,-1,23
 276 646 276 646 396 646 c 256,24,25
 516 646 516 646 593 569.5 c 128,-1,26
 670 493 670 493 670 383 c 2,27,-1
 670 315 l 2,28,29
 670 203 670 203 593 127.5 c 128,-1,30
 516 52 516 52 396 52 c 256,16,17
403 134 m 0,31,32
 483 134 483 134 527.5 167.5 c 128,-1,33
 572 201 572 201 592 248 c 1,34,-1
 491 295 l 1,35,36
 462 237 462 237 403 237 c 0,37,38
 337 237 337 237 332 309 c 1,39,-1
 332 389 l 2,40,41
 332 422 332 422 351 441.5 c 128,-1,42
 370 461 370 461 403 461 c 256,43,44
 436 461 436 461 454.5 445.5 c 128,-1,45
 473 430 473 430 484 403 c 1,46,-1
 584 451 l 1,47,48
 540 564 540 564 403 564 c 0,49,50
 306 564 306 564 250.5 505.5 c 128,-1,51
 195 447 195 447 195 349 c 0,52,53
 195 252 195 252 250.5 193 c 128,-1,54
 306 134 306 134 403 134 c 0,31,32
EndSplineSet
EndChar

StartChar: ordfeminine
Encoding: 170 170 105
Width: 429
Flags: W
LayerCount: 2
Fore
SplineSet
160 332 m 0,0,1
 109 332 109 332 77.5 360.5 c 128,-1,2
 46 389 46 389 46 440 c 0,3,4
 46 551 46 551 206 551 c 2,5,-1
 262 551 l 1,6,-1
 262 569 l 2,7,8
 262 602 262 602 248 618 c 128,-1,9
 234 634 234 634 199 634 c 0,10,11
 142 634 142 634 112 589 c 1,12,-1
 56 639 l 1,13,14
 95 710 95 710 211 710 c 0,15,16
 283 710 283 710 324.5 676 c 128,-1,17
 366 642 366 642 366 573 c 2,18,-1
 366 340 l 1,19,-1
 272 340 l 1,20,-1
 272 404 l 1,21,-1
 268 404 l 1,22,23
 258 369 258 369 229.5 350.5 c 128,-1,24
 201 332 201 332 160 332 c 0,0,1
200 400 m 0,25,26
 226 400 226 400 244 413 c 128,-1,27
 262 426 262 426 262 452 c 2,28,-1
 262 495 l 1,29,-1
 209 495 l 2,30,31
 148 495 148 495 147 452 c 2,32,-1
 147 438 l 2,33,34
 147 400 147 400 200 400 c 0,25,26
EndSplineSet
EndChar

StartChar: guillemotleft
Encoding: 171 171 106
Width: 558
GlyphClass: 1
Flags: W
LayerCount: 2
Fore
SplineSet
224 49 m 1,0,-1
 267 141 l 1,1,-1
 147 272 l 1,2,-1
 267 403 l 1,3,-1
 224 495 l 1,4,-1
 38 335 l 1,5,-1
 38 209 l 1,6,-1
 224 49 l 1,0,-1
465 49 m 1,7,-1
 508 141 l 1,8,-1
 388 272 l 1,9,-1
 508 403 l 1,10,-1
 465 495 l 1,11,-1
 279 335 l 1,12,-1
 279 209 l 1,13,-1
 465 49 l 1,7,-1
EndSplineSet
EndChar

StartChar: logicalnot
Encoding: 172 172 107
Width: 600
Flags: W
LayerCount: 2
Fore
SplineSet
533 78 m 1,0,-1
 533 365 l 1,1,-1
 52 365 l 1,2,-1
 52 247 l 1,3,-1
 412 247 l 1,4,-1
 412 78 l 1,5,-1
 533 78 l 1,0,-1
EndSplineSet
EndChar

StartChar: sfthyphen
Encoding: 173 173 108
Width: 403
Flags: W
LayerCount: 2
Fore
SplineSet
350 233 m 1,0,-1
 350 377 l 1,1,-1
 53 377 l 1,2,-1
 53 233 l 1,3,-1
 350 233 l 1,0,-1
EndSplineSet
EndChar

StartChar: registered
Encoding: 174 174 109
Width: 464
Flags: W
LayerCount: 2
Fore
SplineSet
232 298 m 256,0,1
 316 298 316 298 375 357 c 128,-1,2
 434 416 434 416 434 504 c 0,3,4
 434 593 434 593 376 652 c 0,5,6
 316 710 316 710 232 710 c 256,7,8
 148 710 148 710 89 651.5 c 128,-1,9
 30 593 30 593 30 504 c 0,10,11
 30 416 30 416 89 357 c 128,-1,12
 148 298 148 298 232 298 c 256,0,1
232 345 m 256,13,14
 172 345 172 345 128 383 c 128,-1,15
 84 421 84 421 84 488 c 2,16,-1
 84 520 l 2,17,18
 84 588 84 588 128 625.5 c 128,-1,19
 172 663 172 663 232 663 c 256,20,21
 292 663 292 663 336 625.5 c 128,-1,22
 380 588 380 588 380 520 c 2,23,-1
 380 488 l 2,24,25
 380 421 380 421 336 383 c 128,-1,26
 292 345 292 345 232 345 c 256,13,14
333 400 m 1,27,-1
 290 473 l 1,28,29
 327 490 327 490 327 539 c 0,30,31
 327 569 327 569 308 589 c 128,-1,32
 289 609 289 609 247 609 c 2,33,-1
 145 609 l 1,34,-1
 145 400 l 1,35,-1
 209 400 l 1,36,-1
 209 461 l 1,37,-1
 232 461 l 1,38,-1
 264 400 l 1,39,-1
 333 400 l 1,27,-1
234 508 m 2,40,-1
 209 508 l 1,41,-1
 209 561 l 1,42,-1
 234 561 l 2,43,44
 262 561 262 561 262 540 c 2,45,-1
 262 531 l 2,46,47
 262 509 262 509 234 508 c 2,40,-1
EndSplineSet
EndChar

StartChar: macron
Encoding: 175 175 110
Width: 600
Flags: W
LayerCount: 2
Fore
SplineSet
453 624 m 1,0,-1
 453 727 l 1,1,-1
 147 727 l 1,2,-1
 147 624 l 1,3,-1
 453 624 l 1,0,-1
EndSplineSet
EndChar

StartChar: degree
Encoding: 176 176 111
Width: 470
Flags: W
LayerCount: 2
Fore
SplineSet
235 334 m 256,0,1
 313 334 313 334 366.5 387 c 128,-1,2
 420 440 420 440 420 522 c 0,3,4
 420 602 420 602 367 657 c 0,5,6
 313 710 313 710 235 710 c 256,7,8
 157 710 157 710 103 657 c 0,9,10
 50 602 50 602 50 522 c 0,11,12
 50 440 50 440 103.5 387 c 128,-1,13
 157 334 157 334 235 334 c 256,0,1
235 429 m 256,14,15
 197 429 197 429 174 455.5 c 128,-1,16
 151 482 151 482 151 522 c 256,17,18
 151 562 151 562 174 588.5 c 128,-1,19
 197 615 197 615 235 615 c 256,20,21
 273 615 273 615 296 588.5 c 128,-1,22
 319 562 319 562 319 522 c 256,23,24
 319 482 319 482 296 455.5 c 128,-1,25
 273 429 273 429 235 429 c 256,14,15
EndSplineSet
EndChar

StartChar: plusminus
Encoding: 177 177 112
Width: 600
Flags: W
LayerCount: 2
Fore
SplineSet
364 184 m 1,0,-1
 364 351 l 1,1,-1
 533 351 l 1,2,-1
 533 470 l 1,3,-1
 364 470 l 1,4,-1
 364 635 l 1,5,-1
 236 635 l 1,6,-1
 236 470 l 1,7,-1
 67 470 l 1,8,-1
 67 351 l 1,9,-1
 236 351 l 1,10,-1
 236 184 l 1,11,-1
 364 184 l 1,0,-1
533 0 m 1,12,-1
 533 119 l 1,13,-1
 67 119 l 1,14,-1
 67 0 l 1,15,-1
 533 0 l 1,12,-1
EndSplineSet
EndChar

StartChar: twosuperior
Encoding: 178 178 113
Width: 347
Flags: W
LayerCount: 2
Fore
SplineSet
322 329 m 1,0,-1
 322 412 l 1,1,-1
 145 412 l 1,2,-1
 204 445 l 2,3,4
 250 469 250 469 284 506 c 128,-1,5
 318 543 318 543 318 590 c 0,6,7
 318 640 318 640 281 672 c 128,-1,8
 244 704 244 704 176 704 c 0,9,10
 113 704 113 704 74.5 676.5 c 128,-1,11
 36 649 36 649 22 606 c 1,12,-1
 111 573 l 1,13,14
 123 618 123 618 166 618 c 256,15,16
 209 618 209 618 209 584 c 0,17,18
 209 561 209 561 194 544 c 128,-1,19
 179 527 179 527 142 500 c 2,20,-1
 33 417 l 1,21,-1
 33 329 l 1,22,-1
 322 329 l 1,0,-1
EndSplineSet
EndChar

StartChar: threesuperior
Encoding: 179 179 114
Width: 345
Flags: W
LayerCount: 2
Fore
SplineSet
159 323 m 0,0,1
 229 323 229 323 272.5 352.5 c 128,-1,2
 316 382 316 382 316 433 c 0,3,4
 316 504 316 504 234 518 c 1,5,-1
 234 522 l 1,6,7
 266 526 266 526 288 547 c 128,-1,8
 310 568 310 568 310 603 c 0,9,10
 310 648 310 648 270.5 676 c 128,-1,11
 231 704 231 704 160 704 c 0,12,13
 107 704 107 704 73.5 688 c 128,-1,14
 40 672 40 672 15 641 c 1,15,-1
 77 582 l 1,16,17
 115 625 115 625 157 625 c 0,18,19
 179 625 179 625 190.5 614 c 128,-1,20
 202 603 202 603 202 585 c 0,21,22
 202 575 202 575 190 566.5 c 128,-1,23
 178 558 178 558 151 558 c 2,24,-1
 117 558 l 1,25,-1
 117 476 l 1,26,-1
 148 476 l 2,27,28
 209 476 209 476 209 444 c 0,29,30
 209 406 209 406 159 402 c 1,31,32
 105 402 105 402 80 456 c 1,33,-1
 4 398 l 1,34,35
 23 366 23 366 58.5 344.5 c 128,-1,36
 94 323 94 323 159 323 c 0,0,1
EndSplineSet
EndChar

StartChar: acute
Encoding: 180 180 115
Width: 600
Flags: W
LayerCount: 2
Fore
SplineSet
316 579 m 1,0,-1
 450 755 l 1,1,-1
 327 816 l 1,2,-1
 228 622 l 1,3,-1
 316 579 l 1,0,-1
EndSplineSet
EndChar

StartChar: mu
Encoding: 181 181 116
Width: 602
Flags: W
LayerCount: 2
Fore
SplineSet
216 -200 m 1,0,-1
 216 -106 l 1,1,-1
 187 30 l 1,2,-1
 192 30 l 1,3,4
 210 -12 210 -12 264 -12 c 0,5,6
 309 -12 309 -12 338 17 c 128,-1,7
 367 46 367 46 380 88 c 1,8,-1
 385 88 l 1,9,-1
 385 0 l 1,10,-1
 533 0 l 1,11,-1
 533 525 l 1,12,-1
 385 525 l 1,13,-1
 385 184 l 2,14,15
 385 148 385 148 356 128 c 128,-1,16
 327 108 327 108 291 108 c 0,17,18
 251 108 251 108 234 133 c 128,-1,19
 217 158 217 158 217 206 c 2,20,-1
 217 525 l 1,21,-1
 69 525 l 1,22,-1
 69 -200 l 1,23,-1
 216 -200 l 1,0,-1
EndSplineSet
EndChar

StartChar: paragraph
Encoding: 182 182 117
Width: 677
Flags: W
LayerCount: 2
Fore
SplineSet
558 -149 m 1,0,-1
 558 592 l 1,1,-1
 624 592 l 1,2,-1
 624 698 l 1,3,-1
 242 698 l 2,4,5
 154 698 154 698 92.5 633.5 c 128,-1,6
 31 569 31 569 31 479 c 256,7,8
 31 389 31 389 92.5 324.5 c 128,-1,9
 154 260 154 260 242 260 c 1,10,-1
 242 -149 l 1,11,-1
 351 -149 l 1,12,-1
 351 592 l 1,13,-1
 449 592 l 1,14,-1
 449 -149 l 1,15,-1
 558 -149 l 1,0,-1
EndSplineSet
EndChar

StartChar: periodcentered
Encoding: 183 183 118
Width: 358
Flags: W
LayerCount: 2
Fore
SplineSet
179 213 m 256,0,1
 224 213 224 213 245.5 235.5 c 128,-1,2
 267 258 267 258 267 293 c 2,3,-1
 267 313 l 2,4,5
 267 348 267 348 245.5 370.5 c 128,-1,6
 224 393 224 393 179 393 c 256,7,8
 134 393 134 393 112.5 370.5 c 128,-1,9
 91 348 91 348 91 313 c 2,10,-1
 91 293 l 2,11,12
 91 258 91 258 112.5 235.5 c 128,-1,13
 134 213 134 213 179 213 c 256,0,1
EndSplineSet
EndChar

StartChar: cedilla
Encoding: 184 184 119
Width: 600
Flags: W
LayerCount: 2
Fore
SplineSet
314 -212 m 0,0,1
 372 -212 372 -212 406 -192 c 0,2,3
 446 -168 446 -168 446 -121 c 0,4,5
 446 -84 446 -84 424.5 -68 c 128,-1,6
 403 -52 403 -52 373 -52 c 0,7,8
 349 -52 349 -52 325 -59 c 1,9,-1
 321 -55 l 1,10,-1
 339 30 l 1,11,-1
 272 30 l 1,12,-1
 250 -74 l 1,13,14
 314 -80 314 -80 332 -92 c 0,15,16
 346 -104 346 -104 346 -116 c 0,17,18
 346 -129 346 -129 333.5 -135 c 128,-1,19
 321 -141 321 -141 302 -141 c 0,20,21
 259 -141 259 -141 236 -112 c 1,22,-1
 190 -168 l 1,23,24
 224 -212 224 -212 314 -212 c 0,0,1
EndSplineSet
EndChar

StartChar: onesuperior
Encoding: 185 185 120
Width: 314
Flags: W
LayerCount: 2
Fore
SplineSet
243 329 m 1,0,-1
 142 329 l 1,1,-1
 142 606 l 1,2,-1
 62 570 l 1,3,-1
 62 661 l 1,4,-1
 137 698 l 1,5,-1
 243 698 l 1,6,-1
 243 329 l 1,0,-1
EndSplineSet
EndChar

StartChar: ordmasculine
Encoding: 186 186 121
Width: 433
Flags: W
LayerCount: 2
Fore
SplineSet
217 330 m 256,0,1
 302 330 302 330 349 381 c 128,-1,2
 396 432 396 432 396 520 c 256,3,4
 396 608 396 608 349 659 c 128,-1,5
 302 710 302 710 217 710 c 256,6,7
 132 710 132 710 85 659 c 128,-1,8
 38 608 38 608 38 520 c 256,9,10
 38 432 38 432 85 381 c 128,-1,11
 132 330 132 330 217 330 c 256,0,1
217 408 m 256,12,13
 183 408 183 408 164 428.5 c 128,-1,14
 145 449 145 449 145 491 c 2,15,-1
 145 549 l 2,16,17
 145 591 145 591 164 611.5 c 128,-1,18
 183 632 183 632 217 632 c 256,19,20
 251 632 251 632 270 611.5 c 128,-1,21
 289 591 289 591 289 549 c 2,22,-1
 289 491 l 2,23,24
 289 449 289 449 270 428.5 c 128,-1,25
 251 408 251 408 217 408 c 256,12,13
EndSplineSet
EndChar

StartChar: guillemotright
Encoding: 187 187 122
Width: 558
Flags: W
LayerCount: 2
Fore
SplineSet
93 49 m 1,0,-1
 279 209 l 1,1,-1
 279 335 l 1,2,-1
 93 495 l 1,3,-1
 50 403 l 1,4,-1
 170 272 l 1,5,-1
 50 141 l 1,6,-1
 93 49 l 1,0,-1
334 49 m 1,7,-1
 520 209 l 1,8,-1
 520 335 l 1,9,-1
 334 495 l 1,10,-1
 291 403 l 1,11,-1
 411 272 l 1,12,-1
 291 141 l 1,13,-1
 334 49 l 1,7,-1
EndSplineSet
EndChar

StartChar: onequarter
Encoding: 188 188 123
Width: 787
Flags: W
LayerCount: 2
Fore
SplineSet
722 0 m 1,0,-1
 624 0 l 1,1,-1
 624 70 l 1,2,-1
 458 70 l 1,3,-1
 458 155 l 1,4,-1
 607 369 l 1,5,-1
 722 369 l 1,6,-1
 722 146 l 1,7,-1
 768 146 l 1,8,-1
 768 70 l 1,9,-1
 722 70 l 1,10,-1
 722 0 l 1,0,-1
624 146 m 1,11,-1
 624 259 l 1,12,-1
 617 259 l 1,13,-1
 537 146 l 1,14,-1
 624 146 l 1,11,-1
172 0 m 1,15,-1
 64 0 l 1,16,-1
 593 698 l 1,17,-1
 701 698 l 1,18,-1
 172 0 l 1,15,-1
243 329 m 1,19,-1
 142 329 l 1,20,-1
 142 606 l 1,21,-1
 62 570 l 1,22,-1
 62 661 l 1,23,-1
 137 698 l 1,24,-1
 243 698 l 1,25,-1
 243 329 l 1,19,-1
EndSplineSet
EndChar

StartChar: onehalf
Encoding: 189 189 124
Width: 809
Flags: W
LayerCount: 2
Fore
SplineSet
784 0 m 1,0,-1
 495 0 l 1,1,-1
 495 88 l 1,2,-1
 604 171 l 2,3,4
 641 198 641 198 656 215 c 128,-1,5
 671 232 671 232 671 255 c 0,6,7
 671 289 671 289 628 289 c 256,8,9
 585 289 585 289 573 244 c 1,10,-1
 484 277 l 1,11,12
 498 320 498 320 536.5 347.5 c 128,-1,13
 575 375 575 375 638 375 c 0,14,15
 706 375 706 375 743 343 c 128,-1,16
 780 311 780 311 780 261 c 0,17,18
 780 210 780 210 746 175 c 128,-1,19
 712 140 712 140 666 116 c 2,20,-1
 607 83 l 1,21,-1
 784 83 l 1,22,-1
 784 0 l 1,0,-1
172 0 m 1,23,-1
 64 0 l 1,24,-1
 593 698 l 1,25,-1
 701 698 l 1,26,-1
 172 0 l 1,23,-1
243 329 m 1,27,-1
 142 329 l 1,28,-1
 142 606 l 1,29,-1
 62 570 l 1,30,-1
 62 661 l 1,31,-1
 137 698 l 1,32,-1
 243 698 l 1,33,-1
 243 329 l 1,27,-1
EndSplineSet
EndChar

StartChar: threequarters
Encoding: 190 190 125
Width: 828
Flags: W
LayerCount: 2
Fore
SplineSet
159 323 m 0,0,1
 229 323 229 323 272.5 352.5 c 128,-1,2
 316 382 316 382 316 433 c 0,3,4
 316 504 316 504 234 518 c 1,5,-1
 234 522 l 1,6,7
 266 526 266 526 288 547 c 128,-1,8
 310 568 310 568 310 603 c 0,9,10
 310 648 310 648 270.5 676 c 128,-1,11
 231 704 231 704 160 704 c 0,12,13
 107 704 107 704 73.5 688 c 128,-1,14
 40 672 40 672 15 641 c 1,15,-1
 77 582 l 1,16,17
 115 625 115 625 157 625 c 0,18,19
 179 625 179 625 190.5 614 c 128,-1,20
 202 603 202 603 202 585 c 0,21,22
 202 575 202 575 190 566.5 c 128,-1,23
 178 558 178 558 151 558 c 2,24,-1
 117 558 l 1,25,-1
 117 476 l 1,26,-1
 148 476 l 2,27,28
 209 476 209 476 209 444 c 0,29,30
 209 406 209 406 159 402 c 1,31,32
 105 402 105 402 80 456 c 1,33,-1
 4 398 l 1,34,35
 23 366 23 366 58.5 344.5 c 128,-1,36
 94 323 94 323 159 323 c 0,0,1
213 0 m 1,37,-1
 742 698 l 1,38,-1
 634 698 l 1,39,-1
 105 0 l 1,40,-1
 213 0 l 1,37,-1
763 0 m 1,41,-1
 763 70 l 1,42,-1
 809 70 l 1,43,-1
 809 146 l 1,44,-1
 763 146 l 1,45,-1
 763 369 l 1,46,-1
 648 369 l 1,47,-1
 499 155 l 1,48,-1
 499 70 l 1,49,-1
 665 70 l 1,50,-1
 665 0 l 1,51,-1
 763 0 l 1,41,-1
665 146 m 1,52,-1
 578 146 l 1,53,-1
 658 259 l 1,54,-1
 665 259 l 1,55,-1
 665 146 l 1,52,-1
EndSplineSet
EndChar

StartChar: questiondown
Encoding: 191 191 126
Width: 494
Flags: W
LayerCount: 2
Fore
SplineSet
260 -185 m 0,0,1
 355 -185 355 -185 416 -135 c 0,2,3
 469 -87 469 -87 486 -25 c 1,4,-1
 364 26 l 1,5,6
 355 -11 355 -11 329.5 -35 c 128,-1,7
 304 -59 304 -59 265 -59 c 0,8,9
 229 -59 229 -59 206.5 -39 c 128,-1,10
 184 -19 184 -19 184 19 c 2,11,-1
 184 33 l 2,12,13
 184 89 184 89 223.5 113 c 128,-1,14
 263 137 263 137 342 139 c 1,15,-1
 342 292 l 1,16,-1
 202 292 l 1,17,-1
 202 220 l 1,18,19
 129 208 129 208 78 156.5 c 128,-1,20
 27 105 27 105 27 21 c 0,21,22
 27 -70 27 -70 90.5 -127.5 c 128,-1,23
 154 -185 154 -185 260 -185 c 0,0,1
270 361 m 256,24,25
 318 361 318 361 338.5 383 c 128,-1,26
 359 405 359 405 359 437 c 2,27,-1
 359 461 l 2,28,29
 359 493 359 493 338.5 515 c 128,-1,30
 318 537 318 537 270 537 c 256,31,32
 222 537 222 537 201.5 515 c 128,-1,33
 181 493 181 493 181 461 c 2,34,-1
 181 437 l 2,35,36
 181 405 181 405 201.5 383 c 128,-1,37
 222 361 222 361 270 361 c 256,24,25
EndSplineSet
EndChar

StartChar: Agrave
Encoding: 192 192 127
Width: 685
Flags: W
LayerCount: 2
Fore
SplineSet
665 0 m 1,0,-1
 438 698 l 1,1,-1
 250 698 l 1,2,-1
 20 0 l 1,3,-1
 174 0 l 1,4,-1
 224 166 l 1,5,-1
 457 166 l 1,6,-1
 507 0 l 1,7,-1
 665 0 l 1,0,-1
420 295 m 1,8,-1
 260 295 l 1,9,-1
 337 560 l 1,10,-1
 342 560 l 1,11,-1
 420 295 l 1,8,-1
323 740 m 1,12,-1
 411 783 l 1,13,-1
 312 977 l 1,14,-1
 189 916 l 1,15,-1
 323 740 l 1,12,-1
EndSplineSet
EndChar

StartChar: Aacute
Encoding: 193 193 128
Width: 685
Flags: W
LayerCount: 2
Fore
SplineSet
665 0 m 1,0,-1
 438 698 l 1,1,-1
 250 698 l 1,2,-1
 20 0 l 1,3,-1
 174 0 l 1,4,-1
 224 166 l 1,5,-1
 457 166 l 1,6,-1
 507 0 l 1,7,-1
 665 0 l 1,0,-1
420 295 m 1,8,-1
 260 295 l 1,9,-1
 337 560 l 1,10,-1
 342 560 l 1,11,-1
 420 295 l 1,8,-1
355 740 m 1,12,-1
 489 916 l 1,13,-1
 366 977 l 1,14,-1
 267 783 l 1,15,-1
 355 740 l 1,12,-1
EndSplineSet
EndChar

StartChar: Acircumflex
Encoding: 194 194 129
Width: 685
Flags: W
LayerCount: 2
Fore
SplineSet
665 0 m 1,0,-1
 438 698 l 1,1,-1
 250 698 l 1,2,-1
 20 0 l 1,3,-1
 174 0 l 1,4,-1
 224 166 l 1,5,-1
 457 166 l 1,6,-1
 507 0 l 1,7,-1
 665 0 l 1,0,-1
420 295 m 1,8,-1
 260 295 l 1,9,-1
 337 560 l 1,10,-1
 342 560 l 1,11,-1
 420 295 l 1,8,-1
460 739 m 1,12,-1
 533 797 l 1,13,-1
 401 956 l 1,14,-1
 277 956 l 1,15,-1
 145 797 l 1,16,-1
 218 739 l 1,17,-1
 339 854 l 1,18,-1
 460 739 l 1,12,-1
EndSplineSet
EndChar

StartChar: Atilde
Encoding: 195 195 130
Width: 685
Flags: W
LayerCount: 2
Fore
SplineSet
665 0 m 1,0,-1
 438 698 l 1,1,-1
 250 698 l 1,2,-1
 20 0 l 1,3,-1
 174 0 l 1,4,-1
 224 166 l 1,5,-1
 457 166 l 1,6,-1
 507 0 l 1,7,-1
 665 0 l 1,0,-1
420 295 m 1,8,-1
 260 295 l 1,9,-1
 337 560 l 1,10,-1
 342 560 l 1,11,-1
 420 295 l 1,8,-1
415 762 m 0,12,13
 488 762 488 762 529 826 c 1,14,-1
 477 894 l 1,15,16
 462 881 462 881 448.5 875 c 128,-1,17
 435 869 435 869 418 869 c 0,18,19
 399 869 399 869 382 874.5 c 128,-1,20
 365 880 365 880 346 889 c 2,21,-1
 304 905 l 2,22,23
 286 911 286 911 263 911 c 0,24,25
 190 911 190 911 149 847 c 1,26,-1
 201 779 l 1,27,28
 216 792 216 792 229.5 798 c 128,-1,29
 243 804 243 804 260 804 c 0,30,31
 279 804 279 804 296 798.5 c 128,-1,32
 313 793 313 793 332 784 c 2,33,-1
 374 768 l 2,34,35
 392 762 392 762 415 762 c 0,12,13
EndSplineSet
EndChar

StartChar: Adieresis
Encoding: 196 196 131
Width: 685
Flags: W
LayerCount: 2
Fore
SplineSet
665 0 m 1,0,-1
 438 698 l 1,1,-1
 250 698 l 1,2,-1
 20 0 l 1,3,-1
 174 0 l 1,4,-1
 224 166 l 1,5,-1
 457 166 l 1,6,-1
 507 0 l 1,7,-1
 665 0 l 1,0,-1
420 295 m 1,8,-1
 260 295 l 1,9,-1
 337 560 l 1,10,-1
 342 560 l 1,11,-1
 420 295 l 1,8,-1
229 761 m 256,12,13
 309 761 309 761 309 824 c 2,14,-1
 309 849 l 2,15,16
 309 912 309 912 229 912 c 256,17,18
 149 912 149 912 149 849 c 2,19,-1
 149 824 l 2,20,21
 149 761 149 761 229 761 c 256,12,13
449 761 m 256,22,23
 529 761 529 761 529 824 c 2,24,-1
 529 849 l 2,25,26
 529 912 529 912 449 912 c 256,27,28
 369 912 369 912 369 849 c 2,29,-1
 369 824 l 2,30,31
 369 761 369 761 449 761 c 256,22,23
EndSplineSet
EndChar

StartChar: Aring
Encoding: 197 197 132
Width: 685
Flags: W
LayerCount: 2
Fore
SplineSet
665 0 m 1,0,-1
 438 698 l 1,1,-1
 250 698 l 1,2,-1
 20 0 l 1,3,-1
 174 0 l 1,4,-1
 224 166 l 1,5,-1
 457 166 l 1,6,-1
 507 0 l 1,7,-1
 665 0 l 1,0,-1
420 295 m 1,8,-1
 260 295 l 1,9,-1
 337 560 l 1,10,-1
 342 560 l 1,11,-1
 420 295 l 1,8,-1
339 719 m 0,12,13
 401 719 401 719 444 760 c 128,-1,14
 487 801 487 801 487 862 c 0,15,16
 487 924 487 924 444 964.5 c 128,-1,17
 401 1005 401 1005 339 1005 c 0,18,19
 278 1005 278 1005 234.5 964.5 c 128,-1,20
 191 924 191 924 191 862 c 0,21,22
 191 801 191 801 234.5 760 c 128,-1,23
 278 719 278 719 339 719 c 0,12,13
339 794 m 0,24,25
 290 794 290 794 288 845 c 2,26,-1
 288 879 l 2,27,28
 288 902 288 902 301 916 c 128,-1,29
 314 930 314 930 339 930 c 0,30,31
 389 930 389 930 390 879 c 2,32,-1
 390 845 l 2,33,34
 390 822 390 822 377 808 c 128,-1,35
 364 794 364 794 339 794 c 0,24,25
EndSplineSet
EndChar

StartChar: AE
Encoding: 198 198 133
Width: 968
Flags: W
LayerCount: 2
Fore
SplineSet
913 0 m 1,0,-1
 913 135 l 1,1,-1
 589 135 l 1,2,-1
 589 286 l 1,3,-1
 867 286 l 1,4,-1
 867 420 l 1,5,-1
 589 420 l 1,6,-1
 589 563 l 1,7,-1
 913 563 l 1,8,-1
 913 698 l 1,9,-1
 340 698 l 1,10,-1
 -1 0 l 1,11,-1
 151 0 l 1,12,-1
 229 166 l 1,13,-1
 438 166 l 1,14,-1
 438 0 l 1,15,-1
 913 0 l 1,0,-1
438 295 m 1,16,-1
 290 295 l 1,17,-1
 415 563 l 1,18,-1
 438 563 l 1,19,-1
 438 295 l 1,16,-1
EndSplineSet
EndChar

StartChar: Ccedilla
Encoding: 199 199 134
Width: 651
Flags: W
LayerCount: 2
Fore
SplineSet
348 -212 m 0,0,1
 406 -212 406 -212 440 -192 c 0,2,3
 480 -168 480 -168 480 -121 c 0,4,5
 480 -84 480 -84 458.5 -68 c 128,-1,6
 437 -52 437 -52 407 -52 c 0,7,8
 383 -52 383 -52 359 -59 c 1,9,-1
 355 -55 l 1,10,-1
 364 -12 l 1,11,12
 542 -12 542 -12 622 155 c 1,13,-1
 498 227 l 1,14,15
 483 183 483 183 449 153 c 128,-1,16
 415 123 415 123 359 123 c 0,17,18
 292 123 292 123 251.5 166.5 c 128,-1,19
 211 210 211 210 211 293 c 2,20,-1
 211 405 l 2,21,22
 211 488 211 488 251.5 531.5 c 128,-1,23
 292 575 292 575 359 575 c 0,24,25
 416 575 416 575 446 549 c 128,-1,26
 476 523 476 523 489 478 c 1,27,-1
 620 546 l 1,28,29
 582 630 582 630 519 670 c 128,-1,30
 456 710 456 710 359 710 c 0,31,32
 217 710 217 710 133.5 615 c 128,-1,33
 50 520 50 520 50 344 c 0,34,35
 50 187 50 187 116 98.5 c 128,-1,36
 182 10 182 10 298 -7 c 1,37,-1
 284 -74 l 1,38,39
 348 -80 348 -80 366 -92 c 0,40,41
 380 -104 380 -104 380 -116 c 0,42,43
 380 -129 380 -129 367.5 -135 c 128,-1,44
 355 -141 355 -141 336 -141 c 0,45,46
 293 -141 293 -141 270 -112 c 1,47,-1
 224 -168 l 1,48,49
 258 -212 258 -212 348 -212 c 0,0,1
EndSplineSet
EndChar

StartChar: Egrave
Encoding: 200 200 135
Width: 607
Flags: W
LayerCount: 2
Fore
SplineSet
552 0 m 1,0,-1
 552 135 l 1,1,-1
 229 135 l 1,2,-1
 229 286 l 1,3,-1
 506 286 l 1,4,-1
 506 420 l 1,5,-1
 229 420 l 1,6,-1
 229 563 l 1,7,-1
 552 563 l 1,8,-1
 552 698 l 1,9,-1
 77 698 l 1,10,-1
 77 0 l 1,11,-1
 552 0 l 1,0,-1
299 740 m 1,12,-1
 387 783 l 1,13,-1
 288 977 l 1,14,-1
 165 916 l 1,15,-1
 299 740 l 1,12,-1
EndSplineSet
EndChar

StartChar: Eacute
Encoding: 201 201 136
Width: 607
Flags: W
LayerCount: 2
Fore
SplineSet
552 0 m 1,0,-1
 552 135 l 1,1,-1
 229 135 l 1,2,-1
 229 286 l 1,3,-1
 506 286 l 1,4,-1
 506 420 l 1,5,-1
 229 420 l 1,6,-1
 229 563 l 1,7,-1
 552 563 l 1,8,-1
 552 698 l 1,9,-1
 77 698 l 1,10,-1
 77 0 l 1,11,-1
 552 0 l 1,0,-1
331 740 m 1,12,-1
 465 916 l 1,13,-1
 342 977 l 1,14,-1
 243 783 l 1,15,-1
 331 740 l 1,12,-1
EndSplineSet
EndChar

StartChar: Ecircumflex
Encoding: 202 202 137
Width: 607
Flags: W
LayerCount: 2
Fore
SplineSet
552 0 m 1,0,-1
 552 135 l 1,1,-1
 229 135 l 1,2,-1
 229 286 l 1,3,-1
 506 286 l 1,4,-1
 506 420 l 1,5,-1
 229 420 l 1,6,-1
 229 563 l 1,7,-1
 552 563 l 1,8,-1
 552 698 l 1,9,-1
 77 698 l 1,10,-1
 77 0 l 1,11,-1
 552 0 l 1,0,-1
436 739 m 1,12,-1
 509 797 l 1,13,-1
 377 956 l 1,14,-1
 253 956 l 1,15,-1
 121 797 l 1,16,-1
 194 739 l 1,17,-1
 315 854 l 1,18,-1
 436 739 l 1,12,-1
EndSplineSet
EndChar

StartChar: Edieresis
Encoding: 203 203 138
Width: 607
Flags: W
LayerCount: 2
Fore
SplineSet
552 0 m 1,0,-1
 552 135 l 1,1,-1
 229 135 l 1,2,-1
 229 286 l 1,3,-1
 506 286 l 1,4,-1
 506 420 l 1,5,-1
 229 420 l 1,6,-1
 229 563 l 1,7,-1
 552 563 l 1,8,-1
 552 698 l 1,9,-1
 77 698 l 1,10,-1
 77 0 l 1,11,-1
 552 0 l 1,0,-1
205 761 m 256,12,13
 285 761 285 761 285 824 c 2,14,-1
 285 849 l 2,15,16
 285 912 285 912 205 912 c 256,17,18
 125 912 125 912 125 849 c 2,19,-1
 125 824 l 2,20,21
 125 761 125 761 205 761 c 256,12,13
425 761 m 256,22,23
 505 761 505 761 505 824 c 2,24,-1
 505 849 l 2,25,26
 505 912 505 912 425 912 c 256,27,28
 345 912 345 912 345 849 c 2,29,-1
 345 824 l 2,30,31
 345 761 345 761 425 761 c 256,22,23
EndSplineSet
EndChar

StartChar: Igrave
Encoding: 204 204 139
Width: 306
Flags: W
LayerCount: 2
Fore
SplineSet
138 740 m 1,0,-1
 226 783 l 1,1,-1
 127 977 l 1,2,-1
 4 916 l 1,3,-1
 138 740 l 1,0,-1
229 0 m 1,4,-1
 77 0 l 1,5,-1
 77 698 l 1,6,-1
 229 698 l 1,7,-1
 229 0 l 1,4,-1
EndSplineSet
EndChar

StartChar: Iacute
Encoding: 205 205 140
Width: 306
Flags: W
LayerCount: 2
Fore
SplineSet
170 740 m 1,0,-1
 304 916 l 1,1,-1
 181 977 l 1,2,-1
 82 783 l 1,3,-1
 170 740 l 1,0,-1
229 0 m 1,4,-1
 77 0 l 1,5,-1
 77 698 l 1,6,-1
 229 698 l 1,7,-1
 229 0 l 1,4,-1
EndSplineSet
EndChar

StartChar: Icircumflex
Encoding: 206 206 141
Width: 306
Flags: W
LayerCount: 2
Fore
SplineSet
275 739 m 1,0,-1
 348 797 l 1,1,-1
 216 956 l 1,2,-1
 92 956 l 1,3,-1
 -40 797 l 1,4,-1
 33 739 l 1,5,-1
 154 854 l 1,6,-1
 275 739 l 1,0,-1
229 0 m 1,7,-1
 77 0 l 1,8,-1
 77 698 l 1,9,-1
 229 698 l 1,10,-1
 229 0 l 1,7,-1
EndSplineSet
EndChar

StartChar: Idieresis
Encoding: 207 207 142
Width: 306
Flags: W
LayerCount: 2
Fore
SplineSet
44 761 m 256,0,1
 124 761 124 761 124 824 c 2,2,-1
 124 849 l 2,3,4
 124 912 124 912 44 912 c 256,5,6
 -36 912 -36 912 -36 849 c 2,7,-1
 -36 824 l 2,8,9
 -36 761 -36 761 44 761 c 256,0,1
264 761 m 256,10,11
 344 761 344 761 344 824 c 2,12,-1
 344 849 l 2,13,14
 344 912 344 912 264 912 c 256,15,16
 184 912 184 912 184 849 c 2,17,-1
 184 824 l 2,18,19
 184 761 184 761 264 761 c 256,10,11
229 0 m 1,20,-1
 77 0 l 1,21,-1
 77 698 l 1,22,-1
 229 698 l 1,23,-1
 229 0 l 1,20,-1
EndSplineSet
EndChar

StartChar: Eth
Encoding: 208 208 143
Width: 702
Flags: W
LayerCount: 2
Fore
SplineSet
345 0 m 2,0,1
 483 0 483 0 568 88 c 0,2,3
 652 179 652 179 652 349 c 0,4,5
 652 520 652 520 568 611 c 0,6,7
 483 698 483 698 345 698 c 2,8,-1
 82 698 l 1,9,-1
 82 411 l 1,10,-1
 7 411 l 1,11,-1
 7 297 l 1,12,-1
 82 297 l 1,13,-1
 82 0 l 1,14,-1
 345 0 l 2,0,1
345 135 m 2,15,-1
 234 135 l 1,16,-1
 234 297 l 1,17,-1
 353 297 l 1,18,-1
 353 411 l 1,19,-1
 234 411 l 1,20,-1
 234 563 l 1,21,-1
 345 563 l 2,22,23
 491 563 491 563 491 403 c 2,24,-1
 491 295 l 2,25,26
 491 135 491 135 345 135 c 2,15,-1
EndSplineSet
EndChar

StartChar: Ntilde
Encoding: 209 209 144
Width: 724
Flags: W
LayerCount: 2
Fore
SplineSet
647 0 m 1,0,-1
 647 698 l 1,1,-1
 504 698 l 1,2,-1
 504 228 l 1,3,-1
 501 228 l 1,4,-1
 434 368 l 1,5,-1
 243 698 l 1,6,-1
 77 698 l 1,7,-1
 77 0 l 1,8,-1
 220 0 l 1,9,-1
 220 470 l 1,10,-1
 223 470 l 1,11,-1
 290 330 l 1,12,-1
 481 0 l 1,13,-1
 647 0 l 1,0,-1
437 762 m 0,14,15
 510 762 510 762 551 826 c 1,16,-1
 499 894 l 1,17,18
 484 881 484 881 470.5 875 c 128,-1,19
 457 869 457 869 440 869 c 0,20,21
 421 869 421 869 404 874.5 c 128,-1,22
 387 880 387 880 368 889 c 2,23,-1
 326 905 l 2,24,25
 308 911 308 911 285 911 c 0,26,27
 212 911 212 911 171 847 c 1,28,-1
 223 779 l 1,29,30
 238 792 238 792 251.5 798 c 128,-1,31
 265 804 265 804 282 804 c 0,32,33
 301 804 301 804 318 798.5 c 128,-1,34
 335 793 335 793 354 784 c 2,35,-1
 396 768 l 2,36,37
 414 762 414 762 437 762 c 0,14,15
EndSplineSet
EndChar

StartChar: Ograve
Encoding: 210 210 145
Width: 714
Flags: W
LayerCount: 2
Fore
SplineSet
357 -12 m 256,0,1
 495 -12 495 -12 580 80 c 0,2,3
 664 174 664 174 664 349 c 0,4,5
 664 523 664 523 580 619 c 1,6,7
 495 710 495 710 357 710 c 256,8,9
 219 710 219 710 134 619 c 1,10,11
 50 523 50 523 50 349 c 0,12,13
 50 174 50 174 134 80 c 0,14,15
 219 -12 219 -12 357 -12 c 256,0,1
357 123 m 0,16,17
 288 123 288 123 249.5 168 c 128,-1,18
 211 213 211 213 211 297 c 2,19,-1
 211 401 l 2,20,21
 211 569 211 569 357 575 c 0,22,23
 426 575 426 575 464.5 530 c 128,-1,24
 503 485 503 485 503 401 c 2,25,-1
 503 297 l 2,26,27
 503 129 503 129 357 123 c 0,16,17
341 740 m 1,28,-1
 429 783 l 1,29,-1
 330 977 l 1,30,-1
 207 916 l 1,31,-1
 341 740 l 1,28,-1
EndSplineSet
EndChar

StartChar: Oacute
Encoding: 211 211 146
Width: 714
Flags: W
LayerCount: 2
Fore
SplineSet
357 -12 m 256,0,1
 495 -12 495 -12 580 80 c 0,2,3
 664 174 664 174 664 349 c 0,4,5
 664 523 664 523 580 619 c 1,6,7
 495 710 495 710 357 710 c 256,8,9
 219 710 219 710 134 619 c 1,10,11
 50 523 50 523 50 349 c 0,12,13
 50 174 50 174 134 80 c 0,14,15
 219 -12 219 -12 357 -12 c 256,0,1
357 123 m 0,16,17
 288 123 288 123 249.5 168 c 128,-1,18
 211 213 211 213 211 297 c 2,19,-1
 211 401 l 2,20,21
 211 569 211 569 357 575 c 0,22,23
 426 575 426 575 464.5 530 c 128,-1,24
 503 485 503 485 503 401 c 2,25,-1
 503 297 l 2,26,27
 503 129 503 129 357 123 c 0,16,17
373 740 m 1,28,-1
 507 916 l 1,29,-1
 384 977 l 1,30,-1
 285 783 l 1,31,-1
 373 740 l 1,28,-1
EndSplineSet
EndChar

StartChar: Ocircumflex
Encoding: 212 212 147
Width: 714
Flags: W
LayerCount: 2
Fore
SplineSet
357 -12 m 256,0,1
 495 -12 495 -12 580 80 c 0,2,3
 664 174 664 174 664 349 c 0,4,5
 664 523 664 523 580 619 c 1,6,7
 495 710 495 710 357 710 c 256,8,9
 219 710 219 710 134 619 c 1,10,11
 50 523 50 523 50 349 c 0,12,13
 50 174 50 174 134 80 c 0,14,15
 219 -12 219 -12 357 -12 c 256,0,1
357 123 m 0,16,17
 288 123 288 123 249.5 168 c 128,-1,18
 211 213 211 213 211 297 c 2,19,-1
 211 401 l 2,20,21
 211 569 211 569 357 575 c 0,22,23
 426 575 426 575 464.5 530 c 128,-1,24
 503 485 503 485 503 401 c 2,25,-1
 503 297 l 2,26,27
 503 129 503 129 357 123 c 0,16,17
478 739 m 1,28,-1
 551 797 l 1,29,-1
 419 956 l 1,30,-1
 295 956 l 1,31,-1
 163 797 l 1,32,-1
 236 739 l 1,33,-1
 357 854 l 1,34,-1
 478 739 l 1,28,-1
EndSplineSet
EndChar

StartChar: Otilde
Encoding: 213 213 148
Width: 714
Flags: W
LayerCount: 2
Fore
SplineSet
357 -12 m 256,0,1
 495 -12 495 -12 580 80 c 0,2,3
 664 174 664 174 664 349 c 0,4,5
 664 523 664 523 580 619 c 1,6,7
 495 710 495 710 357 710 c 256,8,9
 219 710 219 710 134 619 c 1,10,11
 50 523 50 523 50 349 c 0,12,13
 50 174 50 174 134 80 c 0,14,15
 219 -12 219 -12 357 -12 c 256,0,1
357 123 m 0,16,17
 288 123 288 123 249.5 168 c 128,-1,18
 211 213 211 213 211 297 c 2,19,-1
 211 401 l 2,20,21
 211 569 211 569 357 575 c 0,22,23
 426 575 426 575 464.5 530 c 128,-1,24
 503 485 503 485 503 401 c 2,25,-1
 503 297 l 2,26,27
 503 129 503 129 357 123 c 0,16,17
433 762 m 0,28,29
 506 762 506 762 547 826 c 1,30,-1
 495 894 l 1,31,32
 480 881 480 881 466.5 875 c 128,-1,33
 453 869 453 869 436 869 c 0,34,35
 417 869 417 869 400 874.5 c 128,-1,36
 383 880 383 880 364 889 c 2,37,-1
 322 905 l 2,38,39
 304 911 304 911 281 911 c 0,40,41
 208 911 208 911 167 847 c 1,42,-1
 219 779 l 1,43,44
 234 792 234 792 247.5 798 c 128,-1,45
 261 804 261 804 278 804 c 0,46,47
 297 804 297 804 314 798.5 c 128,-1,48
 331 793 331 793 350 784 c 2,49,-1
 392 768 l 2,50,51
 410 762 410 762 433 762 c 0,28,29
EndSplineSet
EndChar

StartChar: Odieresis
Encoding: 214 214 149
Width: 714
Flags: W
LayerCount: 2
Fore
SplineSet
357 -12 m 256,0,1
 495 -12 495 -12 580 80 c 0,2,3
 664 174 664 174 664 349 c 0,4,5
 664 523 664 523 580 619 c 1,6,7
 495 710 495 710 357 710 c 256,8,9
 219 710 219 710 134 619 c 1,10,11
 50 523 50 523 50 349 c 0,12,13
 50 174 50 174 134 80 c 0,14,15
 219 -12 219 -12 357 -12 c 256,0,1
357 123 m 0,16,17
 288 123 288 123 249.5 168 c 128,-1,18
 211 213 211 213 211 297 c 2,19,-1
 211 401 l 2,20,21
 211 569 211 569 357 575 c 0,22,23
 426 575 426 575 464.5 530 c 128,-1,24
 503 485 503 485 503 401 c 2,25,-1
 503 297 l 2,26,27
 503 129 503 129 357 123 c 0,16,17
247 761 m 256,28,29
 327 761 327 761 327 824 c 2,30,-1
 327 849 l 2,31,32
 327 912 327 912 247 912 c 256,33,34
 167 912 167 912 167 849 c 2,35,-1
 167 824 l 2,36,37
 167 761 167 761 247 761 c 256,28,29
467 761 m 256,38,39
 547 761 547 761 547 824 c 2,40,-1
 547 849 l 2,41,42
 547 912 547 912 467 912 c 256,43,44
 387 912 387 912 387 849 c 2,45,-1
 387 824 l 2,46,47
 387 761 387 761 467 761 c 256,38,39
EndSplineSet
EndChar

StartChar: multiply
Encoding: 215 215 150
Width: 600
Flags: W
LayerCount: 2
Fore
SplineSet
439 71 m 1,0,-1
 521 153 l 1,1,-1
 382 299 l 1,2,-1
 521 445 l 1,3,-1
 439 527 l 1,4,-1
 300 381 l 1,5,-1
 161 527 l 1,6,-1
 79 445 l 1,7,-1
 218 299 l 1,8,-1
 79 153 l 1,9,-1
 161 71 l 1,10,-1
 300 217 l 1,11,-1
 439 71 l 1,0,-1
EndSplineSet
EndChar

StartChar: Oslash
Encoding: 216 216 151
Width: 714
Flags: W
LayerCount: 2
Fore
SplineSet
154 -56 m 1,0,-1
 207 22 l 1,1,2
 273 -12 273 -12 357 -12 c 0,3,4
 495 -12 495 -12 580 80 c 0,5,6
 664 174 664 174 664 349 c 0,7,8
 664 516 664 516 591 605 c 1,9,-1
 652 695 l 1,10,-1
 560 754 l 1,11,-1
 507 676 l 1,12,13
 441 710 441 710 357 710 c 0,14,15
 219 710 219 710 134 619 c 1,16,17
 50 523 50 523 50 349 c 0,18,19
 50 183 50 183 123 93 c 1,20,-1
 62 3 l 1,21,-1
 154 -56 l 1,0,-1
216 211 m 1,22,23
 204 248 204 248 204 294 c 2,24,-1
 204 404 l 2,25,26
 204 580 204 580 357 586 c 0,27,28
 407 586 407 586 439 565 c 1,29,-1
 216 211 l 1,22,23
357 112 m 0,30,31
 308 112 308 112 275 133 c 1,32,-1
 498 487 l 1,33,34
 510 451 510 451 510 404 c 2,35,-1
 510 294 l 2,36,37
 510 119 510 119 357 112 c 0,30,31
EndSplineSet
EndChar

StartChar: Ugrave
Encoding: 217 217 152
Width: 694
Flags: W
LayerCount: 2
Fore
SplineSet
347 -12 m 256,0,1
 497 -12 497 -12 559 60 c 0,2,3
 621 128 621 128 621 286 c 2,4,-1
 621 698 l 1,5,-1
 473 698 l 1,6,-1
 473 270 l 2,7,8
 473 196 473 196 444 159.5 c 128,-1,9
 415 123 415 123 347 123 c 256,10,11
 279 123 279 123 250 159.5 c 128,-1,12
 221 196 221 196 221 270 c 2,13,-1
 221 698 l 1,14,-1
 73 698 l 1,15,-1
 73 286 l 2,16,17
 73 128 73 128 135 60 c 0,18,19
 197 -12 197 -12 347 -12 c 256,0,1
331 740 m 1,20,-1
 419 783 l 1,21,-1
 320 977 l 1,22,-1
 197 916 l 1,23,-1
 331 740 l 1,20,-1
EndSplineSet
EndChar

StartChar: Uacute
Encoding: 218 218 153
Width: 694
Flags: W
LayerCount: 2
Fore
SplineSet
347 -12 m 256,0,1
 497 -12 497 -12 559 60 c 0,2,3
 621 128 621 128 621 286 c 2,4,-1
 621 698 l 1,5,-1
 473 698 l 1,6,-1
 473 270 l 2,7,8
 473 196 473 196 444 159.5 c 128,-1,9
 415 123 415 123 347 123 c 256,10,11
 279 123 279 123 250 159.5 c 128,-1,12
 221 196 221 196 221 270 c 2,13,-1
 221 698 l 1,14,-1
 73 698 l 1,15,-1
 73 286 l 2,16,17
 73 128 73 128 135 60 c 0,18,19
 197 -12 197 -12 347 -12 c 256,0,1
363 740 m 1,20,-1
 497 916 l 1,21,-1
 374 977 l 1,22,-1
 275 783 l 1,23,-1
 363 740 l 1,20,-1
EndSplineSet
EndChar

StartChar: Ucircumflex
Encoding: 219 219 154
Width: 694
Flags: W
LayerCount: 2
Fore
SplineSet
347 -12 m 256,0,1
 497 -12 497 -12 559 60 c 0,2,3
 621 128 621 128 621 286 c 2,4,-1
 621 698 l 1,5,-1
 473 698 l 1,6,-1
 473 270 l 2,7,8
 473 196 473 196 444 159.5 c 128,-1,9
 415 123 415 123 347 123 c 256,10,11
 279 123 279 123 250 159.5 c 128,-1,12
 221 196 221 196 221 270 c 2,13,-1
 221 698 l 1,14,-1
 73 698 l 1,15,-1
 73 286 l 2,16,17
 73 128 73 128 135 60 c 0,18,19
 197 -12 197 -12 347 -12 c 256,0,1
468 739 m 1,20,-1
 541 797 l 1,21,-1
 409 956 l 1,22,-1
 285 956 l 1,23,-1
 153 797 l 1,24,-1
 226 739 l 1,25,-1
 347 854 l 1,26,-1
 468 739 l 1,20,-1
EndSplineSet
EndChar

StartChar: Udieresis
Encoding: 220 220 155
Width: 694
Flags: W
LayerCount: 2
Fore
SplineSet
347 -12 m 256,0,1
 497 -12 497 -12 559 60 c 0,2,3
 621 128 621 128 621 286 c 2,4,-1
 621 698 l 1,5,-1
 473 698 l 1,6,-1
 473 270 l 2,7,8
 473 196 473 196 444 159.5 c 128,-1,9
 415 123 415 123 347 123 c 256,10,11
 279 123 279 123 250 159.5 c 128,-1,12
 221 196 221 196 221 270 c 2,13,-1
 221 698 l 1,14,-1
 73 698 l 1,15,-1
 73 286 l 2,16,17
 73 128 73 128 135 60 c 0,18,19
 197 -12 197 -12 347 -12 c 256,0,1
237 761 m 256,20,21
 317 761 317 761 317 824 c 2,22,-1
 317 849 l 2,23,24
 317 912 317 912 237 912 c 256,25,26
 157 912 157 912 157 849 c 2,27,-1
 157 824 l 2,28,29
 157 761 157 761 237 761 c 256,20,21
457 761 m 256,30,31
 537 761 537 761 537 824 c 2,32,-1
 537 849 l 2,33,34
 537 912 537 912 457 912 c 256,35,36
 377 912 377 912 377 849 c 2,37,-1
 377 824 l 2,38,39
 377 761 377 761 457 761 c 256,30,31
EndSplineSet
EndChar

StartChar: Yacute
Encoding: 221 221 156
Width: 649
Flags: W
LayerCount: 2
Fore
SplineSet
401 0 m 1,0,-1
 401 274 l 1,1,-1
 640 698 l 1,2,-1
 475 698 l 1,3,-1
 331 420 l 1,4,-1
 329 420 l 1,5,-1
 179 698 l 1,6,-1
 9 698 l 1,7,-1
 248 273 l 1,8,-1
 248 0 l 1,9,-1
 401 0 l 1,0,-1
341 740 m 1,10,-1
 475 916 l 1,11,-1
 352 977 l 1,12,-1
 253 783 l 1,13,-1
 341 740 l 1,10,-1
EndSplineSet
EndChar

StartChar: Thorn
Encoding: 222 222 157
Width: 656
Flags: W
LayerCount: 2
Fore
SplineSet
229 0 m 1,0,-1
 229 132 l 1,1,-1
 407 132 l 2,2,3
 505 132 505 132 562 195 c 128,-1,4
 619 258 619 258 619 355 c 0,5,6
 619 453 619 453 562 515.5 c 128,-1,7
 505 578 505 578 407 578 c 2,8,-1
 229 578 l 1,9,-1
 229 698 l 1,10,-1
 77 698 l 1,11,-1
 77 0 l 1,12,-1
 229 0 l 1,0,-1
389 264 m 2,13,-1
 229 264 l 1,14,-1
 229 446 l 1,15,-1
 389 446 l 2,16,17
 423 446 423 446 442.5 428.5 c 128,-1,18
 462 411 462 411 462 377 c 2,19,-1
 462 333 l 2,20,21
 462 266 462 266 389 264 c 2,13,-1
EndSplineSet
EndChar

StartChar: germandbls
Encoding: 223 223 158
Width: 692
Flags: W
LayerCount: 2
Fore
SplineSet
473 -12 m 0,0,1
 559 -12 559 -12 613 38 c 128,-1,2
 667 88 667 88 667 173 c 0,3,4
 667 235 667 235 636.5 269.5 c 128,-1,5
 606 304 606 304 551 321 c 2,6,-1
 520 331 l 2,7,8
 488 341 488 341 473 352 c 128,-1,9
 458 363 458 363 458 387 c 0,10,11
 458 413 458 413 477 423.5 c 128,-1,12
 496 434 496 434 543 434 c 2,13,-1
 599 434 l 1,14,-1
 599 531 l 2,15,16
 599 635 599 635 530.5 693.5 c 128,-1,17
 462 752 462 752 349 752 c 0,18,19
 237 752 237 752 166 692.5 c 128,-1,20
 95 633 95 633 95 525 c 1,21,-1
 21 525 l 1,22,-1
 21 410 l 1,23,-1
 95 410 l 1,24,-1
 95 0 l 1,25,-1
 243 0 l 1,26,-1
 243 531 l 2,27,28
 243 589 243 589 270.5 615.5 c 128,-1,29
 298 642 298 642 353 642 c 0,30,31
 463 642 463 642 463 529 c 1,32,33
 322 494 322 494 322 374 c 0,34,35
 322 313 322 313 352 279.5 c 128,-1,36
 382 246 382 246 434 229 c 2,37,-1
 465 219 l 2,38,39
 500 208 500 208 515.5 194.5 c 128,-1,40
 531 181 531 181 531 155 c 0,41,42
 531 100 531 100 471 98 c 0,43,44
 413 98 413 98 371 149 c 1,45,-1
 287 63 l 1,46,47
 347 -12 347 -12 473 -12 c 0,0,1
EndSplineSet
EndChar

StartChar: agrave
Encoding: 224 224 159
Width: 553
Flags: W
LayerCount: 2
Fore
SplineSet
253 579 m 1,0,-1
 341 622 l 1,1,-1
 242 816 l 1,2,-1
 119 755 l 1,3,-1
 253 579 l 1,0,-1
197 -12 m 0,4,5
 118 -12 118 -12 76 30 c 128,-1,6
 34 72 34 72 34 141 c 0,7,8
 34 224 34 224 94.5 264.5 c 128,-1,9
 155 305 155 305 259 305 c 2,10,-1
 342 305 l 1,11,-1
 342 338 l 2,12,13
 342 421 342 421 255 421 c 0,14,15
 211 421 211 421 185 402.5 c 128,-1,16
 159 384 159 384 142 359 c 1,17,-1
 54 437 l 1,18,19
 85 485 85 485 134 511 c 128,-1,20
 183 537 183 537 266 537 c 0,21,22
 490 537 490 537 490 345 c 2,23,-1
 490 0 l 1,24,-1
 357 0 l 1,25,-1
 357 92 l 1,26,-1
 351 92 l 1,27,28
 338 41 338 41 297.5 14.5 c 128,-1,29
 257 -12 257 -12 197 -12 c 0,4,5
252 91 m 0,30,31
 289 91 289 91 315.5 107 c 128,-1,32
 342 123 342 123 342 159 c 2,33,-1
 342 221 l 1,34,-1
 270 221 l 2,35,36
 183 221 183 221 183 162 c 2,37,-1
 183 147 l 2,38,39
 183 91 183 91 252 91 c 0,30,31
EndSplineSet
EndChar

StartChar: aacute
Encoding: 225 225 160
Width: 553
Flags: W
LayerCount: 2
Fore
SplineSet
285 579 m 1,0,-1
 419 755 l 1,1,-1
 296 816 l 1,2,-1
 197 622 l 1,3,-1
 285 579 l 1,0,-1
197 -12 m 0,4,5
 118 -12 118 -12 76 30 c 128,-1,6
 34 72 34 72 34 141 c 0,7,8
 34 224 34 224 94.5 264.5 c 128,-1,9
 155 305 155 305 259 305 c 2,10,-1
 342 305 l 1,11,-1
 342 338 l 2,12,13
 342 421 342 421 255 421 c 0,14,15
 211 421 211 421 185 402.5 c 128,-1,16
 159 384 159 384 142 359 c 1,17,-1
 54 437 l 1,18,19
 85 485 85 485 134 511 c 128,-1,20
 183 537 183 537 266 537 c 0,21,22
 490 537 490 537 490 345 c 2,23,-1
 490 0 l 1,24,-1
 357 0 l 1,25,-1
 357 92 l 1,26,-1
 351 92 l 1,27,28
 338 41 338 41 297.5 14.5 c 128,-1,29
 257 -12 257 -12 197 -12 c 0,4,5
252 91 m 0,30,31
 289 91 289 91 315.5 107 c 128,-1,32
 342 123 342 123 342 159 c 2,33,-1
 342 221 l 1,34,-1
 270 221 l 2,35,36
 183 221 183 221 183 162 c 2,37,-1
 183 147 l 2,38,39
 183 91 183 91 252 91 c 0,30,31
EndSplineSet
EndChar

StartChar: acircumflex
Encoding: 226 226 161
Width: 553
Flags: W
LayerCount: 2
Fore
SplineSet
390 578 m 1,0,-1
 463 636 l 1,1,-1
 331 795 l 1,2,-1
 207 795 l 1,3,-1
 75 636 l 1,4,-1
 148 578 l 1,5,-1
 269 693 l 1,6,-1
 390 578 l 1,0,-1
197 -12 m 0,7,8
 118 -12 118 -12 76 30 c 128,-1,9
 34 72 34 72 34 141 c 0,10,11
 34 224 34 224 94.5 264.5 c 128,-1,12
 155 305 155 305 259 305 c 2,13,-1
 342 305 l 1,14,-1
 342 338 l 2,15,16
 342 421 342 421 255 421 c 0,17,18
 211 421 211 421 185 402.5 c 128,-1,19
 159 384 159 384 142 359 c 1,20,-1
 54 437 l 1,21,22
 85 485 85 485 134 511 c 128,-1,23
 183 537 183 537 266 537 c 0,24,25
 490 537 490 537 490 345 c 2,26,-1
 490 0 l 1,27,-1
 357 0 l 1,28,-1
 357 92 l 1,29,-1
 351 92 l 1,30,31
 338 41 338 41 297.5 14.5 c 128,-1,32
 257 -12 257 -12 197 -12 c 0,7,8
252 91 m 0,33,34
 289 91 289 91 315.5 107 c 128,-1,35
 342 123 342 123 342 159 c 2,36,-1
 342 221 l 1,37,-1
 270 221 l 2,38,39
 183 221 183 221 183 162 c 2,40,-1
 183 147 l 2,41,42
 183 91 183 91 252 91 c 0,33,34
EndSplineSet
EndChar

StartChar: atilde
Encoding: 227 227 162
Width: 553
Flags: W
LayerCount: 2
Fore
SplineSet
345 601 m 0,0,1
 418 601 418 601 459 665 c 1,2,-1
 407 733 l 1,3,4
 392 720 392 720 378.5 714 c 128,-1,5
 365 708 365 708 348 708 c 0,6,7
 329 708 329 708 312 713.5 c 128,-1,8
 295 719 295 719 276 728 c 2,9,-1
 234 744 l 2,10,11
 216 750 216 750 193 750 c 0,12,13
 120 750 120 750 79 686 c 1,14,-1
 131 618 l 1,15,16
 146 631 146 631 159.5 637 c 128,-1,17
 173 643 173 643 190 643 c 0,18,19
 209 643 209 643 226 637.5 c 128,-1,20
 243 632 243 632 262 623 c 2,21,-1
 304 607 l 2,22,23
 322 601 322 601 345 601 c 0,0,1
197 -12 m 0,24,25
 118 -12 118 -12 76 30 c 128,-1,26
 34 72 34 72 34 141 c 0,27,28
 34 224 34 224 94.5 264.5 c 128,-1,29
 155 305 155 305 259 305 c 2,30,-1
 342 305 l 1,31,-1
 342 338 l 2,32,33
 342 421 342 421 255 421 c 0,34,35
 211 421 211 421 185 402.5 c 128,-1,36
 159 384 159 384 142 359 c 1,37,-1
 54 437 l 1,38,39
 85 485 85 485 134 511 c 128,-1,40
 183 537 183 537 266 537 c 0,41,42
 490 537 490 537 490 345 c 2,43,-1
 490 0 l 1,44,-1
 357 0 l 1,45,-1
 357 92 l 1,46,-1
 351 92 l 1,47,48
 338 41 338 41 297.5 14.5 c 128,-1,49
 257 -12 257 -12 197 -12 c 0,24,25
252 91 m 0,50,51
 289 91 289 91 315.5 107 c 128,-1,52
 342 123 342 123 342 159 c 2,53,-1
 342 221 l 1,54,-1
 270 221 l 2,55,56
 183 221 183 221 183 162 c 2,57,-1
 183 147 l 2,58,59
 183 91 183 91 252 91 c 0,50,51
EndSplineSet
EndChar

StartChar: adieresis
Encoding: 228 228 163
Width: 553
Flags: W
LayerCount: 2
Fore
SplineSet
159 600 m 256,0,1
 239 600 239 600 239 663 c 2,2,-1
 239 688 l 2,3,4
 239 751 239 751 159 751 c 256,5,6
 79 751 79 751 79 688 c 2,7,-1
 79 663 l 2,8,9
 79 600 79 600 159 600 c 256,0,1
379 600 m 256,10,11
 459 600 459 600 459 663 c 2,12,-1
 459 688 l 2,13,14
 459 751 459 751 379 751 c 256,15,16
 299 751 299 751 299 688 c 2,17,-1
 299 663 l 2,18,19
 299 600 299 600 379 600 c 256,10,11
197 -12 m 0,20,21
 118 -12 118 -12 76 30 c 128,-1,22
 34 72 34 72 34 141 c 0,23,24
 34 224 34 224 94.5 264.5 c 128,-1,25
 155 305 155 305 259 305 c 2,26,-1
 342 305 l 1,27,-1
 342 338 l 2,28,29
 342 421 342 421 255 421 c 0,30,31
 211 421 211 421 185 402.5 c 128,-1,32
 159 384 159 384 142 359 c 1,33,-1
 54 437 l 1,34,35
 85 485 85 485 134 511 c 128,-1,36
 183 537 183 537 266 537 c 0,37,38
 490 537 490 537 490 345 c 2,39,-1
 490 0 l 1,40,-1
 357 0 l 1,41,-1
 357 92 l 1,42,-1
 351 92 l 1,43,44
 338 41 338 41 297.5 14.5 c 128,-1,45
 257 -12 257 -12 197 -12 c 0,20,21
252 91 m 0,46,47
 289 91 289 91 315.5 107 c 128,-1,48
 342 123 342 123 342 159 c 2,49,-1
 342 221 l 1,50,-1
 270 221 l 2,51,52
 183 221 183 221 183 162 c 2,53,-1
 183 147 l 2,54,55
 183 91 183 91 252 91 c 0,46,47
EndSplineSet
EndChar

StartChar: aring
Encoding: 229 229 164
Width: 553
Flags: W
LayerCount: 2
Fore
SplineSet
269 558 m 0,0,1
 331 558 331 558 374 599 c 128,-1,2
 417 640 417 640 417 701 c 0,3,4
 417 763 417 763 374 803.5 c 128,-1,5
 331 844 331 844 269 844 c 0,6,7
 208 844 208 844 164.5 803.5 c 128,-1,8
 121 763 121 763 121 701 c 0,9,10
 121 640 121 640 164.5 599 c 128,-1,11
 208 558 208 558 269 558 c 0,0,1
269 633 m 0,12,13
 220 633 220 633 218 684 c 2,14,-1
 218 718 l 2,15,16
 218 766 218 766 269 769 c 0,17,18
 319 769 319 769 320 718 c 2,19,-1
 320 684 l 2,20,21
 320 636 320 636 269 633 c 0,12,13
197 -12 m 0,22,23
 118 -12 118 -12 76 30 c 128,-1,24
 34 72 34 72 34 141 c 0,25,26
 34 224 34 224 94.5 264.5 c 128,-1,27
 155 305 155 305 259 305 c 2,28,-1
 342 305 l 1,29,-1
 342 338 l 2,30,31
 342 421 342 421 255 421 c 0,32,33
 211 421 211 421 185 402.5 c 128,-1,34
 159 384 159 384 142 359 c 1,35,-1
 54 437 l 1,36,37
 85 485 85 485 134 511 c 128,-1,38
 183 537 183 537 266 537 c 0,39,40
 490 537 490 537 490 345 c 2,41,-1
 490 0 l 1,42,-1
 357 0 l 1,43,-1
 357 92 l 1,44,-1
 351 92 l 1,45,46
 338 41 338 41 297.5 14.5 c 128,-1,47
 257 -12 257 -12 197 -12 c 0,22,23
252 91 m 0,48,49
 289 91 289 91 315.5 107 c 128,-1,50
 342 123 342 123 342 159 c 2,51,-1
 342 221 l 1,52,-1
 270 221 l 2,53,54
 183 221 183 221 183 162 c 2,55,-1
 183 147 l 2,56,57
 183 91 183 91 252 91 c 0,48,49
EndSplineSet
EndChar

StartChar: ae
Encoding: 230 230 165
Width: 864
Flags: W
LayerCount: 2
Fore
SplineSet
254 91 m 0,0,1
 184 91 184 91 183 152 c 2,2,-1
 183 166 l 2,3,4
 183 225 183 225 270 225 c 2,5,-1
 342 225 l 1,6,-1
 342 159 l 2,7,8
 342 123 342 123 315.5 107 c 128,-1,9
 289 91 289 91 254 91 c 0,0,1
675 312 m 1,10,-1
 491 312 l 1,11,-1
 491 320 l 2,12,13
 491 369 491 369 516.5 398.5 c 128,-1,14
 542 428 542 428 587 428 c 256,15,16
 632 428 632 428 653.5 398.5 c 128,-1,17
 675 369 675 369 675 321 c 2,18,-1
 675 312 l 1,10,-1
593 -12 m 0,19,20
 737 -12 737 -12 813 75 c 1,21,-1
 739 167 l 1,22,23
 718 143 718 143 687 124.5 c 128,-1,24
 656 106 656 106 610 106 c 0,25,26
 496 106 496 106 490 217 c 1,27,-1
 490 225 l 1,28,-1
 828 225 l 1,29,-1
 828 269 l 2,30,31
 828 385 828 385 774 456 c 0,32,33
 712 537 712 537 588 537 c 0,34,35
 467 537 467 537 420 463 c 1,36,-1
 414 463 l 1,37,38
 366 537 366 537 266 537 c 0,39,40
 183 537 183 537 134 511 c 128,-1,41
 85 485 85 485 54 437 c 1,42,-1
 142 359 l 1,43,44
 159 384 159 384 185 402.5 c 128,-1,45
 211 421 211 421 255 421 c 0,46,47
 342 421 342 421 342 338 c 2,48,-1
 342 312 l 1,49,-1
 259 312 l 2,50,51
 162 312 162 312 98 270 c 128,-1,52
 34 228 34 228 34 144 c 0,53,54
 34 77 34 77 76.5 32.5 c 128,-1,55
 119 -12 119 -12 198 -12 c 0,56,57
 281 -12 281 -12 324.5 18 c 128,-1,58
 368 48 368 48 383 91 c 1,59,-1
 389 91 l 1,60,61
 411 46 411 46 464.5 17 c 128,-1,62
 518 -12 518 -12 593 -12 c 0,19,20
EndSplineSet
EndChar

StartChar: ccedilla
Encoding: 231 231 166
Width: 517
Flags: W
LayerCount: 2
Fore
SplineSet
275 -212 m 0,0,1
 333 -212 333 -212 367 -192 c 0,2,3
 407 -168 407 -168 407 -121 c 0,4,5
 407 -84 407 -84 385.5 -68 c 128,-1,6
 364 -52 364 -52 334 -52 c 0,7,8
 310 -52 310 -52 286 -59 c 1,9,-1
 282 -55 l 1,10,-1
 291 -12 l 1,11,12
 439 -10 439 -10 494 133 c 1,13,-1
 379 183 l 1,14,15
 369 150 369 150 347 127 c 128,-1,16
 325 104 325 104 281 104 c 0,17,18
 236 104 236 104 213 133.5 c 128,-1,19
 190 163 190 163 190 213 c 2,20,-1
 190 311 l 2,21,22
 190 361 190 361 213 390.5 c 128,-1,23
 236 420 236 420 281 420 c 0,24,25
 320 420 320 420 342 399.5 c 128,-1,26
 364 379 364 379 371 348 c 1,27,-1
 491 400 l 1,28,29
 442 537 442 537 281 537 c 0,30,31
 163 537 163 537 99.5 463 c 128,-1,32
 36 389 36 389 36 263 c 0,33,34
 36 152 36 152 84 81.5 c 128,-1,35
 132 11 132 11 225 -7 c 1,36,-1
 211 -74 l 1,37,38
 275 -80 275 -80 293 -92 c 0,39,40
 307 -104 307 -104 307 -116 c 0,41,42
 307 -129 307 -129 294.5 -135 c 128,-1,43
 282 -141 282 -141 263 -141 c 0,44,45
 220 -141 220 -141 197 -112 c 1,46,-1
 151 -168 l 1,47,48
 185 -212 185 -212 275 -212 c 0,0,1
EndSplineSet
EndChar

StartChar: egrave
Encoding: 232 232 167
Width: 562
Flags: W
LayerCount: 2
Fore
SplineSet
288 -12 m 0,0,1
 432 -12 432 -12 508 75 c 1,2,-1
 434 167 l 1,3,4
 410 140 410 140 380.5 122 c 128,-1,5
 351 104 351 104 305 104 c 0,6,7
 245 104 245 104 217 134.5 c 128,-1,8
 189 165 189 165 189 217 c 2,9,-1
 189 225 l 1,10,-1
 526 225 l 1,11,-1
 526 269 l 2,12,13
 526 384 526 384 470 456 c 0,14,15
 405 537 405 537 282 537 c 0,16,17
 164 537 164 537 100 462.5 c 128,-1,18
 36 388 36 388 36 263 c 0,19,20
 36 137 36 137 102 62.5 c 128,-1,21
 168 -12 168 -12 288 -12 c 0,0,1
373 312 m 1,22,-1
 189 312 l 1,23,-1
 189 320 l 2,24,25
 189 369 189 369 214.5 398.5 c 128,-1,26
 240 428 240 428 285 428 c 256,27,28
 330 428 330 428 351.5 398.5 c 128,-1,29
 373 369 373 369 373 321 c 2,30,-1
 373 312 l 1,22,-1
272 579 m 1,31,-1
 360 622 l 1,32,-1
 261 816 l 1,33,-1
 138 755 l 1,34,-1
 272 579 l 1,31,-1
EndSplineSet
EndChar

StartChar: eacute
Encoding: 233 233 168
Width: 562
Flags: W
LayerCount: 2
Fore
SplineSet
288 -12 m 0,0,1
 432 -12 432 -12 508 75 c 1,2,-1
 434 167 l 1,3,4
 410 140 410 140 380.5 122 c 128,-1,5
 351 104 351 104 305 104 c 0,6,7
 245 104 245 104 217 134.5 c 128,-1,8
 189 165 189 165 189 217 c 2,9,-1
 189 225 l 1,10,-1
 526 225 l 1,11,-1
 526 269 l 2,12,13
 526 384 526 384 470 456 c 0,14,15
 405 537 405 537 282 537 c 0,16,17
 164 537 164 537 100 462.5 c 128,-1,18
 36 388 36 388 36 263 c 0,19,20
 36 137 36 137 102 62.5 c 128,-1,21
 168 -12 168 -12 288 -12 c 0,0,1
373 312 m 1,22,-1
 189 312 l 1,23,-1
 189 320 l 2,24,25
 189 369 189 369 214.5 398.5 c 128,-1,26
 240 428 240 428 285 428 c 256,27,28
 330 428 330 428 351.5 398.5 c 128,-1,29
 373 369 373 369 373 321 c 2,30,-1
 373 312 l 1,22,-1
304 579 m 1,31,-1
 438 755 l 1,32,-1
 315 816 l 1,33,-1
 216 622 l 1,34,-1
 304 579 l 1,31,-1
EndSplineSet
EndChar

StartChar: ecircumflex
Encoding: 234 234 169
Width: 562
Flags: W
LayerCount: 2
Fore
SplineSet
288 -12 m 0,0,1
 432 -12 432 -12 508 75 c 1,2,-1
 434 167 l 1,3,4
 410 140 410 140 380.5 122 c 128,-1,5
 351 104 351 104 305 104 c 0,6,7
 245 104 245 104 217 134.5 c 128,-1,8
 189 165 189 165 189 217 c 2,9,-1
 189 225 l 1,10,-1
 526 225 l 1,11,-1
 526 269 l 2,12,13
 526 384 526 384 470 456 c 0,14,15
 405 537 405 537 282 537 c 0,16,17
 164 537 164 537 100 462.5 c 128,-1,18
 36 388 36 388 36 263 c 0,19,20
 36 137 36 137 102 62.5 c 128,-1,21
 168 -12 168 -12 288 -12 c 0,0,1
373 312 m 1,22,-1
 189 312 l 1,23,-1
 189 320 l 2,24,25
 189 369 189 369 214.5 398.5 c 128,-1,26
 240 428 240 428 285 428 c 256,27,28
 330 428 330 428 351.5 398.5 c 128,-1,29
 373 369 373 369 373 321 c 2,30,-1
 373 312 l 1,22,-1
409 578 m 1,31,-1
 482 636 l 1,32,-1
 350 795 l 1,33,-1
 226 795 l 1,34,-1
 94 636 l 1,35,-1
 167 578 l 1,36,-1
 288 693 l 1,37,-1
 409 578 l 1,31,-1
EndSplineSet
EndChar

StartChar: edieresis
Encoding: 235 235 170
Width: 562
Flags: W
LayerCount: 2
Fore
SplineSet
288 -12 m 0,0,1
 432 -12 432 -12 508 75 c 1,2,-1
 434 167 l 1,3,4
 410 140 410 140 380.5 122 c 128,-1,5
 351 104 351 104 305 104 c 0,6,7
 245 104 245 104 217 134.5 c 128,-1,8
 189 165 189 165 189 217 c 2,9,-1
 189 225 l 1,10,-1
 526 225 l 1,11,-1
 526 269 l 2,12,13
 526 384 526 384 470 456 c 0,14,15
 405 537 405 537 282 537 c 0,16,17
 164 537 164 537 100 462.5 c 128,-1,18
 36 388 36 388 36 263 c 0,19,20
 36 137 36 137 102 62.5 c 128,-1,21
 168 -12 168 -12 288 -12 c 0,0,1
373 312 m 1,22,-1
 189 312 l 1,23,-1
 189 320 l 2,24,25
 189 369 189 369 214.5 398.5 c 128,-1,26
 240 428 240 428 285 428 c 256,27,28
 330 428 330 428 351.5 398.5 c 128,-1,29
 373 369 373 369 373 321 c 2,30,-1
 373 312 l 1,22,-1
178 600 m 256,31,32
 258 600 258 600 258 663 c 2,33,-1
 258 688 l 2,34,35
 258 751 258 751 178 751 c 256,36,37
 98 751 98 751 98 688 c 2,38,-1
 98 663 l 2,39,40
 98 600 98 600 178 600 c 256,31,32
398 600 m 256,41,42
 478 600 478 600 478 663 c 2,43,-1
 478 688 l 2,44,45
 478 751 478 751 398 751 c 256,46,47
 318 751 318 751 318 688 c 2,48,-1
 318 663 l 2,49,50
 318 600 318 600 398 600 c 256,41,42
EndSplineSet
EndChar

StartChar: igrave
Encoding: 236 236 171
Width: 286
Flags: W
LayerCount: 2
Fore
SplineSet
217 0 m 1,0,-1
 217 525 l 1,1,-1
 69 525 l 1,2,-1
 69 0 l 1,3,-1
 217 0 l 1,0,-1
128 579 m 1,4,-1
 216 622 l 1,5,-1
 117 816 l 1,6,-1
 -6 755 l 1,7,-1
 128 579 l 1,4,-1
EndSplineSet
EndChar

StartChar: iacute
Encoding: 237 237 172
Width: 286
Flags: W
LayerCount: 2
Fore
SplineSet
217 0 m 1,0,-1
 217 525 l 1,1,-1
 69 525 l 1,2,-1
 69 0 l 1,3,-1
 217 0 l 1,0,-1
160 579 m 1,4,-1
 294 755 l 1,5,-1
 171 816 l 1,6,-1
 72 622 l 1,7,-1
 160 579 l 1,4,-1
EndSplineSet
EndChar

StartChar: icircumflex
Encoding: 238 238 173
Width: 286
Flags: W
LayerCount: 2
Fore
SplineSet
217 0 m 1,0,-1
 217 525 l 1,1,-1
 69 525 l 1,2,-1
 69 0 l 1,3,-1
 217 0 l 1,0,-1
265 578 m 1,4,-1
 338 636 l 1,5,-1
 206 795 l 1,6,-1
 82 795 l 1,7,-1
 -50 636 l 1,8,-1
 23 578 l 1,9,-1
 144 693 l 1,10,-1
 265 578 l 1,4,-1
EndSplineSet
EndChar

StartChar: idieresis
Encoding: 239 239 174
Width: 286
Flags: W
LayerCount: 2
Fore
SplineSet
217 0 m 1,0,-1
 217 525 l 1,1,-1
 69 525 l 1,2,-1
 69 0 l 1,3,-1
 217 0 l 1,0,-1
34 600 m 256,4,5
 114 600 114 600 114 663 c 2,6,-1
 114 688 l 2,7,8
 114 751 114 751 34 751 c 256,9,10
 -46 751 -46 751 -46 688 c 2,11,-1
 -46 663 l 2,12,13
 -46 600 -46 600 34 600 c 256,4,5
254 600 m 256,14,15
 334 600 334 600 334 663 c 2,16,-1
 334 688 l 2,17,18
 334 751 334 751 254 751 c 256,19,20
 174 751 174 751 174 688 c 2,21,-1
 174 663 l 2,22,23
 174 600 174 600 254 600 c 256,14,15
EndSplineSet
EndChar

StartChar: eth
Encoding: 240 240 175
Width: 603
Flags: W
LayerCount: 2
Fore
SplineSet
301 -12 m 0,0,1
 415 -12 415 -12 485 57 c 0,2,3
 555 131 555 131 555 278 c 0,4,5
 555 496 555 496 406 649 c 1,6,-1
 479 693 l 1,7,-1
 429 753 l 1,8,-1
 346 704 l 1,9,10
 334 713 334 713 322 722.5 c 128,-1,11
 310 732 310 732 297 740 c 1,12,-1
 71 740 l 1,13,14
 156 694 156 694 230 635 c 1,15,-1
 150 588 l 1,16,-1
 201 528 l 1,17,-1
 290 581 l 1,18,19
 373 500 373 500 402 405 c 1,20,-1
 395 402 l 1,21,22
 344 500 344 500 239 500 c 0,23,24
 149 500 149 500 95 433 c 128,-1,25
 41 366 41 366 41 253 c 0,26,27
 41 129 41 129 110.5 58.5 c 128,-1,28
 180 -12 180 -12 301 -12 c 0,0,1
298 98 m 0,29,30
 250 98 250 98 222 128.5 c 128,-1,31
 194 159 194 159 194 216 c 2,32,-1
 194 270 l 2,33,34
 194 384 194 384 298 388 c 0,35,36
 346 388 346 388 374 357.5 c 128,-1,37
 402 327 402 327 402 270 c 2,38,-1
 402 216 l 2,39,40
 402 102 402 102 298 98 c 0,29,30
EndSplineSet
EndChar

StartChar: ntilde
Encoding: 241 241 176
Width: 596
Flags: W
LayerCount: 2
Fore
SplineSet
533 0 m 1,0,-1
 533 329 l 2,1,2
 533 429 533 429 491.5 483 c 128,-1,3
 450 537 450 537 369 537 c 0,4,5
 307 537 307 537 272 507.5 c 128,-1,6
 237 478 237 478 223 436 c 1,7,-1
 217 436 l 1,8,-1
 217 525 l 1,9,-1
 69 525 l 1,10,-1
 69 0 l 1,11,-1
 217 0 l 1,12,-1
 217 340 l 2,13,14
 217 378 217 378 246.5 397.5 c 128,-1,15
 276 417 276 417 312 417 c 0,16,17
 353 417 353 417 369 392.5 c 128,-1,18
 385 368 385 368 385 317 c 2,19,-1
 385 0 l 1,20,-1
 533 0 l 1,0,-1
376 601 m 0,21,22
 449 601 449 601 490 665 c 1,23,-1
 438 733 l 1,24,25
 423 720 423 720 409.5 714 c 128,-1,26
 396 708 396 708 379 708 c 0,27,28
 360 708 360 708 343 713.5 c 128,-1,29
 326 719 326 719 307 728 c 2,30,-1
 265 744 l 2,31,32
 247 750 247 750 224 750 c 0,33,34
 151 750 151 750 110 686 c 1,35,-1
 162 618 l 1,36,37
 177 631 177 631 190.5 637 c 128,-1,38
 204 643 204 643 221 643 c 0,39,40
 240 643 240 643 257 637.5 c 128,-1,41
 274 632 274 632 293 623 c 2,42,-1
 335 607 l 2,43,44
 353 601 353 601 376 601 c 0,21,22
EndSplineSet
EndChar

StartChar: ograve
Encoding: 242 242 177
Width: 564
Flags: W
LayerCount: 2
Fore
SplineSet
282 -12 m 0,0,1
 398 -12 398 -12 463 62.5 c 128,-1,2
 528 137 528 137 528 263 c 256,3,4
 528 389 528 389 463 463 c 128,-1,5
 398 537 398 537 282 537 c 0,6,7
 167 537 167 537 101.5 463 c 128,-1,8
 36 389 36 389 36 263 c 256,9,10
 36 137 36 137 101.5 62.5 c 128,-1,11
 167 -12 167 -12 282 -12 c 0,0,1
282 105 m 0,12,13
 194 105 194 105 190 209 c 1,14,-1
 190 316 l 2,15,16
 190 417 190 417 282 420 c 0,17,18
 371 420 371 420 374 316 c 2,19,-1
 374 209 l 2,20,21
 374 109 374 109 282 105 c 0,12,13
266 579 m 1,22,-1
 354 622 l 1,23,-1
 255 816 l 1,24,-1
 132 755 l 1,25,-1
 266 579 l 1,22,-1
EndSplineSet
EndChar

StartChar: oacute
Encoding: 243 243 178
Width: 564
Flags: W
LayerCount: 2
Fore
SplineSet
282 -12 m 0,0,1
 398 -12 398 -12 463 62.5 c 128,-1,2
 528 137 528 137 528 263 c 256,3,4
 528 389 528 389 463 463 c 128,-1,5
 398 537 398 537 282 537 c 0,6,7
 167 537 167 537 101.5 463 c 128,-1,8
 36 389 36 389 36 263 c 256,9,10
 36 137 36 137 101.5 62.5 c 128,-1,11
 167 -12 167 -12 282 -12 c 0,0,1
282 105 m 0,12,13
 194 105 194 105 190 209 c 1,14,-1
 190 316 l 2,15,16
 190 417 190 417 282 420 c 0,17,18
 371 420 371 420 374 316 c 2,19,-1
 374 209 l 2,20,21
 374 109 374 109 282 105 c 0,12,13
298 579 m 1,22,-1
 432 755 l 1,23,-1
 309 816 l 1,24,-1
 210 622 l 1,25,-1
 298 579 l 1,22,-1
EndSplineSet
EndChar

StartChar: ocircumflex
Encoding: 244 244 179
Width: 564
Flags: W
LayerCount: 2
Fore
SplineSet
282 -12 m 0,0,1
 398 -12 398 -12 463 62.5 c 128,-1,2
 528 137 528 137 528 263 c 256,3,4
 528 389 528 389 463 463 c 128,-1,5
 398 537 398 537 282 537 c 0,6,7
 167 537 167 537 101.5 463 c 128,-1,8
 36 389 36 389 36 263 c 256,9,10
 36 137 36 137 101.5 62.5 c 128,-1,11
 167 -12 167 -12 282 -12 c 0,0,1
282 105 m 0,12,13
 194 105 194 105 190 209 c 1,14,-1
 190 316 l 2,15,16
 190 417 190 417 282 420 c 0,17,18
 371 420 371 420 374 316 c 2,19,-1
 374 209 l 2,20,21
 374 109 374 109 282 105 c 0,12,13
403 578 m 1,22,-1
 476 636 l 1,23,-1
 344 795 l 1,24,-1
 220 795 l 1,25,-1
 88 636 l 1,26,-1
 161 578 l 1,27,-1
 282 693 l 1,28,-1
 403 578 l 1,22,-1
EndSplineSet
EndChar

StartChar: otilde
Encoding: 245 245 180
Width: 564
Flags: W
LayerCount: 2
Fore
SplineSet
282 -12 m 0,0,1
 398 -12 398 -12 463 62.5 c 128,-1,2
 528 137 528 137 528 263 c 256,3,4
 528 389 528 389 463 463 c 128,-1,5
 398 537 398 537 282 537 c 0,6,7
 167 537 167 537 101.5 463 c 128,-1,8
 36 389 36 389 36 263 c 256,9,10
 36 137 36 137 101.5 62.5 c 128,-1,11
 167 -12 167 -12 282 -12 c 0,0,1
282 105 m 0,12,13
 194 105 194 105 190 209 c 1,14,-1
 190 316 l 2,15,16
 190 417 190 417 282 420 c 0,17,18
 371 420 371 420 374 316 c 2,19,-1
 374 209 l 2,20,21
 374 109 374 109 282 105 c 0,12,13
358 601 m 0,22,23
 431 601 431 601 472 665 c 1,24,-1
 420 733 l 1,25,26
 405 720 405 720 391.5 714 c 128,-1,27
 378 708 378 708 361 708 c 0,28,29
 342 708 342 708 325 713.5 c 128,-1,30
 308 719 308 719 289 728 c 2,31,-1
 247 744 l 2,32,33
 229 750 229 750 206 750 c 0,34,35
 133 750 133 750 92 686 c 1,36,-1
 144 618 l 1,37,38
 159 631 159 631 172.5 637 c 128,-1,39
 186 643 186 643 203 643 c 0,40,41
 222 643 222 643 239 637.5 c 128,-1,42
 256 632 256 632 275 623 c 2,43,-1
 317 607 l 2,44,45
 335 601 335 601 358 601 c 0,22,23
EndSplineSet
EndChar

StartChar: odieresis
Encoding: 246 246 181
Width: 564
Flags: W
LayerCount: 2
Fore
SplineSet
282 -12 m 0,0,1
 398 -12 398 -12 463 62.5 c 128,-1,2
 528 137 528 137 528 263 c 256,3,4
 528 389 528 389 463 463 c 128,-1,5
 398 537 398 537 282 537 c 0,6,7
 167 537 167 537 101.5 463 c 128,-1,8
 36 389 36 389 36 263 c 256,9,10
 36 137 36 137 101.5 62.5 c 128,-1,11
 167 -12 167 -12 282 -12 c 0,0,1
282 105 m 0,12,13
 194 105 194 105 190 209 c 1,14,-1
 190 316 l 2,15,16
 190 417 190 417 282 420 c 0,17,18
 371 420 371 420 374 316 c 2,19,-1
 374 209 l 2,20,21
 374 109 374 109 282 105 c 0,12,13
172 600 m 256,22,23
 252 600 252 600 252 663 c 2,24,-1
 252 688 l 2,25,26
 252 751 252 751 172 751 c 256,27,28
 92 751 92 751 92 688 c 2,29,-1
 92 663 l 2,30,31
 92 600 92 600 172 600 c 256,22,23
392 600 m 256,32,33
 472 600 472 600 472 663 c 2,34,-1
 472 688 l 2,35,36
 472 751 472 751 392 751 c 256,37,38
 312 751 312 751 312 688 c 2,39,-1
 312 663 l 2,40,41
 312 600 312 600 392 600 c 256,32,33
EndSplineSet
EndChar

StartChar: divide
Encoding: 247 247 182
Width: 600
Flags: W
LayerCount: 2
Fore
SplineSet
532 247 m 1,0,-1
 532 365 l 1,1,-1
 67 365 l 1,2,-1
 67 247 l 1,3,-1
 532 247 l 1,0,-1
300 28 m 256,4,5
 347 28 347 28 367 48.5 c 128,-1,6
 387 69 387 69 387 97 c 2,7,-1
 387 121 l 2,8,9
 387 149 387 149 367 169.5 c 128,-1,10
 347 190 347 190 300 190 c 256,11,12
 253 190 253 190 233 169.5 c 128,-1,13
 213 149 213 149 213 121 c 2,14,-1
 213 97 l 2,15,16
 213 69 213 69 233 48.5 c 128,-1,17
 253 28 253 28 300 28 c 256,4,5
300 420 m 256,18,19
 347 420 347 420 367 440.5 c 128,-1,20
 387 461 387 461 387 489 c 2,21,-1
 387 513 l 2,22,23
 387 541 387 541 367 561.5 c 128,-1,24
 347 582 347 582 300 582 c 256,25,26
 253 582 253 582 233 561.5 c 128,-1,27
 213 541 213 541 213 513 c 2,28,-1
 213 489 l 2,29,30
 213 461 213 461 233 440.5 c 128,-1,31
 253 420 253 420 300 420 c 256,18,19
EndSplineSet
EndChar

StartChar: oslash
Encoding: 248 248 183
Width: 572
Flags: W
LayerCount: 2
Fore
SplineSet
94 -50 m 1,0,-1
 154 21 l 1,1,2
 210 -12 210 -12 286 -12 c 0,3,4
 402 -12 402 -12 467 62 c 128,-1,5
 532 136 532 136 532 262 c 0,6,7
 532 366 532 366 490 431 c 1,8,-1
 558 515 l 1,9,-1
 478 575 l 1,10,-1
 418 503 l 1,11,12
 361 537 361 537 286 537 c 0,13,14
 171 537 171 537 105.5 463 c 128,-1,15
 40 389 40 389 40 263 c 0,16,17
 40 161 40 161 81 93 c 1,18,-1
 14 10 l 1,19,-1
 94 -50 l 1,0,-1
286 96 m 0,20,21
 247 96 247 96 222 119 c 1,22,-1
 383 312 l 1,23,-1
 383 214 l 2,24,25
 383 160 383 160 357.5 128 c 128,-1,26
 332 96 332 96 286 96 c 0,20,21
189 214 m 1,27,-1
 189 311 l 2,28,29
 189 365 189 365 214.5 397 c 128,-1,30
 240 429 240 429 286 429 c 0,31,32
 324 429 324 429 349 406 c 1,33,-1
 189 214 l 1,27,-1
EndSplineSet
EndChar

StartChar: ugrave
Encoding: 249 249 184
Width: 596
Flags: W
LayerCount: 2
Fore
SplineSet
227 -12 m 0,0,1
 292 -12 292 -12 326.5 17.5 c 128,-1,2
 361 47 361 47 374 88 c 1,3,-1
 379 88 l 1,4,-1
 379 0 l 1,5,-1
 527 0 l 1,6,-1
 527 525 l 1,7,-1
 379 525 l 1,8,-1
 379 184 l 2,9,10
 379 147 379 147 350 127.5 c 128,-1,11
 321 108 321 108 286 108 c 0,12,13
 245 108 245 108 228 134 c 128,-1,14
 211 160 211 160 211 208 c 2,15,-1
 211 525 l 1,16,-1
 63 525 l 1,17,-1
 63 195 l 2,18,19
 63 95 63 95 104.5 41.5 c 128,-1,20
 146 -12 146 -12 227 -12 c 0,0,1
280 579 m 1,21,-1
 368 622 l 1,22,-1
 269 816 l 1,23,-1
 146 755 l 1,24,-1
 280 579 l 1,21,-1
EndSplineSet
EndChar

StartChar: uacute
Encoding: 250 250 185
Width: 596
Flags: W
LayerCount: 2
Fore
SplineSet
227 -12 m 0,0,1
 292 -12 292 -12 326.5 17.5 c 128,-1,2
 361 47 361 47 374 88 c 1,3,-1
 379 88 l 1,4,-1
 379 0 l 1,5,-1
 527 0 l 1,6,-1
 527 525 l 1,7,-1
 379 525 l 1,8,-1
 379 184 l 2,9,10
 379 147 379 147 350 127.5 c 128,-1,11
 321 108 321 108 286 108 c 0,12,13
 245 108 245 108 228 134 c 128,-1,14
 211 160 211 160 211 208 c 2,15,-1
 211 525 l 1,16,-1
 63 525 l 1,17,-1
 63 195 l 2,18,19
 63 95 63 95 104.5 41.5 c 128,-1,20
 146 -12 146 -12 227 -12 c 0,0,1
312 579 m 1,21,-1
 446 755 l 1,22,-1
 323 816 l 1,23,-1
 224 622 l 1,24,-1
 312 579 l 1,21,-1
EndSplineSet
EndChar

StartChar: ucircumflex
Encoding: 251 251 186
Width: 596
Flags: W
LayerCount: 2
Fore
SplineSet
227 -12 m 0,0,1
 292 -12 292 -12 326.5 17.5 c 128,-1,2
 361 47 361 47 374 88 c 1,3,-1
 379 88 l 1,4,-1
 379 0 l 1,5,-1
 527 0 l 1,6,-1
 527 525 l 1,7,-1
 379 525 l 1,8,-1
 379 184 l 2,9,10
 379 147 379 147 350 127.5 c 128,-1,11
 321 108 321 108 286 108 c 0,12,13
 245 108 245 108 228 134 c 128,-1,14
 211 160 211 160 211 208 c 2,15,-1
 211 525 l 1,16,-1
 63 525 l 1,17,-1
 63 195 l 2,18,19
 63 95 63 95 104.5 41.5 c 128,-1,20
 146 -12 146 -12 227 -12 c 0,0,1
417 578 m 1,21,-1
 490 636 l 1,22,-1
 358 795 l 1,23,-1
 234 795 l 1,24,-1
 102 636 l 1,25,-1
 175 578 l 1,26,-1
 296 693 l 1,27,-1
 417 578 l 1,21,-1
EndSplineSet
EndChar

StartChar: udieresis
Encoding: 252 252 187
Width: 596
Flags: W
LayerCount: 2
Fore
SplineSet
227 -12 m 0,0,1
 292 -12 292 -12 326.5 17.5 c 128,-1,2
 361 47 361 47 374 88 c 1,3,-1
 379 88 l 1,4,-1
 379 0 l 1,5,-1
 527 0 l 1,6,-1
 527 525 l 1,7,-1
 379 525 l 1,8,-1
 379 184 l 2,9,10
 379 147 379 147 350 127.5 c 128,-1,11
 321 108 321 108 286 108 c 0,12,13
 245 108 245 108 228 134 c 128,-1,14
 211 160 211 160 211 208 c 2,15,-1
 211 525 l 1,16,-1
 63 525 l 1,17,-1
 63 195 l 2,18,19
 63 95 63 95 104.5 41.5 c 128,-1,20
 146 -12 146 -12 227 -12 c 0,0,1
186 600 m 256,21,22
 266 600 266 600 266 663 c 2,23,-1
 266 688 l 2,24,25
 266 751 266 751 186 751 c 256,26,27
 106 751 106 751 106 688 c 2,28,-1
 106 663 l 2,29,30
 106 600 106 600 186 600 c 256,21,22
406 600 m 256,31,32
 486 600 486 600 486 663 c 2,33,-1
 486 688 l 2,34,35
 486 751 486 751 406 751 c 256,36,37
 326 751 326 751 326 688 c 2,38,-1
 326 663 l 2,39,40
 326 600 326 600 406 600 c 256,31,32
EndSplineSet
EndChar

StartChar: yacute
Encoding: 253 253 188
Width: 534
Flags: W
LayerCount: 2
Fore
SplineSet
165 -200 m 2,0,1
 233 -200 233 -200 270 -171 c 128,-1,2
 307 -142 307 -142 326 -81 c 2,3,-1
 528 525 l 1,4,-1
 390 525 l 1,5,-1
 313 280 l 1,6,-1
 274 128 l 1,7,-1
 268 128 l 1,8,-1
 230 280 l 1,9,-1
 153 525 l 1,10,-1
 6 525 l 1,11,-1
 190 -27 l 1,12,-1
 172 -85 l 1,13,-1
 73 -85 l 1,14,-1
 73 -200 l 1,15,-1
 165 -200 l 2,0,1
288 579 m 1,16,-1
 422 755 l 1,17,-1
 299 816 l 1,18,-1
 200 622 l 1,19,-1
 288 579 l 1,16,-1
EndSplineSet
EndChar

StartChar: thorn
Encoding: 254 254 189
Width: 608
Flags: W
LayerCount: 2
Fore
SplineSet
217 -200 m 1,0,-1
 217 88 l 1,1,-1
 222 88 l 1,2,3
 235 45 235 45 273 16.5 c 128,-1,4
 311 -12 311 -12 363 -12 c 0,5,6
 563 -12 563 -12 565 263 c 0,7,8
 565 397 565 397 514 467 c 128,-1,9
 463 537 463 537 363 537 c 0,10,11
 312 537 312 537 273 509.5 c 128,-1,12
 234 482 234 482 222 437 c 1,13,-1
 217 437 l 1,14,-1
 217 740 l 1,15,-1
 69 740 l 1,16,-1
 69 -200 l 1,17,-1
 217 -200 l 1,0,-1
314 108 m 256,18,19
 272 108 272 108 244.5 128.5 c 128,-1,20
 217 149 217 149 217 185 c 2,21,-1
 217 340 l 2,22,23
 217 376 217 376 244.5 396.5 c 128,-1,24
 272 417 272 417 314 417 c 256,25,26
 356 417 356 417 383.5 387.5 c 128,-1,27
 411 358 411 358 411 308 c 2,28,-1
 411 217 l 2,29,30
 411 167 411 167 383.5 137.5 c 128,-1,31
 356 108 356 108 314 108 c 256,18,19
EndSplineSet
EndChar

StartChar: ydieresis
Encoding: 255 255 190
Width: 534
Flags: W
LayerCount: 2
Fore
SplineSet
165 -200 m 2,0,1
 233 -200 233 -200 270 -171 c 128,-1,2
 307 -142 307 -142 326 -81 c 2,3,-1
 528 525 l 1,4,-1
 390 525 l 1,5,-1
 313 280 l 1,6,-1
 274 128 l 1,7,-1
 268 128 l 1,8,-1
 230 280 l 1,9,-1
 153 525 l 1,10,-1
 6 525 l 1,11,-1
 190 -27 l 1,12,-1
 172 -85 l 1,13,-1
 73 -85 l 1,14,-1
 73 -200 l 1,15,-1
 165 -200 l 2,0,1
162 600 m 256,16,17
 242 600 242 600 242 663 c 2,18,-1
 242 688 l 2,19,20
 242 751 242 751 162 751 c 256,21,22
 82 751 82 751 82 688 c 2,23,-1
 82 663 l 2,24,25
 82 600 82 600 162 600 c 256,16,17
382 600 m 256,26,27
 462 600 462 600 462 663 c 2,28,-1
 462 688 l 2,29,30
 462 751 462 751 382 751 c 256,31,32
 302 751 302 751 302 688 c 2,33,-1
 302 663 l 2,34,35
 302 600 302 600 382 600 c 256,26,27
EndSplineSet
EndChar

StartChar: Amacron
Encoding: 256 256 191
Width: 685
Flags: W
LayerCount: 2
Fore
SplineSet
665 0 m 1,0,-1
 438 698 l 1,1,-1
 250 698 l 1,2,-1
 20 0 l 1,3,-1
 174 0 l 1,4,-1
 224 166 l 1,5,-1
 457 166 l 1,6,-1
 507 0 l 1,7,-1
 665 0 l 1,0,-1
420 295 m 1,8,-1
 260 295 l 1,9,-1
 337 560 l 1,10,-1
 342 560 l 1,11,-1
 420 295 l 1,8,-1
492 785 m 1,12,-1
 492 888 l 1,13,-1
 186 888 l 1,14,-1
 186 785 l 1,15,-1
 492 785 l 1,12,-1
EndSplineSet
EndChar

StartChar: amacron
Encoding: 257 257 192
Width: 553
Flags: W
LayerCount: 2
Fore
SplineSet
422 624 m 1,0,-1
 422 727 l 1,1,-1
 116 727 l 1,2,-1
 116 624 l 1,3,-1
 422 624 l 1,0,-1
197 -12 m 0,4,5
 118 -12 118 -12 76 30 c 128,-1,6
 34 72 34 72 34 141 c 0,7,8
 34 224 34 224 94.5 264.5 c 128,-1,9
 155 305 155 305 259 305 c 2,10,-1
 342 305 l 1,11,-1
 342 338 l 2,12,13
 342 421 342 421 255 421 c 0,14,15
 211 421 211 421 185 402.5 c 128,-1,16
 159 384 159 384 142 359 c 1,17,-1
 54 437 l 1,18,19
 85 485 85 485 134 511 c 128,-1,20
 183 537 183 537 266 537 c 0,21,22
 490 537 490 537 490 345 c 2,23,-1
 490 0 l 1,24,-1
 357 0 l 1,25,-1
 357 92 l 1,26,-1
 351 92 l 1,27,28
 338 41 338 41 297.5 14.5 c 128,-1,29
 257 -12 257 -12 197 -12 c 0,4,5
252 91 m 0,30,31
 289 91 289 91 315.5 107 c 128,-1,32
 342 123 342 123 342 159 c 2,33,-1
 342 221 l 1,34,-1
 270 221 l 2,35,36
 183 221 183 221 183 162 c 2,37,-1
 183 147 l 2,38,39
 183 91 183 91 252 91 c 0,30,31
EndSplineSet
EndChar

StartChar: Abreve
Encoding: 258 258 193
Width: 685
Flags: W
LayerCount: 2
Fore
SplineSet
665 0 m 1,0,-1
 438 698 l 1,1,-1
 250 698 l 1,2,-1
 20 0 l 1,3,-1
 174 0 l 1,4,-1
 224 166 l 1,5,-1
 457 166 l 1,6,-1
 507 0 l 1,7,-1
 665 0 l 1,0,-1
420 295 m 1,8,-1
 260 295 l 1,9,-1
 337 560 l 1,10,-1
 342 560 l 1,11,-1
 420 295 l 1,8,-1
339 740 m 0,12,13
 416 740 416 740 468 798 c 0,14,15
 512 852 512 852 529 910 c 1,16,-1
 449 952 l 1,17,-1
 430 920 l 2,18,19
 409 883 409 883 388 863 c 128,-1,20
 367 843 367 843 339 843 c 256,21,22
 311 843 311 843 290.5 863 c 128,-1,23
 270 883 270 883 249 920 c 2,24,-1
 230 952 l 1,25,-1
 149 910 l 1,26,27
 166 852 166 852 209 798 c 0,28,29
 260 740 260 740 339 740 c 0,12,13
EndSplineSet
EndChar

StartChar: abreve
Encoding: 259 259 194
Width: 553
Flags: W
LayerCount: 2
Fore
SplineSet
269 579 m 0,0,1
 344 579 344 579 397 637 c 0,2,3
 442 691 442 691 459 749 c 1,4,-1
 379 791 l 1,5,-1
 359 758 l 2,6,7
 338 722 338 722 316.5 702 c 128,-1,8
 295 682 295 682 269 682 c 256,9,10
 243 682 243 682 222 702 c 128,-1,11
 201 722 201 722 180 758 c 2,12,-1
 160 791 l 1,13,-1
 79 749 l 1,14,15
 96 691 96 691 139 637 c 0,16,17
 189 579 189 579 269 579 c 0,0,1
197 -12 m 0,18,19
 118 -12 118 -12 76 30 c 128,-1,20
 34 72 34 72 34 141 c 0,21,22
 34 224 34 224 94.5 264.5 c 128,-1,23
 155 305 155 305 259 305 c 2,24,-1
 342 305 l 1,25,-1
 342 338 l 2,26,27
 342 421 342 421 255 421 c 0,28,29
 211 421 211 421 185 402.5 c 128,-1,30
 159 384 159 384 142 359 c 1,31,-1
 54 437 l 1,32,33
 85 485 85 485 134 511 c 128,-1,34
 183 537 183 537 266 537 c 0,35,36
 490 537 490 537 490 345 c 2,37,-1
 490 0 l 1,38,-1
 357 0 l 1,39,-1
 357 92 l 1,40,-1
 351 92 l 1,41,42
 338 41 338 41 297.5 14.5 c 128,-1,43
 257 -12 257 -12 197 -12 c 0,18,19
252 91 m 0,44,45
 289 91 289 91 315.5 107 c 128,-1,46
 342 123 342 123 342 159 c 2,47,-1
 342 221 l 1,48,-1
 270 221 l 2,49,50
 183 221 183 221 183 162 c 2,51,-1
 183 147 l 2,52,53
 183 91 183 91 252 91 c 0,44,45
EndSplineSet
EndChar

StartChar: Aogonek
Encoding: 260 260 195
Width: 685
Flags: W
LayerCount: 2
Fore
SplineSet
575 -212 m 0,0,1
 671 -212 671 -212 697 -161 c 1,2,-1
 644 -110 l 1,3,4
 619 -138 619 -138 589 -138 c 0,5,6
 551 -138 551 -138 551 -105 c 0,7,8
 551 -86 551 -86 572 -65 c 128,-1,9
 593 -44 593 -44 665 0 c 1,10,-1
 438 698 l 1,11,-1
 250 698 l 1,12,-1
 20 0 l 1,13,-1
 174 0 l 1,14,-1
 224 166 l 1,15,-1
 457 166 l 1,16,-1
 507 0 l 1,17,-1
 569 0 l 1,18,-1
 570 -4 l 1,19,20
 513 -29 513 -29 482 -57 c 128,-1,21
 451 -85 451 -85 451 -127 c 0,22,23
 451 -175 451 -175 488.5 -193.5 c 128,-1,24
 526 -212 526 -212 575 -212 c 0,0,1
420 295 m 1,25,-1
 260 295 l 1,26,-1
 337 560 l 1,27,-1
 342 560 l 1,28,-1
 420 295 l 1,25,-1
EndSplineSet
EndChar

StartChar: aogonek
Encoding: 261 261 196
Width: 553
Flags: W
LayerCount: 2
Fore
SplineSet
252 91 m 0,0,1
 289 91 289 91 315.5 107 c 128,-1,2
 342 123 342 123 342 159 c 2,3,-1
 342 221 l 1,4,-1
 270 221 l 2,5,6
 183 221 183 221 183 162 c 2,7,-1
 183 147 l 2,8,9
 183 91 183 91 252 91 c 0,0,1
400 -212 m 0,10,11
 351 -212 351 -212 313.5 -193.5 c 128,-1,12
 276 -175 276 -175 276 -127 c 0,13,14
 276 -85 276 -85 307 -57 c 128,-1,15
 338 -29 338 -29 395 -4 c 1,16,-1
 394 0 l 1,17,-1
 357 0 l 1,18,-1
 357 92 l 1,19,-1
 351 92 l 1,20,21
 338 41 338 41 297.5 14.5 c 128,-1,22
 257 -12 257 -12 197 -12 c 0,23,24
 118 -12 118 -12 76 30 c 128,-1,25
 34 72 34 72 34 141 c 0,26,27
 34 224 34 224 94.5 264.5 c 128,-1,28
 155 305 155 305 259 305 c 2,29,-1
 342 305 l 1,30,-1
 342 338 l 2,31,32
 342 421 342 421 255 421 c 0,33,34
 211 421 211 421 185 402.5 c 128,-1,35
 159 384 159 384 142 359 c 1,36,-1
 54 437 l 1,37,38
 85 485 85 485 134 511 c 128,-1,39
 183 537 183 537 266 537 c 0,40,41
 490 537 490 537 490 345 c 2,42,-1
 490 0 l 1,43,44
 418 -44 418 -44 397 -65 c 128,-1,45
 376 -86 376 -86 376 -105 c 0,46,47
 376 -138 376 -138 414 -138 c 0,48,49
 444 -138 444 -138 469 -110 c 1,50,-1
 522 -161 l 1,51,52
 496 -212 496 -212 400 -212 c 0,10,11
EndSplineSet
EndChar

StartChar: Cacute
Encoding: 262 262 197
Width: 651
Flags: W
LayerCount: 2
Fore
SplineSet
359 -12 m 0,0,1
 456 -12 456 -12 520 31 c 128,-1,2
 584 74 584 74 622 155 c 1,3,-1
 498 227 l 1,4,5
 483 183 483 183 449 153 c 128,-1,6
 415 123 415 123 359 123 c 0,7,8
 292 123 292 123 251.5 166.5 c 128,-1,9
 211 210 211 210 211 293 c 2,10,-1
 211 405 l 2,11,12
 211 488 211 488 251.5 531.5 c 128,-1,13
 292 575 292 575 359 575 c 0,14,15
 416 575 416 575 446 549 c 128,-1,16
 476 523 476 523 489 478 c 1,17,-1
 620 546 l 1,18,19
 582 630 582 630 519 670 c 128,-1,20
 456 710 456 710 359 710 c 0,21,22
 217 710 217 710 133.5 615 c 128,-1,23
 50 520 50 520 50 344 c 0,24,25
 50 171 50 171 133.5 79.5 c 128,-1,26
 217 -12 217 -12 359 -12 c 0,0,1
371 740 m 1,27,-1
 505 916 l 1,28,-1
 382 977 l 1,29,-1
 283 783 l 1,30,-1
 371 740 l 1,27,-1
EndSplineSet
EndChar

StartChar: cacute
Encoding: 263 263 198
Width: 517
Flags: W
LayerCount: 2
Fore
SplineSet
281 -12 m 0,0,1
 442 -12 442 -12 494 133 c 1,2,-1
 379 183 l 1,3,4
 369 150 369 150 347 127 c 128,-1,5
 325 104 325 104 281 104 c 0,6,7
 236 104 236 104 213 133.5 c 128,-1,8
 190 163 190 163 190 213 c 2,9,-1
 190 311 l 2,10,11
 190 361 190 361 213 390.5 c 128,-1,12
 236 420 236 420 281 420 c 0,13,14
 320 420 320 420 342 399.5 c 128,-1,15
 364 379 364 379 371 348 c 1,16,-1
 491 400 l 1,17,18
 442 537 442 537 281 537 c 0,19,20
 163 537 163 537 99.5 463 c 128,-1,21
 36 389 36 389 36 263 c 256,22,23
 36 137 36 137 99.5 62.5 c 128,-1,24
 163 -12 163 -12 281 -12 c 0,0,1
291 579 m 1,25,-1
 425 755 l 1,26,-1
 302 816 l 1,27,-1
 203 622 l 1,28,-1
 291 579 l 1,25,-1
EndSplineSet
EndChar

StartChar: Ccircumflex
Encoding: 264 264 199
Width: 651
Flags: W
LayerCount: 2
Fore
SplineSet
359 -12 m 0,0,1
 456 -12 456 -12 520 31 c 128,-1,2
 584 74 584 74 622 155 c 1,3,-1
 498 227 l 1,4,5
 483 183 483 183 449 153 c 128,-1,6
 415 123 415 123 359 123 c 0,7,8
 292 123 292 123 251.5 166.5 c 128,-1,9
 211 210 211 210 211 293 c 2,10,-1
 211 405 l 2,11,12
 211 488 211 488 251.5 531.5 c 128,-1,13
 292 575 292 575 359 575 c 0,14,15
 416 575 416 575 446 549 c 128,-1,16
 476 523 476 523 489 478 c 1,17,-1
 620 546 l 1,18,19
 582 630 582 630 519 670 c 128,-1,20
 456 710 456 710 359 710 c 0,21,22
 217 710 217 710 133.5 615 c 128,-1,23
 50 520 50 520 50 344 c 0,24,25
 50 171 50 171 133.5 79.5 c 128,-1,26
 217 -12 217 -12 359 -12 c 0,0,1
476 739 m 1,27,-1
 549 797 l 1,28,-1
 417 956 l 1,29,-1
 293 956 l 1,30,-1
 161 797 l 1,31,-1
 234 739 l 1,32,-1
 355 854 l 1,33,-1
 476 739 l 1,27,-1
EndSplineSet
EndChar

StartChar: ccircumflex
Encoding: 265 265 200
Width: 517
Flags: W
LayerCount: 2
Fore
SplineSet
281 -12 m 0,0,1
 442 -12 442 -12 494 133 c 1,2,-1
 379 183 l 1,3,4
 369 150 369 150 347 127 c 128,-1,5
 325 104 325 104 281 104 c 0,6,7
 236 104 236 104 213 133.5 c 128,-1,8
 190 163 190 163 190 213 c 2,9,-1
 190 311 l 2,10,11
 190 361 190 361 213 390.5 c 128,-1,12
 236 420 236 420 281 420 c 0,13,14
 320 420 320 420 342 399.5 c 128,-1,15
 364 379 364 379 371 348 c 1,16,-1
 491 400 l 1,17,18
 442 537 442 537 281 537 c 0,19,20
 163 537 163 537 99.5 463 c 128,-1,21
 36 389 36 389 36 263 c 256,22,23
 36 137 36 137 99.5 62.5 c 128,-1,24
 163 -12 163 -12 281 -12 c 0,0,1
396 578 m 1,25,-1
 469 636 l 1,26,-1
 337 795 l 1,27,-1
 213 795 l 1,28,-1
 81 636 l 1,29,-1
 154 578 l 1,30,-1
 275 693 l 1,31,-1
 396 578 l 1,25,-1
EndSplineSet
EndChar

StartChar: Cdot
Encoding: 266 266 201
Width: 651
Flags: W
LayerCount: 2
Fore
SplineSet
359 -12 m 0,0,1
 456 -12 456 -12 520 31 c 128,-1,2
 584 74 584 74 622 155 c 1,3,-1
 498 227 l 1,4,5
 483 183 483 183 449 153 c 128,-1,6
 415 123 415 123 359 123 c 0,7,8
 292 123 292 123 251.5 166.5 c 128,-1,9
 211 210 211 210 211 293 c 2,10,-1
 211 405 l 2,11,12
 211 488 211 488 251.5 531.5 c 128,-1,13
 292 575 292 575 359 575 c 0,14,15
 416 575 416 575 446 549 c 128,-1,16
 476 523 476 523 489 478 c 1,17,-1
 620 546 l 1,18,19
 582 630 582 630 519 670 c 128,-1,20
 456 710 456 710 359 710 c 0,21,22
 217 710 217 710 133.5 615 c 128,-1,23
 50 520 50 520 50 344 c 0,24,25
 50 171 50 171 133.5 79.5 c 128,-1,26
 217 -12 217 -12 359 -12 c 0,0,1
355 752 m 256,27,28
 444 752 444 752 444 822 c 2,29,-1
 444 851 l 2,30,31
 444 921 444 921 355 921 c 256,32,33
 266 921 266 921 266 851 c 2,34,-1
 266 822 l 2,35,36
 266 752 266 752 355 752 c 256,27,28
EndSplineSet
EndChar

StartChar: cdot
Encoding: 267 267 202
Width: 517
Flags: W
LayerCount: 2
Fore
SplineSet
281 -12 m 0,0,1
 442 -12 442 -12 494 133 c 1,2,-1
 379 183 l 1,3,4
 369 150 369 150 347 127 c 128,-1,5
 325 104 325 104 281 104 c 0,6,7
 236 104 236 104 213 133.5 c 128,-1,8
 190 163 190 163 190 213 c 2,9,-1
 190 311 l 2,10,11
 190 361 190 361 213 390.5 c 128,-1,12
 236 420 236 420 281 420 c 0,13,14
 320 420 320 420 342 399.5 c 128,-1,15
 364 379 364 379 371 348 c 1,16,-1
 491 400 l 1,17,18
 442 537 442 537 281 537 c 0,19,20
 163 537 163 537 99.5 463 c 128,-1,21
 36 389 36 389 36 263 c 256,22,23
 36 137 36 137 99.5 62.5 c 128,-1,24
 163 -12 163 -12 281 -12 c 0,0,1
275 591 m 256,25,26
 364 591 364 591 364 661 c 2,27,-1
 364 690 l 2,28,29
 364 760 364 760 275 760 c 256,30,31
 186 760 186 760 186 690 c 2,32,-1
 186 661 l 2,33,34
 186 591 186 591 275 591 c 256,25,26
EndSplineSet
EndChar

StartChar: Ccaron
Encoding: 268 268 203
Width: 651
Flags: W
LayerCount: 2
Fore
SplineSet
359 -12 m 0,0,1
 456 -12 456 -12 520 31 c 128,-1,2
 584 74 584 74 622 155 c 1,3,-1
 498 227 l 1,4,5
 483 183 483 183 449 153 c 128,-1,6
 415 123 415 123 359 123 c 0,7,8
 292 123 292 123 251.5 166.5 c 128,-1,9
 211 210 211 210 211 293 c 2,10,-1
 211 405 l 2,11,12
 211 488 211 488 251.5 531.5 c 128,-1,13
 292 575 292 575 359 575 c 0,14,15
 416 575 416 575 446 549 c 128,-1,16
 476 523 476 523 489 478 c 1,17,-1
 620 546 l 1,18,19
 582 630 582 630 519 670 c 128,-1,20
 456 710 456 710 359 710 c 0,21,22
 217 710 217 710 133.5 615 c 128,-1,23
 50 520 50 520 50 344 c 0,24,25
 50 171 50 171 133.5 79.5 c 128,-1,26
 217 -12 217 -12 359 -12 c 0,0,1
417 748 m 1,27,-1
 549 907 l 1,28,-1
 476 965 l 1,29,-1
 355 850 l 1,30,-1
 234 965 l 1,31,-1
 161 907 l 1,32,-1
 293 748 l 1,33,-1
 417 748 l 1,27,-1
EndSplineSet
EndChar

StartChar: ccaron
Encoding: 269 269 204
Width: 517
Flags: W
LayerCount: 2
Fore
SplineSet
281 -12 m 0,0,1
 442 -12 442 -12 494 133 c 1,2,-1
 379 183 l 1,3,4
 369 150 369 150 347 127 c 128,-1,5
 325 104 325 104 281 104 c 0,6,7
 236 104 236 104 213 133.5 c 128,-1,8
 190 163 190 163 190 213 c 2,9,-1
 190 311 l 2,10,11
 190 361 190 361 213 390.5 c 128,-1,12
 236 420 236 420 281 420 c 0,13,14
 320 420 320 420 342 399.5 c 128,-1,15
 364 379 364 379 371 348 c 1,16,-1
 491 400 l 1,17,18
 442 537 442 537 281 537 c 0,19,20
 163 537 163 537 99.5 463 c 128,-1,21
 36 389 36 389 36 263 c 256,22,23
 36 137 36 137 99.5 62.5 c 128,-1,24
 163 -12 163 -12 281 -12 c 0,0,1
337 587 m 1,25,-1
 469 746 l 1,26,-1
 396 804 l 1,27,-1
 275 689 l 1,28,-1
 154 804 l 1,29,-1
 81 746 l 1,30,-1
 213 587 l 1,31,-1
 337 587 l 1,25,-1
EndSplineSet
EndChar

StartChar: Dcaron
Encoding: 270 270 205
Width: 697
Flags: W
LayerCount: 2
Fore
SplineSet
340 0 m 2,0,1
 478 0 478 0 563 88 c 0,2,3
 647 179 647 179 647 349 c 0,4,5
 647 520 647 520 563 611 c 0,6,7
 478 698 478 698 340 698 c 2,8,-1
 77 698 l 1,9,-1
 77 0 l 1,10,-1
 340 0 l 2,0,1
340 135 m 2,11,-1
 229 135 l 1,12,-1
 229 563 l 1,13,-1
 340 563 l 2,14,15
 486 563 486 563 486 403 c 2,16,-1
 486 295 l 2,17,18
 486 135 486 135 340 135 c 2,11,-1
385 748 m 1,19,-1
 517 907 l 1,20,-1
 444 965 l 1,21,-1
 323 850 l 1,22,-1
 202 965 l 1,23,-1
 129 907 l 1,24,-1
 261 748 l 1,25,-1
 385 748 l 1,19,-1
EndSplineSet
EndChar

StartChar: dcaron
Encoding: 271 271 206
Width: 682
Flags: W
LayerCount: 2
Fore
SplineSet
245 -12 m 0,0,1
 295 -12 295 -12 336 17 c 0,2,3
 373 45 373 45 386 88 c 1,4,-1
 391 88 l 1,5,-1
 391 0 l 1,6,-1
 539 0 l 1,7,-1
 539 740 l 1,8,-1
 391 740 l 1,9,-1
 391 437 l 1,10,-1
 386 437 l 1,11,12
 374 482 374 482 335 509.5 c 128,-1,13
 296 537 296 537 245 537 c 0,14,15
 46 537 46 537 43 263 c 0,16,17
 43 129 43 129 94 58.5 c 128,-1,18
 145 -12 145 -12 245 -12 c 0,0,1
294 108 m 256,19,20
 252 108 252 108 224.5 137.5 c 128,-1,21
 197 167 197 167 197 217 c 2,22,-1
 197 308 l 2,23,24
 197 358 197 358 224.5 387.5 c 128,-1,25
 252 417 252 417 294 417 c 256,26,27
 336 417 336 417 363.5 396.5 c 128,-1,28
 391 376 391 376 391 340 c 2,29,-1
 391 185 l 2,30,31
 391 149 391 149 363.5 128.5 c 128,-1,32
 336 108 336 108 294 108 c 256,19,20
699 525 m 1,33,-1
 765 740 l 1,34,-1
 608 740 l 1,35,-1
 602 525 l 1,36,-1
 699 525 l 1,33,-1
EndSplineSet
EndChar

StartChar: Dcroat
Encoding: 272 272 207
Width: 702
Flags: W
LayerCount: 2
Fore
SplineSet
345 0 m 2,0,1
 483 0 483 0 568 88 c 0,2,3
 652 179 652 179 652 349 c 0,4,5
 652 520 652 520 568 611 c 0,6,7
 483 698 483 698 345 698 c 2,8,-1
 82 698 l 1,9,-1
 82 411 l 1,10,-1
 7 411 l 1,11,-1
 7 297 l 1,12,-1
 82 297 l 1,13,-1
 82 0 l 1,14,-1
 345 0 l 2,0,1
345 135 m 2,15,-1
 234 135 l 1,16,-1
 234 297 l 1,17,-1
 353 297 l 1,18,-1
 353 411 l 1,19,-1
 234 411 l 1,20,-1
 234 563 l 1,21,-1
 345 563 l 2,22,23
 491 563 491 563 491 403 c 2,24,-1
 491 295 l 2,25,26
 491 135 491 135 345 135 c 2,15,-1
EndSplineSet
EndChar

StartChar: dcroat
Encoding: 273 273 208
Width: 608
Flags: W
LayerCount: 2
Fore
SplineSet
245 -12 m 0,0,1
 295 -12 295 -12 336 17 c 0,2,3
 373 45 373 45 386 88 c 1,4,-1
 391 88 l 1,5,-1
 391 0 l 1,6,-1
 539 0 l 1,7,-1
 539 590 l 1,8,-1
 600 590 l 1,9,-1
 600 690 l 1,10,-1
 539 690 l 1,11,-1
 539 740 l 1,12,-1
 391 740 l 1,13,-1
 391 690 l 1,14,-1
 250 690 l 1,15,-1
 250 590 l 1,16,-1
 391 590 l 1,17,-1
 391 437 l 1,18,-1
 386 437 l 1,19,20
 374 482 374 482 335 509.5 c 128,-1,21
 296 537 296 537 245 537 c 0,22,23
 46 537 46 537 43 263 c 0,24,25
 43 129 43 129 94 58.5 c 128,-1,26
 145 -12 145 -12 245 -12 c 0,0,1
294 108 m 256,27,28
 252 108 252 108 224.5 137.5 c 128,-1,29
 197 167 197 167 197 217 c 2,30,-1
 197 308 l 2,31,32
 197 358 197 358 224.5 387.5 c 128,-1,33
 252 417 252 417 294 417 c 256,34,35
 336 417 336 417 363.5 396.5 c 128,-1,36
 391 376 391 376 391 340 c 2,37,-1
 391 185 l 2,38,39
 391 149 391 149 363.5 128.5 c 128,-1,40
 336 108 336 108 294 108 c 256,27,28
EndSplineSet
EndChar

StartChar: Emacron
Encoding: 274 274 209
Width: 607
Flags: W
LayerCount: 2
Fore
SplineSet
552 0 m 1,0,-1
 552 135 l 1,1,-1
 229 135 l 1,2,-1
 229 286 l 1,3,-1
 506 286 l 1,4,-1
 506 420 l 1,5,-1
 229 420 l 1,6,-1
 229 563 l 1,7,-1
 552 563 l 1,8,-1
 552 698 l 1,9,-1
 77 698 l 1,10,-1
 77 0 l 1,11,-1
 552 0 l 1,0,-1
468 785 m 1,12,-1
 468 888 l 1,13,-1
 162 888 l 1,14,-1
 162 785 l 1,15,-1
 468 785 l 1,12,-1
EndSplineSet
EndChar

StartChar: emacron
Encoding: 275 275 210
Width: 562
Flags: W
LayerCount: 2
Fore
SplineSet
288 -12 m 0,0,1
 432 -12 432 -12 508 75 c 1,2,-1
 434 167 l 1,3,4
 410 140 410 140 380.5 122 c 128,-1,5
 351 104 351 104 305 104 c 0,6,7
 245 104 245 104 217 134.5 c 128,-1,8
 189 165 189 165 189 217 c 2,9,-1
 189 225 l 1,10,-1
 526 225 l 1,11,-1
 526 269 l 2,12,13
 526 384 526 384 470 456 c 0,14,15
 405 537 405 537 282 537 c 0,16,17
 164 537 164 537 100 462.5 c 128,-1,18
 36 388 36 388 36 263 c 0,19,20
 36 137 36 137 102 62.5 c 128,-1,21
 168 -12 168 -12 288 -12 c 0,0,1
373 312 m 1,22,-1
 189 312 l 1,23,-1
 189 320 l 2,24,25
 189 369 189 369 214.5 398.5 c 128,-1,26
 240 428 240 428 285 428 c 256,27,28
 330 428 330 428 351.5 398.5 c 128,-1,29
 373 369 373 369 373 321 c 2,30,-1
 373 312 l 1,22,-1
441 624 m 1,31,-1
 441 727 l 1,32,-1
 135 727 l 1,33,-1
 135 624 l 1,34,-1
 441 624 l 1,31,-1
EndSplineSet
EndChar

StartChar: Ebreve
Encoding: 276 276 211
Width: 607
Flags: W
LayerCount: 2
Fore
SplineSet
552 0 m 1,0,-1
 552 135 l 1,1,-1
 229 135 l 1,2,-1
 229 286 l 1,3,-1
 506 286 l 1,4,-1
 506 420 l 1,5,-1
 229 420 l 1,6,-1
 229 563 l 1,7,-1
 552 563 l 1,8,-1
 552 698 l 1,9,-1
 77 698 l 1,10,-1
 77 0 l 1,11,-1
 552 0 l 1,0,-1
315 740 m 0,12,13
 392 740 392 740 444 798 c 0,14,15
 488 852 488 852 505 910 c 1,16,-1
 425 952 l 1,17,-1
 406 920 l 2,18,19
 385 883 385 883 364 863 c 128,-1,20
 343 843 343 843 315 843 c 256,21,22
 287 843 287 843 266.5 863 c 128,-1,23
 246 883 246 883 225 920 c 2,24,-1
 206 952 l 1,25,-1
 125 910 l 1,26,27
 142 852 142 852 185 798 c 0,28,29
 236 740 236 740 315 740 c 0,12,13
EndSplineSet
EndChar

StartChar: ebreve
Encoding: 277 277 212
Width: 562
Flags: W
LayerCount: 2
Fore
SplineSet
288 -12 m 0,0,1
 432 -12 432 -12 508 75 c 1,2,-1
 434 167 l 1,3,4
 410 140 410 140 380.5 122 c 128,-1,5
 351 104 351 104 305 104 c 0,6,7
 245 104 245 104 217 134.5 c 128,-1,8
 189 165 189 165 189 217 c 2,9,-1
 189 225 l 1,10,-1
 526 225 l 1,11,-1
 526 269 l 2,12,13
 526 384 526 384 470 456 c 0,14,15
 405 537 405 537 282 537 c 0,16,17
 164 537 164 537 100 462.5 c 128,-1,18
 36 388 36 388 36 263 c 0,19,20
 36 137 36 137 102 62.5 c 128,-1,21
 168 -12 168 -12 288 -12 c 0,0,1
373 312 m 1,22,-1
 189 312 l 1,23,-1
 189 320 l 2,24,25
 189 369 189 369 214.5 398.5 c 128,-1,26
 240 428 240 428 285 428 c 256,27,28
 330 428 330 428 351.5 398.5 c 128,-1,29
 373 369 373 369 373 321 c 2,30,-1
 373 312 l 1,22,-1
288 579 m 0,31,32
 363 579 363 579 416 637 c 0,33,34
 461 691 461 691 478 749 c 1,35,-1
 398 791 l 1,36,-1
 378 758 l 2,37,38
 357 722 357 722 335.5 702 c 128,-1,39
 314 682 314 682 288 682 c 256,40,41
 262 682 262 682 241 702 c 128,-1,42
 220 722 220 722 199 758 c 2,43,-1
 179 791 l 1,44,-1
 98 749 l 1,45,46
 115 691 115 691 158 637 c 0,47,48
 208 579 208 579 288 579 c 0,31,32
EndSplineSet
EndChar

StartChar: Edot
Encoding: 278 278 213
Width: 607
Flags: W
LayerCount: 2
Fore
SplineSet
552 0 m 1,0,-1
 552 135 l 1,1,-1
 229 135 l 1,2,-1
 229 286 l 1,3,-1
 506 286 l 1,4,-1
 506 420 l 1,5,-1
 229 420 l 1,6,-1
 229 563 l 1,7,-1
 552 563 l 1,8,-1
 552 698 l 1,9,-1
 77 698 l 1,10,-1
 77 0 l 1,11,-1
 552 0 l 1,0,-1
315 752 m 256,12,13
 404 752 404 752 404 822 c 2,14,-1
 404 851 l 2,15,16
 404 921 404 921 315 921 c 256,17,18
 226 921 226 921 226 851 c 2,19,-1
 226 822 l 2,20,21
 226 752 226 752 315 752 c 256,12,13
EndSplineSet
EndChar

StartChar: edot
Encoding: 279 279 214
Width: 562
Flags: W
LayerCount: 2
Fore
SplineSet
288 -12 m 0,0,1
 432 -12 432 -12 508 75 c 1,2,-1
 434 167 l 1,3,4
 410 140 410 140 380.5 122 c 128,-1,5
 351 104 351 104 305 104 c 0,6,7
 245 104 245 104 217 134.5 c 128,-1,8
 189 165 189 165 189 217 c 2,9,-1
 189 225 l 1,10,-1
 526 225 l 1,11,-1
 526 269 l 2,12,13
 526 384 526 384 470 456 c 0,14,15
 405 537 405 537 282 537 c 0,16,17
 164 537 164 537 100 462.5 c 128,-1,18
 36 388 36 388 36 263 c 0,19,20
 36 137 36 137 102 62.5 c 128,-1,21
 168 -12 168 -12 288 -12 c 0,0,1
373 312 m 1,22,-1
 189 312 l 1,23,-1
 189 320 l 2,24,25
 189 369 189 369 214.5 398.5 c 128,-1,26
 240 428 240 428 285 428 c 256,27,28
 330 428 330 428 351.5 398.5 c 128,-1,29
 373 369 373 369 373 321 c 2,30,-1
 373 312 l 1,22,-1
288 591 m 256,31,32
 377 591 377 591 377 661 c 2,33,-1
 377 690 l 2,34,35
 377 760 377 760 288 760 c 256,36,37
 199 760 199 760 199 690 c 2,38,-1
 199 661 l 2,39,40
 199 591 199 591 288 591 c 256,31,32
EndSplineSet
EndChar

StartChar: Eogonek
Encoding: 280 280 215
Width: 607
Flags: W
LayerCount: 2
Fore
SplineSet
463 -212 m 0,0,1
 559 -212 559 -212 585 -161 c 1,2,-1
 532 -110 l 1,3,4
 507 -138 507 -138 477 -138 c 0,5,6
 439 -138 439 -138 439 -105 c 0,7,8
 439 -86 439 -86 460 -65 c 128,-1,9
 481 -44 481 -44 552 0 c 1,10,-1
 552 135 l 1,11,-1
 229 135 l 1,12,-1
 229 286 l 1,13,-1
 506 286 l 1,14,-1
 506 420 l 1,15,-1
 229 420 l 1,16,-1
 229 563 l 1,17,-1
 552 563 l 1,18,-1
 552 698 l 1,19,-1
 77 698 l 1,20,-1
 77 0 l 1,21,-1
 457 0 l 1,22,-1
 458 -4 l 1,23,24
 401 -29 401 -29 370 -57 c 128,-1,25
 339 -85 339 -85 339 -127 c 0,26,27
 339 -175 339 -175 376.5 -193.5 c 128,-1,28
 414 -212 414 -212 463 -212 c 0,0,1
EndSplineSet
EndChar

StartChar: eogonek
Encoding: 281 281 216
Width: 562
Flags: W
LayerCount: 2
Fore
SplineSet
336 -212 m 0,0,1
 432 -212 432 -212 457 -161 c 1,2,-1
 405 -110 l 1,3,4
 380 -138 380 -138 351 -138 c 0,5,6
 336 -138 336 -138 324.5 -130.5 c 128,-1,7
 313 -123 313 -123 313 -106 c 0,8,9
 313 -83 313 -83 336 -62.5 c 128,-1,10
 359 -42 359 -42 403 -9.5 c 128,-1,11
 447 23 447 23 473 42.5 c 128,-1,12
 499 62 499 62 509 75 c 1,13,-1
 435 167 l 1,14,15
 379 104 379 104 307 104 c 0,16,17
 246 104 246 104 217.5 134.5 c 128,-1,18
 189 165 189 165 189 217 c 2,19,-1
 189 225 l 1,20,-1
 526 225 l 1,21,-1
 526 269 l 2,22,23
 526 384 526 384 470 456 c 0,24,25
 405 537 405 537 282 537 c 0,26,27
 164 537 164 537 100 462.5 c 128,-1,28
 36 388 36 388 36 263 c 0,29,30
 36 137 36 137 100.5 62.5 c 128,-1,31
 165 -12 165 -12 283 -12 c 0,32,33
 301 -12 301 -12 327 -8 c 1,34,-1
 328 -12 l 1,35,36
 276 -34 276 -34 245 -60 c 128,-1,37
 214 -86 214 -86 214 -128 c 0,38,39
 214 -176 214 -176 251 -194 c 128,-1,40
 288 -212 288 -212 336 -212 c 0,0,1
373 312 m 1,41,-1
 189 312 l 1,42,-1
 189 320 l 2,43,44
 189 369 189 369 214.5 398.5 c 128,-1,45
 240 428 240 428 285 428 c 256,46,47
 330 428 330 428 351.5 398.5 c 128,-1,48
 373 369 373 369 373 321 c 2,49,-1
 373 312 l 1,41,-1
EndSplineSet
EndChar

StartChar: Ecaron
Encoding: 282 282 217
Width: 607
Flags: W
LayerCount: 2
Fore
SplineSet
552 0 m 1,0,-1
 552 135 l 1,1,-1
 229 135 l 1,2,-1
 229 286 l 1,3,-1
 506 286 l 1,4,-1
 506 420 l 1,5,-1
 229 420 l 1,6,-1
 229 563 l 1,7,-1
 552 563 l 1,8,-1
 552 698 l 1,9,-1
 77 698 l 1,10,-1
 77 0 l 1,11,-1
 552 0 l 1,0,-1
377 748 m 1,12,-1
 509 907 l 1,13,-1
 436 965 l 1,14,-1
 315 850 l 1,15,-1
 194 965 l 1,16,-1
 121 907 l 1,17,-1
 253 748 l 1,18,-1
 377 748 l 1,12,-1
EndSplineSet
EndChar

StartChar: ecaron
Encoding: 283 283 218
Width: 562
Flags: W
LayerCount: 2
Fore
SplineSet
288 -12 m 0,0,1
 432 -12 432 -12 508 75 c 1,2,-1
 434 167 l 1,3,4
 410 140 410 140 380.5 122 c 128,-1,5
 351 104 351 104 305 104 c 0,6,7
 245 104 245 104 217 134.5 c 128,-1,8
 189 165 189 165 189 217 c 2,9,-1
 189 225 l 1,10,-1
 526 225 l 1,11,-1
 526 269 l 2,12,13
 526 384 526 384 470 456 c 0,14,15
 405 537 405 537 282 537 c 0,16,17
 164 537 164 537 100 462.5 c 128,-1,18
 36 388 36 388 36 263 c 0,19,20
 36 137 36 137 102 62.5 c 128,-1,21
 168 -12 168 -12 288 -12 c 0,0,1
373 312 m 1,22,-1
 189 312 l 1,23,-1
 189 320 l 2,24,25
 189 369 189 369 214.5 398.5 c 128,-1,26
 240 428 240 428 285 428 c 256,27,28
 330 428 330 428 351.5 398.5 c 128,-1,29
 373 369 373 369 373 321 c 2,30,-1
 373 312 l 1,22,-1
350 587 m 1,31,-1
 482 746 l 1,32,-1
 409 804 l 1,33,-1
 288 689 l 1,34,-1
 167 804 l 1,35,-1
 94 746 l 1,36,-1
 226 587 l 1,37,-1
 350 587 l 1,31,-1
EndSplineSet
EndChar

StartChar: Gcircumflex
Encoding: 284 284 219
Width: 719
Flags: W
LayerCount: 2
Fore
SplineSet
336 -12 m 0,0,1
 415 -12 415 -12 460.5 22.5 c 128,-1,2
 506 57 506 57 515 111 c 1,3,-1
 520 111 l 1,4,-1
 520 0 l 1,5,-1
 648 0 l 1,6,-1
 648 389 l 1,7,-1
 373 389 l 1,8,-1
 373 262 l 1,9,-1
 503 262 l 1,10,-1
 503 227 l 2,11,12
 503 178 503 178 462.5 150.5 c 128,-1,13
 422 123 422 123 366 123 c 0,14,15
 295 123 295 123 253 164.5 c 128,-1,16
 211 206 211 206 211 293 c 2,17,-1
 211 405 l 2,18,19
 211 493 211 493 253 534 c 128,-1,20
 295 575 295 575 366 575 c 0,21,22
 476 575 476 575 511 477 c 1,23,-1
 635 548 l 1,24,25
 554 710 554 710 366 710 c 0,26,27
 224 710 224 710 137 616 c 128,-1,28
 50 522 50 522 50 346 c 0,29,30
 50 174 50 174 133 79 c 0,31,32
 216 -12 216 -12 336 -12 c 0,0,1
479 739 m 1,33,-1
 552 797 l 1,34,-1
 420 956 l 1,35,-1
 296 956 l 1,36,-1
 164 797 l 1,37,-1
 237 739 l 1,38,-1
 358 854 l 1,39,-1
 479 739 l 1,33,-1
EndSplineSet
EndChar

StartChar: Gbreve
Encoding: 286 286 221
Width: 719
Flags: W
LayerCount: 2
Fore
SplineSet
336 -12 m 0,0,1
 415 -12 415 -12 460.5 22.5 c 128,-1,2
 506 57 506 57 515 111 c 1,3,-1
 520 111 l 1,4,-1
 520 0 l 1,5,-1
 648 0 l 1,6,-1
 648 389 l 1,7,-1
 373 389 l 1,8,-1
 373 262 l 1,9,-1
 503 262 l 1,10,-1
 503 227 l 2,11,12
 503 178 503 178 462.5 150.5 c 128,-1,13
 422 123 422 123 366 123 c 0,14,15
 295 123 295 123 253 164.5 c 128,-1,16
 211 206 211 206 211 293 c 2,17,-1
 211 405 l 2,18,19
 211 493 211 493 253 534 c 128,-1,20
 295 575 295 575 366 575 c 0,21,22
 476 575 476 575 511 477 c 1,23,-1
 635 548 l 1,24,25
 554 710 554 710 366 710 c 0,26,27
 224 710 224 710 137 616 c 128,-1,28
 50 522 50 522 50 346 c 0,29,30
 50 174 50 174 133 79 c 0,31,32
 216 -12 216 -12 336 -12 c 0,0,1
358 740 m 0,33,34
 435 740 435 740 487 798 c 0,35,36
 531 852 531 852 548 910 c 1,37,-1
 468 952 l 1,38,-1
 449 920 l 2,39,40
 428 883 428 883 407 863 c 128,-1,41
 386 843 386 843 358 843 c 256,42,43
 330 843 330 843 309.5 863 c 128,-1,44
 289 883 289 883 268 920 c 2,45,-1
 249 952 l 1,46,-1
 168 910 l 1,47,48
 185 852 185 852 228 798 c 0,49,50
 279 740 279 740 358 740 c 0,33,34
EndSplineSet
EndChar

StartChar: Gdot
Encoding: 288 288 223
Width: 719
Flags: W
LayerCount: 2
Fore
SplineSet
336 -12 m 0,0,1
 415 -12 415 -12 460.5 22.5 c 128,-1,2
 506 57 506 57 515 111 c 1,3,-1
 520 111 l 1,4,-1
 520 0 l 1,5,-1
 648 0 l 1,6,-1
 648 389 l 1,7,-1
 373 389 l 1,8,-1
 373 262 l 1,9,-1
 503 262 l 1,10,-1
 503 227 l 2,11,12
 503 178 503 178 462.5 150.5 c 128,-1,13
 422 123 422 123 366 123 c 0,14,15
 295 123 295 123 253 164.5 c 128,-1,16
 211 206 211 206 211 293 c 2,17,-1
 211 405 l 2,18,19
 211 493 211 493 253 534 c 128,-1,20
 295 575 295 575 366 575 c 0,21,22
 476 575 476 575 511 477 c 1,23,-1
 635 548 l 1,24,25
 554 710 554 710 366 710 c 0,26,27
 224 710 224 710 137 616 c 128,-1,28
 50 522 50 522 50 346 c 0,29,30
 50 174 50 174 133 79 c 0,31,32
 216 -12 216 -12 336 -12 c 0,0,1
358 752 m 256,33,34
 447 752 447 752 447 822 c 2,35,-1
 447 851 l 2,36,37
 447 921 447 921 358 921 c 256,38,39
 269 921 269 921 269 851 c 2,40,-1
 269 822 l 2,41,42
 269 752 269 752 358 752 c 256,33,34
EndSplineSet
EndChar

StartChar: Gcedilla
Encoding: 290 290 225
Width: 719
Flags: W
LayerCount: 2
Fore
SplineSet
336 -12 m 0,0,1
 415 -12 415 -12 460.5 22.5 c 128,-1,2
 506 57 506 57 515 111 c 1,3,-1
 520 111 l 1,4,-1
 520 0 l 1,5,-1
 648 0 l 1,6,-1
 648 389 l 1,7,-1
 373 389 l 1,8,-1
 373 262 l 1,9,-1
 503 262 l 1,10,-1
 503 227 l 2,11,12
 503 178 503 178 462.5 150.5 c 128,-1,13
 422 123 422 123 366 123 c 0,14,15
 295 123 295 123 253 164.5 c 128,-1,16
 211 206 211 206 211 293 c 2,17,-1
 211 405 l 2,18,19
 211 493 211 493 253 534 c 128,-1,20
 295 575 295 575 366 575 c 0,21,22
 476 575 476 575 511 477 c 1,23,-1
 635 548 l 1,24,25
 554 710 554 710 366 710 c 0,26,27
 224 710 224 710 137 616 c 128,-1,28
 50 522 50 522 50 346 c 0,29,30
 50 174 50 174 133 79 c 0,31,32
 216 -12 216 -12 336 -12 c 0,0,1
351 -275 m 1,33,34
 381 -249 381 -249 399.5 -206.5 c 128,-1,35
 418 -164 418 -164 418 -118 c 2,36,-1
 418 -104 l 2,37,38
 418 -44 418 -44 348 -42 c 0,39,40
 282 -42 282 -42 278 -104 c 1,41,-1
 278 -115 l 2,42,43
 278 -171 278 -171 328 -176 c 1,44,45
 315 -234 315 -234 266 -275 c 1,46,-1
 351 -275 l 1,33,34
EndSplineSet
EndChar

StartChar: Hcircumflex
Encoding: 292 292 227
Width: 724
Flags: W
LayerCount: 2
Fore
SplineSet
647 0 m 1,0,-1
 647 698 l 1,1,-1
 495 698 l 1,2,-1
 495 420 l 1,3,-1
 229 420 l 1,4,-1
 229 698 l 1,5,-1
 77 698 l 1,6,-1
 77 0 l 1,7,-1
 229 0 l 1,8,-1
 229 286 l 1,9,-1
 495 286 l 1,10,-1
 495 0 l 1,11,-1
 647 0 l 1,0,-1
483 739 m 1,12,-1
 556 797 l 1,13,-1
 424 956 l 1,14,-1
 300 956 l 1,15,-1
 168 797 l 1,16,-1
 241 739 l 1,17,-1
 362 854 l 1,18,-1
 483 739 l 1,12,-1
EndSplineSet
EndChar

StartChar: hcircumflex
Encoding: 293 293 228
Width: 596
Flags: W
LayerCount: 2
Fore
SplineSet
533 0 m 1,0,-1
 533 329 l 2,1,2
 533 429 533 429 491.5 483 c 128,-1,3
 450 537 450 537 369 537 c 0,4,5
 307 537 307 537 272 507.5 c 128,-1,6
 237 478 237 478 223 436 c 1,7,-1
 217 436 l 1,8,-1
 217 740 l 1,9,-1
 69 740 l 1,10,-1
 69 0 l 1,11,-1
 217 0 l 1,12,-1
 217 340 l 2,13,14
 217 378 217 378 246.5 397.5 c 128,-1,15
 276 417 276 417 312 417 c 0,16,17
 353 417 353 417 369 392.5 c 128,-1,18
 385 368 385 368 385 317 c 2,19,-1
 385 0 l 1,20,-1
 533 0 l 1,0,-1
265 736 m 1,21,-1
 338 794 l 1,22,-1
 206 953 l 1,23,-1
 82 953 l 1,24,-1
 -50 794 l 1,25,-1
 23 736 l 1,26,-1
 144 851 l 1,27,-1
 265 736 l 1,21,-1
EndSplineSet
EndChar

StartChar: Hbar
Encoding: 294 294 229
Width: 734
Flags: W
LayerCount: 2
Fore
SplineSet
652 0 m 1,0,-1
 652 506 l 1,1,-1
 726 506 l 1,2,-1
 726 620 l 1,3,-1
 652 620 l 1,4,-1
 652 698 l 1,5,-1
 500 698 l 1,6,-1
 500 620 l 1,7,-1
 234 620 l 1,8,-1
 234 698 l 1,9,-1
 82 698 l 1,10,-1
 82 620 l 1,11,-1
 8 620 l 1,12,-1
 8 506 l 1,13,-1
 82 506 l 1,14,-1
 82 0 l 1,15,-1
 234 0 l 1,16,-1
 234 286 l 1,17,-1
 500 286 l 1,18,-1
 500 0 l 1,19,-1
 652 0 l 1,0,-1
500 420 m 1,20,-1
 234 420 l 1,21,-1
 234 506 l 1,22,-1
 500 506 l 1,23,-1
 500 420 l 1,20,-1
EndSplineSet
EndChar

StartChar: hbar
Encoding: 295 295 230
Width: 596
Flags: W
LayerCount: 2
Fore
SplineSet
533 0 m 1,0,-1
 533 329 l 2,1,2
 533 429 533 429 491.5 483 c 128,-1,3
 450 537 450 537 369 537 c 0,4,5
 307 537 307 537 272 507.5 c 128,-1,6
 237 478 237 478 223 436 c 1,7,-1
 217 436 l 1,8,-1
 217 590 l 1,9,-1
 357 590 l 1,10,-1
 357 690 l 1,11,-1
 217 690 l 1,12,-1
 217 740 l 1,13,-1
 69 740 l 1,14,-1
 69 690 l 1,15,-1
 7 690 l 1,16,-1
 7 590 l 1,17,-1
 69 590 l 1,18,-1
 69 0 l 1,19,-1
 217 0 l 1,20,-1
 217 340 l 2,21,22
 217 378 217 378 246.5 397.5 c 128,-1,23
 276 417 276 417 312 417 c 0,24,25
 353 417 353 417 369 392.5 c 128,-1,26
 385 368 385 368 385 317 c 2,27,-1
 385 0 l 1,28,-1
 533 0 l 1,0,-1
EndSplineSet
EndChar

StartChar: Itilde
Encoding: 296 296 231
Width: 306
Flags: W
LayerCount: 2
Fore
SplineSet
230 762 m 0,0,1
 303 762 303 762 344 826 c 1,2,-1
 292 894 l 1,3,4
 277 881 277 881 263.5 875 c 128,-1,5
 250 869 250 869 233 869 c 0,6,7
 214 869 214 869 197 874.5 c 128,-1,8
 180 880 180 880 161 889 c 2,9,-1
 119 905 l 2,10,11
 101 911 101 911 78 911 c 0,12,13
 5 911 5 911 -36 847 c 1,14,-1
 16 779 l 1,15,16
 31 792 31 792 44.5 798 c 128,-1,17
 58 804 58 804 75 804 c 0,18,19
 94 804 94 804 111 798.5 c 128,-1,20
 128 793 128 793 147 784 c 2,21,-1
 189 768 l 2,22,23
 207 762 207 762 230 762 c 0,0,1
229 0 m 1,24,-1
 77 0 l 1,25,-1
 77 698 l 1,26,-1
 229 698 l 1,27,-1
 229 0 l 1,24,-1
EndSplineSet
EndChar

StartChar: itilde
Encoding: 297 297 232
Width: 286
Flags: W
LayerCount: 2
Fore
SplineSet
217 0 m 1,0,-1
 217 525 l 1,1,-1
 69 525 l 1,2,-1
 69 0 l 1,3,-1
 217 0 l 1,0,-1
220 601 m 0,4,5
 293 601 293 601 334 665 c 1,6,-1
 282 733 l 1,7,8
 267 720 267 720 253.5 714 c 128,-1,9
 240 708 240 708 223 708 c 0,10,11
 204 708 204 708 187 713.5 c 128,-1,12
 170 719 170 719 151 728 c 2,13,-1
 109 744 l 2,14,15
 91 750 91 750 68 750 c 0,16,17
 -5 750 -5 750 -46 686 c 1,18,-1
 6 618 l 1,19,20
 21 631 21 631 34.5 637 c 128,-1,21
 48 643 48 643 65 643 c 0,22,23
 84 643 84 643 101 637.5 c 128,-1,24
 118 632 118 632 137 623 c 2,25,-1
 179 607 l 2,26,27
 197 601 197 601 220 601 c 0,4,5
EndSplineSet
EndChar

StartChar: Imacron
Encoding: 298 298 233
Width: 306
Flags: W
LayerCount: 2
Fore
SplineSet
307 785 m 1,0,-1
 307 888 l 1,1,-1
 1 888 l 1,2,-1
 1 785 l 1,3,-1
 307 785 l 1,0,-1
229 0 m 1,4,-1
 77 0 l 1,5,-1
 77 698 l 1,6,-1
 229 698 l 1,7,-1
 229 0 l 1,4,-1
EndSplineSet
EndChar

StartChar: imacron
Encoding: 299 299 234
Width: 286
Flags: W
LayerCount: 2
Fore
SplineSet
217 0 m 1,0,-1
 217 525 l 1,1,-1
 69 525 l 1,2,-1
 69 0 l 1,3,-1
 217 0 l 1,0,-1
297 624 m 1,4,-1
 297 727 l 1,5,-1
 -9 727 l 1,6,-1
 -9 624 l 1,7,-1
 297 624 l 1,4,-1
EndSplineSet
EndChar

StartChar: Ibreve
Encoding: 300 300 235
Width: 306
Flags: W
LayerCount: 2
Fore
SplineSet
154 740 m 0,0,1
 231 740 231 740 283 798 c 0,2,3
 327 852 327 852 344 910 c 1,4,-1
 264 952 l 1,5,-1
 245 920 l 2,6,7
 224 883 224 883 203 863 c 128,-1,8
 182 843 182 843 154 843 c 256,9,10
 126 843 126 843 105.5 863 c 128,-1,11
 85 883 85 883 64 920 c 2,12,-1
 45 952 l 1,13,-1
 -36 910 l 1,14,15
 -19 852 -19 852 24 798 c 0,16,17
 75 740 75 740 154 740 c 0,0,1
229 0 m 1,18,-1
 77 0 l 1,19,-1
 77 698 l 1,20,-1
 229 698 l 1,21,-1
 229 0 l 1,18,-1
EndSplineSet
EndChar

StartChar: ibreve
Encoding: 301 301 236
Width: 286
Flags: W
LayerCount: 2
Fore
SplineSet
217 0 m 1,0,-1
 217 525 l 1,1,-1
 69 525 l 1,2,-1
 69 0 l 1,3,-1
 217 0 l 1,0,-1
144 579 m 0,4,5
 219 579 219 579 272 637 c 0,6,7
 317 691 317 691 334 749 c 1,8,-1
 254 791 l 1,9,-1
 234 758 l 2,10,11
 213 722 213 722 191.5 702 c 128,-1,12
 170 682 170 682 144 682 c 256,13,14
 118 682 118 682 97 702 c 128,-1,15
 76 722 76 722 55 758 c 2,16,-1
 35 791 l 1,17,-1
 -46 749 l 1,18,19
 -29 691 -29 691 14 637 c 0,20,21
 64 579 64 579 144 579 c 0,4,5
EndSplineSet
EndChar

StartChar: Iogonek
Encoding: 302 302 237
Width: 306
Flags: W
LayerCount: 2
Fore
SplineSet
139 -212 m 0,0,1
 235 -212 235 -212 261 -161 c 1,2,-1
 208 -110 l 1,3,4
 183 -138 183 -138 153 -138 c 0,5,6
 115 -138 115 -138 115 -105 c 0,7,8
 115 -86 115 -86 136 -65 c 128,-1,9
 157 -44 157 -44 229 0 c 1,10,-1
 229 698 l 1,11,-1
 77 698 l 1,12,-1
 77 0 l 1,13,-1
 133 0 l 1,14,-1
 134 -4 l 1,15,16
 77 -29 77 -29 46 -57 c 128,-1,17
 15 -85 15 -85 15 -127 c 0,18,19
 15 -175 15 -175 52.5 -193.5 c 128,-1,20
 90 -212 90 -212 139 -212 c 0,0,1
EndSplineSet
EndChar

StartChar: iogonek
Encoding: 303 303 238
Width: 286
Flags: W
LayerCount: 2
Fore
SplineSet
127 -212 m 0,0,1
 223 -212 223 -212 249 -161 c 1,2,-1
 196 -110 l 1,3,4
 171 -138 171 -138 141 -138 c 0,5,6
 103 -138 103 -138 103 -105 c 0,7,8
 103 -86 103 -86 124 -65 c 128,-1,9
 145 -44 145 -44 217 0 c 1,10,-1
 217 525 l 1,11,-1
 69 525 l 1,12,-1
 69 0 l 1,13,-1
 121 0 l 1,14,-1
 122 -4 l 1,15,16
 65 -29 65 -29 34 -57 c 128,-1,17
 3 -85 3 -85 3 -127 c 0,18,19
 3 -175 3 -175 40.5 -193.5 c 128,-1,20
 78 -212 78 -212 127 -212 c 0,0,1
143 581 m 256,21,22
 188 581 188 581 208.5 601.5 c 128,-1,23
 229 622 229 622 229 654 c 2,24,-1
 229 676 l 2,25,26
 229 708 229 708 208.5 728.5 c 128,-1,27
 188 749 188 749 143 749 c 256,28,29
 98 749 98 749 77.5 728.5 c 128,-1,30
 57 708 57 708 57 676 c 2,31,-1
 57 654 l 2,32,33
 57 622 57 622 77.5 601.5 c 128,-1,34
 98 581 98 581 143 581 c 256,21,22
EndSplineSet
EndChar

StartChar: Idot
Encoding: 304 304 239
Width: 306
Flags: W
LayerCount: 2
Fore
SplineSet
154 752 m 256,0,1
 243 752 243 752 243 822 c 2,2,-1
 243 851 l 2,3,4
 243 921 243 921 154 921 c 256,5,6
 65 921 65 921 65 851 c 2,7,-1
 65 822 l 2,8,9
 65 752 65 752 154 752 c 256,0,1
229 0 m 1,10,-1
 77 0 l 1,11,-1
 77 698 l 1,12,-1
 229 698 l 1,13,-1
 229 0 l 1,10,-1
EndSplineSet
EndChar

StartChar: dotlessi
Encoding: 305 305 240
Width: 286
Flags: W
LayerCount: 2
Fore
SplineSet
217 0 m 1,0,-1
 217 525 l 1,1,-1
 69 525 l 1,2,-1
 69 0 l 1,3,-1
 217 0 l 1,0,-1
EndSplineSet
EndChar

StartChar: ij
Encoding: 307 307 242
Width: 566
Flags: W
LayerCount: 2
Fore
SplineSet
143 581 m 256,0,1
 188 581 188 581 208.5 601.5 c 128,-1,2
 229 622 229 622 229 654 c 2,3,-1
 229 676 l 2,4,5
 229 708 229 708 208.5 728.5 c 128,-1,6
 188 749 188 749 143 749 c 256,7,8
 98 749 98 749 77.5 728.5 c 128,-1,9
 57 708 57 708 57 676 c 2,10,-1
 57 654 l 2,11,12
 57 622 57 622 77.5 601.5 c 128,-1,13
 98 581 98 581 143 581 c 256,0,1
217 0 m 1,14,-1
 217 525 l 1,15,-1
 69 525 l 1,16,-1
 69 0 l 1,17,-1
 217 0 l 1,14,-1
349 -200 m 2,18,19
 427 -200 427 -200 462 -163 c 128,-1,20
 497 -126 497 -126 497 -56 c 2,21,-1
 497 525 l 1,22,-1
 349 525 l 1,23,-1
 349 -85 l 1,24,-1
 271 -85 l 1,25,-1
 271 -200 l 1,26,-1
 349 -200 l 2,18,19
423 581 m 256,27,28
 468 581 468 581 488.5 601.5 c 128,-1,29
 509 622 509 622 509 654 c 2,30,-1
 509 676 l 2,31,32
 509 708 509 708 488.5 728.5 c 128,-1,33
 468 749 468 749 423 749 c 256,34,35
 378 749 378 749 357.5 728.5 c 128,-1,36
 337 708 337 708 337 676 c 2,37,-1
 337 654 l 2,38,39
 337 622 337 622 357.5 601.5 c 128,-1,40
 378 581 378 581 423 581 c 256,27,28
EndSplineSet
EndChar

StartChar: Jcircumflex
Encoding: 308 308 243
Width: 559
Flags: W
LayerCount: 2
Fore
SplineSet
256 -11 m 0,0,1
 153 -11 153 -11 97 43 c 0,2,3
 39 96 39 96 25 185 c 1,4,-1
 167 213 l 1,5,6
 184 122 184 122 254 122 c 0,7,8
 287 122 287 122 310.5 143 c 128,-1,9
 334 164 334 164 334 209 c 2,10,-1
 334 698 l 1,11,-1
 486 698 l 1,12,-1
 486 202 l 2,13,14
 486 106 486 106 425 47.5 c 128,-1,15
 364 -11 364 -11 256 -11 c 0,0,1
424 739 m 1,16,-1
 303 854 l 1,17,-1
 182 739 l 1,18,-1
 109 797 l 1,19,-1
 241 956 l 1,20,-1
 365 956 l 1,21,-1
 497 797 l 1,22,-1
 424 739 l 1,16,-1
EndSplineSet
EndChar

StartChar: jcircumflex
Encoding: 309 309 244
Width: 286
Flags: W
LayerCount: 2
Fore
SplineSet
69 -200 m 2,0,1
 147 -200 147 -200 182 -163 c 128,-1,2
 217 -126 217 -126 217 -56 c 2,3,-1
 217 525 l 1,4,-1
 69 525 l 1,5,-1
 69 -85 l 1,6,-1
 -9 -85 l 1,7,-1
 -9 -200 l 1,8,-1
 69 -200 l 2,0,1
265 578 m 1,9,-1
 338 636 l 1,10,-1
 206 795 l 1,11,-1
 82 795 l 1,12,-1
 -50 636 l 1,13,-1
 23 578 l 1,14,-1
 144 693 l 1,15,-1
 265 578 l 1,9,-1
EndSplineSet
EndChar

StartChar: Kcedilla
Encoding: 310 310 245
Width: 696
Flags: W
LayerCount: 2
Fore
SplineSet
684 0 m 1,0,-1
 428 411 l 1,1,-1
 663 698 l 1,2,-1
 491 698 l 1,3,-1
 334 501 l 1,4,-1
 235 366 l 1,5,-1
 229 366 l 1,6,-1
 229 698 l 1,7,-1
 77 698 l 1,8,-1
 77 0 l 1,9,-1
 229 0 l 1,10,-1
 229 194 l 1,11,-1
 320 304 l 1,12,-1
 505 0 l 1,13,-1
 684 0 l 1,0,-1
367 -275 m 1,14,15
 397 -249 397 -249 415.5 -206.5 c 128,-1,16
 434 -164 434 -164 434 -118 c 2,17,-1
 434 -104 l 2,18,19
 434 -44 434 -44 364 -42 c 0,20,21
 298 -42 298 -42 294 -104 c 1,22,-1
 294 -115 l 2,23,24
 294 -171 294 -171 344 -176 c 1,25,26
 331 -234 331 -234 282 -275 c 1,27,-1
 367 -275 l 1,14,15
EndSplineSet
EndChar

StartChar: kcedilla
Encoding: 311 311 246
Width: 577
Flags: W
LayerCount: 2
Fore
SplineSet
577 0 m 1,0,-1
 382 324 l 1,1,-1
 557 525 l 1,2,-1
 393 525 l 1,3,-1
 288 400 l 1,4,-1
 223 303 l 1,5,-1
 217 303 l 1,6,-1
 217 740 l 1,7,-1
 69 740 l 1,8,-1
 69 0 l 1,9,-1
 217 0 l 1,10,-1
 217 148 l 1,11,-1
 283 222 l 1,12,-1
 401 0 l 1,13,-1
 577 0 l 1,0,-1
326 -275 m 1,14,15
 356 -249 356 -249 374.5 -206.5 c 128,-1,16
 393 -164 393 -164 393 -118 c 2,17,-1
 393 -104 l 2,18,19
 393 -44 393 -44 323 -42 c 0,20,21
 257 -42 257 -42 253 -104 c 1,22,-1
 253 -115 l 2,23,24
 253 -171 253 -171 303 -176 c 1,25,26
 290 -234 290 -234 241 -275 c 1,27,-1
 326 -275 l 1,14,15
EndSplineSet
EndChar

StartChar: kgreenlandic
Encoding: 312 312 247
Width: 577
Flags: W
LayerCount: 2
Fore
SplineSet
577 0 m 1,0,-1
 385 320 l 1,1,-1
 571 525 l 1,2,-1
 405 525 l 1,3,-1
 292 396 l 1,4,-1
 223 303 l 1,5,-1
 217 303 l 1,6,-1
 217 525 l 1,7,-1
 69 525 l 1,8,-1
 69 0 l 1,9,-1
 217 0 l 1,10,-1
 217 148 l 1,11,-1
 282 219 l 1,12,-1
 404 0 l 1,13,-1
 577 0 l 1,0,-1
EndSplineSet
EndChar

StartChar: Lacute
Encoding: 313 313 248
Width: 530
Flags: W
LayerCount: 2
Fore
SplineSet
495 0 m 1,0,-1
 495 135 l 1,1,-1
 229 135 l 1,2,-1
 229 698 l 1,3,-1
 77 698 l 1,4,-1
 77 0 l 1,5,-1
 495 0 l 1,0,-1
170 740 m 1,6,-1
 304 916 l 1,7,-1
 181 977 l 1,8,-1
 82 783 l 1,9,-1
 170 740 l 1,6,-1
EndSplineSet
EndChar

StartChar: lacute
Encoding: 314 314 249
Width: 303
Flags: W
LayerCount: 2
Fore
SplineSet
160 779 m 1,0,-1
 294 955 l 1,1,-1
 171 1016 l 1,2,-1
 72 822 l 1,3,-1
 160 779 l 1,0,-1
283 0 m 1,4,-1
 283 115 l 1,5,-1
 217 115 l 1,6,-1
 217 740 l 1,7,-1
 69 740 l 1,8,-1
 69 144 l 2,9,10
 69 0 69 0 216 0 c 2,11,-1
 283 0 l 1,4,-1
EndSplineSet
EndChar

StartChar: Lcedilla
Encoding: 315 315 250
Width: 530
Flags: W
LayerCount: 2
Fore
SplineSet
495 0 m 1,0,-1
 495 135 l 1,1,-1
 229 135 l 1,2,-1
 229 698 l 1,3,-1
 77 698 l 1,4,-1
 77 0 l 1,5,-1
 495 0 l 1,0,-1
288 -275 m 1,6,7
 318 -249 318 -249 336.5 -206.5 c 128,-1,8
 355 -164 355 -164 355 -118 c 2,9,-1
 355 -104 l 2,10,11
 355 -44 355 -44 285 -42 c 0,12,13
 219 -42 219 -42 215 -104 c 1,14,-1
 215 -115 l 2,15,16
 215 -171 215 -171 265 -176 c 1,17,18
 252 -234 252 -234 203 -275 c 1,19,-1
 288 -275 l 1,6,7
EndSplineSet
EndChar

StartChar: lcedilla
Encoding: 316 316 251
Width: 303
Flags: W
LayerCount: 2
Fore
SplineSet
283 0 m 1,0,-1
 283 115 l 1,1,-1
 217 115 l 1,2,-1
 217 740 l 1,3,-1
 69 740 l 1,4,-1
 69 144 l 2,5,6
 69 0 69 0 216 0 c 2,7,-1
 283 0 l 1,0,-1
177 -275 m 1,8,9
 207 -249 207 -249 225.5 -206.5 c 128,-1,10
 244 -164 244 -164 244 -118 c 2,11,-1
 244 -104 l 2,12,13
 244 -44 244 -44 174 -42 c 0,14,15
 108 -42 108 -42 104 -104 c 1,16,-1
 104 -115 l 2,17,18
 104 -171 104 -171 154 -176 c 1,19,20
 141 -234 141 -234 92 -275 c 1,21,-1
 177 -275 l 1,8,9
EndSplineSet
EndChar

StartChar: Lcaron
Encoding: 317 317 252
Width: 530
Flags: W
LayerCount: 2
Fore
SplineSet
495 0 m 1,0,-1
 495 135 l 1,1,-1
 229 135 l 1,2,-1
 229 698 l 1,3,-1
 77 698 l 1,4,-1
 77 0 l 1,5,-1
 495 0 l 1,0,-1
398 525 m 1,6,-1
 464 740 l 1,7,-1
 307 740 l 1,8,-1
 301 525 l 1,9,-1
 398 525 l 1,6,-1
EndSplineSet
EndChar

StartChar: lcaron
Encoding: 318 318 253
Width: 360
Flags: W
LayerCount: 2
Fore
SplineSet
377 525 m 1,0,-1
 443 740 l 1,1,-1
 286 740 l 1,2,-1
 280 525 l 1,3,-1
 377 525 l 1,0,-1
283 0 m 1,4,-1
 283 115 l 1,5,-1
 217 115 l 1,6,-1
 217 740 l 1,7,-1
 69 740 l 1,8,-1
 69 144 l 2,9,10
 69 0 69 0 216 0 c 2,11,-1
 283 0 l 1,4,-1
EndSplineSet
EndChar

StartChar: Ldot
Encoding: 319 319 254
Width: 530
Flags: W
LayerCount: 2
Fore
SplineSet
495 0 m 1,0,-1
 495 135 l 1,1,-1
 229 135 l 1,2,-1
 229 698 l 1,3,-1
 77 698 l 1,4,-1
 77 0 l 1,5,-1
 495 0 l 1,0,-1
414 322 m 256,6,7
 503 322 503 322 503 392 c 2,8,-1
 503 421 l 2,9,10
 503 491 503 491 414 491 c 256,11,12
 325 491 325 491 325 421 c 2,13,-1
 325 392 l 2,14,15
 325 322 325 322 414 322 c 256,6,7
EndSplineSet
EndChar

StartChar: ldot
Encoding: 320 320 255
Width: 448
Flags: W
LayerCount: 2
Fore
SplineSet
283 0 m 1,0,-1
 283 115 l 1,1,-1
 217 115 l 1,2,-1
 217 740 l 1,3,-1
 69 740 l 1,4,-1
 69 144 l 2,5,6
 69 0 69 0 216 0 c 2,7,-1
 283 0 l 1,0,-1
363 274 m 256,8,9
 452 274 452 274 452 344 c 2,10,-1
 452 373 l 2,11,12
 452 443 452 443 363 443 c 256,13,14
 274 443 274 443 274 373 c 2,15,-1
 274 344 l 2,16,17
 274 274 274 274 363 274 c 256,8,9
EndSplineSet
EndChar

StartChar: Lslash
Encoding: 321 321 256
Width: 540
Flags: W
LayerCount: 2
Fore
SplineSet
500 0 m 1,0,-1
 500 135 l 1,1,-1
 234 135 l 1,2,-1
 234 291 l 1,3,-1
 392 342 l 1,4,-1
 392 455 l 1,5,-1
 234 404 l 1,6,-1
 234 698 l 1,7,-1
 82 698 l 1,8,-1
 82 356 l 1,9,-1
 -7 327 l 1,10,-1
 -7 214 l 1,11,-1
 82 243 l 1,12,-1
 82 0 l 1,13,-1
 500 0 l 1,0,-1
EndSplineSet
EndChar

StartChar: lslash
Encoding: 322 322 257
Width: 314
Flags: W
LayerCount: 2
Fore
SplineSet
289 0 m 1,0,-1
 289 115 l 1,1,-1
 223 115 l 1,2,-1
 223 343 l 1,3,-1
 327 377 l 1,4,-1
 327 486 l 1,5,-1
 223 452 l 1,6,-1
 223 740 l 1,7,-1
 75 740 l 1,8,-1
 75 404 l 1,9,-1
 -2 379 l 1,10,-1
 -2 270 l 1,11,-1
 75 295 l 1,12,-1
 75 144 l 2,13,14
 75 0 75 0 222 0 c 2,15,-1
 289 0 l 1,0,-1
EndSplineSet
EndChar

StartChar: Nacute
Encoding: 323 323 258
Width: 724
Flags: W
LayerCount: 2
Fore
SplineSet
647 0 m 1,0,-1
 647 698 l 1,1,-1
 504 698 l 1,2,-1
 504 228 l 1,3,-1
 501 228 l 1,4,-1
 434 368 l 1,5,-1
 243 698 l 1,6,-1
 77 698 l 1,7,-1
 77 0 l 1,8,-1
 220 0 l 1,9,-1
 220 470 l 1,10,-1
 223 470 l 1,11,-1
 290 330 l 1,12,-1
 481 0 l 1,13,-1
 647 0 l 1,0,-1
377 740 m 1,14,-1
 511 916 l 1,15,-1
 388 977 l 1,16,-1
 289 783 l 1,17,-1
 377 740 l 1,14,-1
EndSplineSet
EndChar

StartChar: nacute
Encoding: 324 324 259
Width: 596
Flags: W
LayerCount: 2
Fore
SplineSet
533 0 m 1,0,-1
 533 329 l 2,1,2
 533 429 533 429 491.5 483 c 128,-1,3
 450 537 450 537 369 537 c 0,4,5
 307 537 307 537 272 507.5 c 128,-1,6
 237 478 237 478 223 436 c 1,7,-1
 217 436 l 1,8,-1
 217 525 l 1,9,-1
 69 525 l 1,10,-1
 69 0 l 1,11,-1
 217 0 l 1,12,-1
 217 340 l 2,13,14
 217 378 217 378 246.5 397.5 c 128,-1,15
 276 417 276 417 312 417 c 0,16,17
 353 417 353 417 369 392.5 c 128,-1,18
 385 368 385 368 385 317 c 2,19,-1
 385 0 l 1,20,-1
 533 0 l 1,0,-1
316 579 m 1,21,-1
 450 755 l 1,22,-1
 327 816 l 1,23,-1
 228 622 l 1,24,-1
 316 579 l 1,21,-1
EndSplineSet
EndChar

StartChar: Ncedilla
Encoding: 325 325 260
Width: 724
Flags: W
LayerCount: 2
Fore
SplineSet
647 0 m 1,0,-1
 647 698 l 1,1,-1
 504 698 l 1,2,-1
 504 228 l 1,3,-1
 501 228 l 1,4,-1
 434 368 l 1,5,-1
 243 698 l 1,6,-1
 77 698 l 1,7,-1
 77 0 l 1,8,-1
 220 0 l 1,9,-1
 220 470 l 1,10,-1
 223 470 l 1,11,-1
 290 330 l 1,12,-1
 481 0 l 1,13,-1
 647 0 l 1,0,-1
363 -275 m 1,14,15
 393 -249 393 -249 411.5 -206.5 c 128,-1,16
 430 -164 430 -164 430 -118 c 2,17,-1
 430 -104 l 2,18,19
 430 -44 430 -44 360 -42 c 0,20,21
 294 -42 294 -42 290 -104 c 1,22,-1
 290 -115 l 2,23,24
 290 -171 290 -171 340 -176 c 1,25,26
 327 -234 327 -234 278 -275 c 1,27,-1
 363 -275 l 1,14,15
EndSplineSet
EndChar

StartChar: ncedilla
Encoding: 326 326 261
Width: 596
Flags: W
LayerCount: 2
Fore
SplineSet
533 0 m 1,0,-1
 533 329 l 2,1,2
 533 429 533 429 491.5 483 c 128,-1,3
 450 537 450 537 369 537 c 0,4,5
 307 537 307 537 272 507.5 c 128,-1,6
 237 478 237 478 223 436 c 1,7,-1
 217 436 l 1,8,-1
 217 525 l 1,9,-1
 69 525 l 1,10,-1
 69 0 l 1,11,-1
 217 0 l 1,12,-1
 217 340 l 2,13,14
 217 378 217 378 246.5 397.5 c 128,-1,15
 276 417 276 417 312 417 c 0,16,17
 353 417 353 417 369 392.5 c 128,-1,18
 385 368 385 368 385 317 c 2,19,-1
 385 0 l 1,20,-1
 533 0 l 1,0,-1
304 -275 m 1,21,22
 334 -249 334 -249 352.5 -206.5 c 128,-1,23
 371 -164 371 -164 371 -118 c 2,24,-1
 371 -104 l 2,25,26
 371 -44 371 -44 301 -42 c 0,27,28
 235 -42 235 -42 231 -104 c 1,29,-1
 231 -115 l 2,30,31
 231 -171 231 -171 281 -176 c 1,32,33
 268 -234 268 -234 219 -275 c 1,34,-1
 304 -275 l 1,21,22
EndSplineSet
EndChar

StartChar: Ncaron
Encoding: 327 327 262
Width: 724
Flags: W
LayerCount: 2
Fore
SplineSet
647 0 m 1,0,-1
 647 698 l 1,1,-1
 504 698 l 1,2,-1
 504 228 l 1,3,-1
 501 228 l 1,4,-1
 434 368 l 1,5,-1
 243 698 l 1,6,-1
 77 698 l 1,7,-1
 77 0 l 1,8,-1
 220 0 l 1,9,-1
 220 470 l 1,10,-1
 223 470 l 1,11,-1
 290 330 l 1,12,-1
 481 0 l 1,13,-1
 647 0 l 1,0,-1
423 748 m 1,14,-1
 555 907 l 1,15,-1
 482 965 l 1,16,-1
 361 850 l 1,17,-1
 240 965 l 1,18,-1
 167 907 l 1,19,-1
 299 748 l 1,20,-1
 423 748 l 1,14,-1
EndSplineSet
EndChar

StartChar: ncaron
Encoding: 328 328 263
Width: 596
Flags: W
LayerCount: 2
Fore
SplineSet
533 0 m 1,0,-1
 533 329 l 2,1,2
 533 429 533 429 491.5 483 c 128,-1,3
 450 537 450 537 369 537 c 0,4,5
 307 537 307 537 272 507.5 c 128,-1,6
 237 478 237 478 223 436 c 1,7,-1
 217 436 l 1,8,-1
 217 525 l 1,9,-1
 69 525 l 1,10,-1
 69 0 l 1,11,-1
 217 0 l 1,12,-1
 217 340 l 2,13,14
 217 378 217 378 246.5 397.5 c 128,-1,15
 276 417 276 417 312 417 c 0,16,17
 353 417 353 417 369 392.5 c 128,-1,18
 385 368 385 368 385 317 c 2,19,-1
 385 0 l 1,20,-1
 533 0 l 1,0,-1
362 587 m 1,21,-1
 494 746 l 1,22,-1
 421 804 l 1,23,-1
 300 689 l 1,24,-1
 179 804 l 1,25,-1
 106 746 l 1,26,-1
 238 587 l 1,27,-1
 362 587 l 1,21,-1
EndSplineSet
EndChar

StartChar: napostrophe
Encoding: 329 329 264
Width: 886
Flags: W
LayerCount: 2
Fore
SplineSet
129 450 m 1,0,1
 176 487 176 487 207 543 c 128,-1,2
 238 599 238 599 238 657 c 2,3,-1
 238 678 l 2,4,5
 238 709 238 709 217.5 729.5 c 128,-1,6
 197 750 197 750 152 750 c 256,7,8
 107 750 107 750 86.5 729.5 c 128,-1,9
 66 709 66 709 66 678 c 2,10,-1
 66 653 l 2,11,12
 66 627 66 627 81 607 c 128,-1,13
 96 587 96 587 128 580 c 1,14,15
 103 507 103 507 36 450 c 1,16,-1
 129 450 l 1,0,1
823 0 m 1,17,-1
 823 329 l 2,18,19
 823 429 823 429 781.5 483 c 128,-1,20
 740 537 740 537 659 537 c 0,21,22
 597 537 597 537 562 507.5 c 128,-1,23
 527 478 527 478 513 436 c 1,24,-1
 507 436 l 1,25,-1
 507 525 l 1,26,-1
 359 525 l 1,27,-1
 359 0 l 1,28,-1
 507 0 l 1,29,-1
 507 340 l 2,30,31
 507 378 507 378 536.5 397.5 c 128,-1,32
 566 417 566 417 602 417 c 0,33,34
 643 417 643 417 659 392.5 c 128,-1,35
 675 368 675 368 675 317 c 2,36,-1
 675 0 l 1,37,-1
 823 0 l 1,17,-1
EndSplineSet
EndChar

StartChar: Eng
Encoding: 330 330 265
Width: 724
Flags: W
LayerCount: 2
Fore
SplineSet
499 -200 m 2,0,1
 647 -200 647 -200 647 -56 c 2,2,-1
 647 698 l 1,3,-1
 504 698 l 1,4,-1
 504 228 l 1,5,-1
 501 228 l 1,6,-1
 434 368 l 1,7,-1
 243 698 l 1,8,-1
 77 698 l 1,9,-1
 77 0 l 1,10,-1
 220 0 l 1,11,-1
 220 470 l 1,12,-1
 223 470 l 1,13,-1
 290 330 l 1,14,-1
 481 0 l 1,15,-1
 504 0 l 1,16,-1
 504 -85 l 1,17,-1
 420 -85 l 1,18,-1
 420 -200 l 1,19,-1
 499 -200 l 2,0,1
EndSplineSet
EndChar

StartChar: eng
Encoding: 331 331 266
Width: 596
GlyphClass: 2
Flags: W
LayerCount: 2
Fore
SplineSet
386 -200 m 2,0,1
 463 -200 463 -200 498 -163 c 128,-1,2
 533 -126 533 -126 533 -56 c 2,3,-1
 533 329 l 2,4,5
 533 429 533 429 491.5 483 c 128,-1,6
 450 537 450 537 369 537 c 0,7,8
 307 537 307 537 272 507.5 c 128,-1,9
 237 478 237 478 223 436 c 1,10,-1
 217 436 l 1,11,-1
 217 525 l 1,12,-1
 69 525 l 1,13,-1
 69 0 l 1,14,-1
 217 0 l 1,15,-1
 217 340 l 2,16,17
 217 381 217 381 246.5 399 c 128,-1,18
 276 417 276 417 312 417 c 0,19,20
 353 417 353 417 369 392.5 c 128,-1,21
 385 368 385 368 385 317 c 2,22,-1
 385 -85 l 1,23,-1
 307 -85 l 1,24,-1
 307 -200 l 1,25,-1
 386 -200 l 2,0,1
EndSplineSet
EndChar

StartChar: Omacron
Encoding: 332 332 267
Width: 714
GlyphClass: 5
Flags: W
LayerCount: 2
Fore
SplineSet
357 -12 m 256,0,1
 495 -12 495 -12 580 80 c 0,2,3
 664 174 664 174 664 349 c 0,4,5
 664 523 664 523 580 619 c 1,6,7
 495 710 495 710 357 710 c 256,8,9
 219 710 219 710 134 619 c 1,10,11
 50 523 50 523 50 349 c 0,12,13
 50 174 50 174 134 80 c 0,14,15
 219 -12 219 -12 357 -12 c 256,0,1
357 123 m 0,16,17
 288 123 288 123 249.5 168 c 128,-1,18
 211 213 211 213 211 297 c 2,19,-1
 211 401 l 2,20,21
 211 569 211 569 357 575 c 0,22,23
 426 575 426 575 464.5 530 c 128,-1,24
 503 485 503 485 503 401 c 2,25,-1
 503 297 l 2,26,27
 503 129 503 129 357 123 c 0,16,17
510 785 m 1,28,-1
 510 888 l 1,29,-1
 204 888 l 1,30,-1
 204 785 l 1,31,-1
 510 785 l 1,28,-1
EndSplineSet
EndChar

StartChar: omacron
Encoding: 333 333 268
Width: 564
GlyphClass: 1
Flags: W
LayerCount: 2
Fore
SplineSet
282 -12 m 0,0,1
 398 -12 398 -12 463 62.5 c 128,-1,2
 528 137 528 137 528 263 c 256,3,4
 528 389 528 389 463 463 c 128,-1,5
 398 537 398 537 282 537 c 0,6,7
 167 537 167 537 101.5 463 c 128,-1,8
 36 389 36 389 36 263 c 256,9,10
 36 137 36 137 101.5 62.5 c 128,-1,11
 167 -12 167 -12 282 -12 c 0,0,1
282 105 m 0,12,13
 194 105 194 105 190 209 c 1,14,-1
 190 316 l 2,15,16
 190 417 190 417 282 420 c 0,17,18
 371 420 371 420 374 316 c 2,19,-1
 374 209 l 2,20,21
 374 109 374 109 282 105 c 0,12,13
435 624 m 1,22,-1
 435 727 l 1,23,-1
 129 727 l 1,24,-1
 129 624 l 1,25,-1
 435 624 l 1,22,-1
EndSplineSet
EndChar

StartChar: Obreve
Encoding: 334 334 269
Width: 714
GlyphClass: 2
Flags: W
LayerCount: 2
Fore
SplineSet
357 -12 m 256,0,1
 495 -12 495 -12 580 80 c 0,2,3
 664 174 664 174 664 349 c 0,4,5
 664 523 664 523 580 619 c 1,6,7
 495 710 495 710 357 710 c 256,8,9
 219 710 219 710 134 619 c 1,10,11
 50 523 50 523 50 349 c 0,12,13
 50 174 50 174 134 80 c 0,14,15
 219 -12 219 -12 357 -12 c 256,0,1
357 123 m 0,16,17
 288 123 288 123 249.5 168 c 128,-1,18
 211 213 211 213 211 297 c 2,19,-1
 211 401 l 2,20,21
 211 569 211 569 357 575 c 0,22,23
 426 575 426 575 464.5 530 c 128,-1,24
 503 485 503 485 503 401 c 2,25,-1
 503 297 l 2,26,27
 503 129 503 129 357 123 c 0,16,17
357 740 m 0,28,29
 434 740 434 740 486 798 c 0,30,31
 530 852 530 852 547 910 c 1,32,-1
 467 952 l 1,33,-1
 448 920 l 2,34,35
 427 883 427 883 406 863 c 128,-1,36
 385 843 385 843 357 843 c 256,37,38
 329 843 329 843 308.5 863 c 128,-1,39
 288 883 288 883 267 920 c 2,40,-1
 248 952 l 1,41,-1
 167 910 l 1,42,43
 184 852 184 852 227 798 c 0,44,45
 278 740 278 740 357 740 c 0,28,29
EndSplineSet
EndChar

StartChar: obreve
Encoding: 335 335 270
Width: 564
Flags: W
LayerCount: 2
Fore
SplineSet
282 -12 m 0,0,1
 398 -12 398 -12 463 62.5 c 128,-1,2
 528 137 528 137 528 263 c 256,3,4
 528 389 528 389 463 463 c 128,-1,5
 398 537 398 537 282 537 c 0,6,7
 167 537 167 537 101.5 463 c 128,-1,8
 36 389 36 389 36 263 c 256,9,10
 36 137 36 137 101.5 62.5 c 128,-1,11
 167 -12 167 -12 282 -12 c 0,0,1
282 105 m 0,12,13
 194 105 194 105 190 209 c 1,14,-1
 190 316 l 2,15,16
 190 417 190 417 282 420 c 0,17,18
 371 420 371 420 374 316 c 2,19,-1
 374 209 l 2,20,21
 374 109 374 109 282 105 c 0,12,13
282 579 m 0,22,23
 357 579 357 579 410 637 c 0,24,25
 455 691 455 691 472 749 c 1,26,-1
 392 791 l 1,27,-1
 372 758 l 2,28,29
 351 722 351 722 329.5 702 c 128,-1,30
 308 682 308 682 282 682 c 256,31,32
 256 682 256 682 235 702 c 128,-1,33
 214 722 214 722 193 758 c 2,34,-1
 173 791 l 1,35,-1
 92 749 l 1,36,37
 109 691 109 691 152 637 c 0,38,39
 202 579 202 579 282 579 c 0,22,23
EndSplineSet
EndChar

StartChar: Odblacute
Encoding: 336 336 271
Width: 714
Flags: W
LayerCount: 2
Fore
SplineSet
357 -12 m 256,0,1
 495 -12 495 -12 580 80 c 0,2,3
 664 174 664 174 664 349 c 0,4,5
 664 523 664 523 580 619 c 1,6,7
 495 710 495 710 357 710 c 256,8,9
 219 710 219 710 134 619 c 1,10,11
 50 523 50 523 50 349 c 0,12,13
 50 174 50 174 134 80 c 0,14,15
 219 -12 219 -12 357 -12 c 256,0,1
357 123 m 0,16,17
 288 123 288 123 249.5 168 c 128,-1,18
 211 213 211 213 211 297 c 2,19,-1
 211 401 l 2,20,21
 211 569 211 569 357 575 c 0,22,23
 426 575 426 575 464.5 530 c 128,-1,24
 503 485 503 485 503 401 c 2,25,-1
 503 297 l 2,26,27
 503 129 503 129 357 123 c 0,16,17
267 740 m 1,28,-1
 401 916 l 1,29,-1
 285 973 l 1,30,-1
 186 779 l 1,31,-1
 267 740 l 1,28,-1
472 740 m 1,32,-1
 606 916 l 1,33,-1
 490 973 l 1,34,-1
 391 779 l 1,35,-1
 472 740 l 1,32,-1
EndSplineSet
EndChar

StartChar: odblacute
Encoding: 337 337 272
Width: 564
Flags: W
LayerCount: 2
Fore
SplineSet
282 -12 m 0,0,1
 398 -12 398 -12 463 62.5 c 128,-1,2
 528 137 528 137 528 263 c 256,3,4
 528 389 528 389 463 463 c 128,-1,5
 398 537 398 537 282 537 c 0,6,7
 167 537 167 537 101.5 463 c 128,-1,8
 36 389 36 389 36 263 c 256,9,10
 36 137 36 137 101.5 62.5 c 128,-1,11
 167 -12 167 -12 282 -12 c 0,0,1
282 105 m 0,12,13
 194 105 194 105 190 209 c 1,14,-1
 190 316 l 2,15,16
 190 417 190 417 282 420 c 0,17,18
 371 420 371 420 374 316 c 2,19,-1
 374 209 l 2,20,21
 374 109 374 109 282 105 c 0,12,13
192 579 m 1,22,-1
 326 755 l 1,23,-1
 210 812 l 1,24,-1
 111 618 l 1,25,-1
 192 579 l 1,22,-1
397 579 m 1,26,-1
 531 755 l 1,27,-1
 415 812 l 1,28,-1
 316 618 l 1,29,-1
 397 579 l 1,26,-1
EndSplineSet
EndChar

StartChar: OE
Encoding: 338 338 273
Width: 998
Flags: W
LayerCount: 2
Fore
SplineSet
357 -12 m 0,0,1
 425 -12 425 -12 472 0 c 1,2,-1
 943 0 l 1,3,-1
 943 135 l 1,4,-1
 619 135 l 1,5,-1
 619 286 l 1,6,-1
 897 286 l 1,7,-1
 897 420 l 1,8,-1
 619 420 l 1,9,-1
 619 563 l 1,10,-1
 943 563 l 1,11,-1
 943 698 l 1,12,-1
 480 698 l 1,13,14
 425 710 425 710 357 710 c 0,15,16
 219 710 219 710 134 619 c 1,17,18
 50 523 50 523 50 349 c 0,19,20
 50 174 50 174 134 80 c 0,21,22
 219 -12 219 -12 357 -12 c 0,0,1
357 123 m 0,23,24
 289 123 289 123 250 168 c 128,-1,25
 211 213 211 213 211 297 c 2,26,-1
 211 401 l 2,27,28
 211 485 211 485 250 530 c 128,-1,29
 289 575 289 575 357 575 c 0,30,31
 416 575 416 575 467 565 c 1,32,-1
 467 132 l 1,33,34
 416 123 416 123 357 123 c 0,23,24
EndSplineSet
EndChar

StartChar: oe
Encoding: 339 339 274
Width: 901
GlyphClass: 3
Flags: W
LayerCount: 2
Fore
SplineSet
282 105 m 0,0,1
 194 105 194 105 190 209 c 1,2,-1
 190 316 l 2,3,4
 190 417 190 417 282 420 c 0,5,6
 371 420 371 420 374 316 c 2,7,-1
 374 209 l 2,8,9
 374 109 374 109 282 105 c 0,0,1
711 312 m 1,10,-1
 527 312 l 1,11,-1
 527 320 l 2,12,13
 527 369 527 369 552.5 398.5 c 128,-1,14
 578 428 578 428 623 428 c 256,15,16
 668 428 668 428 689.5 398.5 c 128,-1,17
 711 369 711 369 711 321 c 2,18,-1
 711 312 l 1,10,-1
630 -12 m 0,19,20
 774 -12 774 -12 850 75 c 1,21,-1
 776 167 l 1,22,23
 752 140 752 140 722.5 122 c 128,-1,24
 693 104 693 104 647 104 c 0,25,26
 586 104 586 104 556.5 134.5 c 128,-1,27
 527 165 527 165 527 217 c 2,28,-1
 527 225 l 1,29,-1
 865 225 l 1,30,-1
 865 269 l 2,31,32
 865 391 865 391 804 464 c 0,33,34
 741 537 741 537 625 537 c 0,35,36
 499 537 499 537 454 463 c 1,37,-1
 448 463 l 1,38,39
 402 537 402 537 282 537 c 0,40,41
 166 537 166 537 101 465 c 128,-1,42
 36 393 36 393 36 266 c 0,43,44
 36 140 36 140 101.5 64 c 128,-1,45
 167 -12 167 -12 282 -12 c 0,46,47
 408 -12 408 -12 448 62 c 1,48,-1
 454 62 l 1,49,50
 497 -12 497 -12 630 -12 c 0,19,20
EndSplineSet
EndChar

StartChar: Racute
Encoding: 340 340 275
Width: 674
Flags: W
LayerCount: 2
Fore
SplineSet
629 0 m 1,0,-1
 492 274 l 1,1,2
 556 299 556 299 587.5 351.5 c 128,-1,3
 619 404 619 404 619 475 c 0,4,5
 619 576 619 576 561.5 637 c 128,-1,6
 504 698 504 698 408 698 c 2,7,-1
 77 698 l 1,8,-1
 77 0 l 1,9,-1
 229 0 l 1,10,-1
 229 256 l 1,11,-1
 338 256 l 1,12,-1
 460 0 l 1,13,-1
 629 0 l 1,0,-1
389 384 m 2,14,-1
 229 384 l 1,15,-1
 229 566 l 1,16,-1
 389 566 l 2,17,18
 423 566 423 566 442.5 548.5 c 128,-1,19
 462 531 462 531 462 497 c 2,20,-1
 462 453 l 2,21,22
 462 386 462 386 389 384 c 2,14,-1
340 740 m 1,23,-1
 474 916 l 1,24,-1
 351 977 l 1,25,-1
 252 783 l 1,26,-1
 340 740 l 1,23,-1
EndSplineSet
EndChar

StartChar: racute
Encoding: 341 341 276
Width: 404
GlyphClass: 2
Flags: W
LayerCount: 2
Fore
SplineSet
217 0 m 1,0,-1
 217 307 l 2,1,2
 217 353 217 353 248.5 370 c 128,-1,3
 280 387 280 387 345 387 c 2,4,-1
 382 387 l 1,5,-1
 382 525 l 1,6,-1
 356 525 l 2,7,8
 299 525 299 525 264.5 491 c 128,-1,9
 230 457 230 457 222 411 c 1,10,-1
 217 411 l 1,11,-1
 217 525 l 1,12,-1
 69 525 l 1,13,-1
 69 0 l 1,14,-1
 217 0 l 1,0,-1
241 579 m 1,15,-1
 375 755 l 1,16,-1
 252 816 l 1,17,-1
 153 622 l 1,18,-1
 241 579 l 1,15,-1
EndSplineSet
EndChar

StartChar: Rcedilla
Encoding: 342 342 277
Width: 674
GlyphClass: 3
Flags: W
LayerCount: 2
Fore
SplineSet
629 0 m 1,0,-1
 492 274 l 1,1,2
 556 299 556 299 587.5 351.5 c 128,-1,3
 619 404 619 404 619 475 c 0,4,5
 619 576 619 576 561.5 637 c 128,-1,6
 504 698 504 698 408 698 c 2,7,-1
 77 698 l 1,8,-1
 77 0 l 1,9,-1
 229 0 l 1,10,-1
 229 256 l 1,11,-1
 338 256 l 1,12,-1
 460 0 l 1,13,-1
 629 0 l 1,0,-1
389 384 m 2,14,-1
 229 384 l 1,15,-1
 229 566 l 1,16,-1
 389 566 l 2,17,18
 423 566 423 566 442.5 548.5 c 128,-1,19
 462 531 462 531 462 497 c 2,20,-1
 462 453 l 2,21,22
 462 386 462 386 389 384 c 2,14,-1
356 -275 m 1,23,24
 386 -249 386 -249 404.5 -206.5 c 128,-1,25
 423 -164 423 -164 423 -118 c 2,26,-1
 423 -104 l 2,27,28
 423 -44 423 -44 353 -42 c 0,29,30
 287 -42 287 -42 283 -104 c 1,31,-1
 283 -115 l 2,32,33
 283 -171 283 -171 333 -176 c 1,34,35
 320 -234 320 -234 271 -275 c 1,36,-1
 356 -275 l 1,23,24
EndSplineSet
EndChar

StartChar: rcedilla
Encoding: 343 343 278
Width: 404
GlyphClass: 2
Flags: W
LayerCount: 2
Fore
SplineSet
217 0 m 1,0,-1
 217 307 l 2,1,2
 217 353 217 353 248.5 370 c 128,-1,3
 280 387 280 387 345 387 c 2,4,-1
 382 387 l 1,5,-1
 382 525 l 1,6,-1
 356 525 l 2,7,8
 299 525 299 525 264.5 491 c 128,-1,9
 230 457 230 457 222 411 c 1,10,-1
 217 411 l 1,11,-1
 217 525 l 1,12,-1
 69 525 l 1,13,-1
 69 0 l 1,14,-1
 217 0 l 1,0,-1
145 -275 m 1,15,16
 175 -249 175 -249 193.5 -206.5 c 128,-1,17
 212 -164 212 -164 212 -118 c 2,18,-1
 212 -104 l 2,19,20
 212 -44 212 -44 142 -42 c 0,21,22
 76 -42 76 -42 72 -104 c 1,23,-1
 72 -115 l 2,24,25
 72 -171 72 -171 122 -176 c 1,26,27
 109 -234 109 -234 60 -275 c 1,28,-1
 145 -275 l 1,15,16
EndSplineSet
EndChar

StartChar: Rcaron
Encoding: 344 344 279
Width: 674
GlyphClass: 3
Flags: W
LayerCount: 2
Fore
SplineSet
629 0 m 1,0,-1
 492 274 l 1,1,2
 556 299 556 299 587.5 351.5 c 128,-1,3
 619 404 619 404 619 475 c 0,4,5
 619 576 619 576 561.5 637 c 128,-1,6
 504 698 504 698 408 698 c 2,7,-1
 77 698 l 1,8,-1
 77 0 l 1,9,-1
 229 0 l 1,10,-1
 229 256 l 1,11,-1
 338 256 l 1,12,-1
 460 0 l 1,13,-1
 629 0 l 1,0,-1
389 384 m 2,14,-1
 229 384 l 1,15,-1
 229 566 l 1,16,-1
 389 566 l 2,17,18
 423 566 423 566 442.5 548.5 c 128,-1,19
 462 531 462 531 462 497 c 2,20,-1
 462 453 l 2,21,22
 462 386 462 386 389 384 c 2,14,-1
386 748 m 1,23,-1
 518 907 l 1,24,-1
 445 965 l 1,25,-1
 324 850 l 1,26,-1
 203 965 l 1,27,-1
 130 907 l 1,28,-1
 262 748 l 1,29,-1
 386 748 l 1,23,-1
EndSplineSet
EndChar

StartChar: rcaron
Encoding: 345 345 280
Width: 404
GlyphClass: 7
Flags: W
LayerCount: 2
Fore
SplineSet
217 0 m 1,0,-1
 217 307 l 2,1,2
 217 353 217 353 248.5 370 c 128,-1,3
 280 387 280 387 345 387 c 2,4,-1
 382 387 l 1,5,-1
 382 525 l 1,6,-1
 356 525 l 2,7,8
 299 525 299 525 264.5 491 c 128,-1,9
 230 457 230 457 222 411 c 1,10,-1
 217 411 l 1,11,-1
 217 525 l 1,12,-1
 69 525 l 1,13,-1
 69 0 l 1,14,-1
 217 0 l 1,0,-1
287 587 m 1,15,-1
 419 746 l 1,16,-1
 346 804 l 1,17,-1
 225 689 l 1,18,-1
 104 804 l 1,19,-1
 31 746 l 1,20,-1
 163 587 l 1,21,-1
 287 587 l 1,15,-1
EndSplineSet
EndChar

StartChar: Sacute
Encoding: 346 346 281
Width: 624
GlyphClass: 5
Flags: W
LayerCount: 2
Fore
SplineSet
303 -12 m 0,0,1
 434 -12 434 -12 504.5 51.5 c 128,-1,2
 575 115 575 115 575 215 c 0,3,4
 575 306 575 306 523 355.5 c 128,-1,5
 471 405 471 405 363 422 c 2,6,-1
 294 433 l 2,7,8
 250 439 250 439 230.5 455.5 c 128,-1,9
 211 472 211 472 211 508 c 0,10,11
 211 540 211 540 236 558 c 128,-1,12
 261 576 261 576 312 576 c 0,13,14
 408 576 408 576 462 510 c 1,15,-1
 563 612 l 1,16,17
 479 710 479 710 321 710 c 0,18,19
 197 710 197 710 129 651 c 0,20,21
 59 593 59 593 59 498 c 0,22,23
 59 318 59 318 273 290 c 2,24,-1
 342 281 l 2,25,26
 390 274 390 274 406.5 254.5 c 128,-1,27
 423 235 423 235 423 206 c 0,28,29
 423 168 423 168 396 145 c 128,-1,30
 369 122 369 122 313 122 c 0,31,32
 210 122 210 122 138 202 c 1,33,-1
 38 101 l 1,34,35
 136 -12 136 -12 303 -12 c 0,0,1
326 740 m 1,36,-1
 460 916 l 1,37,-1
 337 977 l 1,38,-1
 238 783 l 1,39,-1
 326 740 l 1,36,-1
EndSplineSet
EndChar

StartChar: sacute
Encoding: 347 347 282
Width: 504
GlyphClass: 2
Flags: W
LayerCount: 2
Fore
SplineSet
247 -12 m 0,0,1
 349 -12 349 -12 410.5 37.5 c 128,-1,2
 472 87 472 87 472 163 c 0,3,4
 472 298 472 298 299 321 c 0,5,6
 270 325 270 325 239 329.5 c 128,-1,7
 208 334 208 334 196.5 345.5 c 128,-1,8
 185 357 185 357 185 378 c 0,9,10
 185 422 185 422 255 422 c 0,11,12
 321 422 321 422 376 368 c 1,13,-1
 461 455 l 1,14,15
 422 494 422 494 376 515.5 c 128,-1,16
 330 537 330 537 247 537 c 0,17,18
 153 537 153 537 98 490 c 128,-1,19
 43 443 43 443 43 366 c 0,20,21
 43 227 43 227 220 204 c 2,22,-1
 277 197 l 2,23,24
 330 191 330 191 330 153 c 0,25,26
 330 130 330 130 313 116.5 c 128,-1,27
 296 103 296 103 252 103 c 0,28,29
 173 103 173 103 113 170 c 1,30,-1
 26 82 l 1,31,32
 66 37 66 37 118.5 12.5 c 128,-1,33
 171 -12 171 -12 247 -12 c 0,0,1
267 579 m 1,34,-1
 401 755 l 1,35,-1
 278 816 l 1,36,-1
 179 622 l 1,37,-1
 267 579 l 1,34,-1
EndSplineSet
EndChar

StartChar: Scircumflex
Encoding: 348 348 283
Width: 624
GlyphClass: 3
Flags: W
LayerCount: 2
Fore
SplineSet
303 -12 m 0,0,1
 434 -12 434 -12 504.5 51.5 c 128,-1,2
 575 115 575 115 575 215 c 0,3,4
 575 306 575 306 523 355.5 c 128,-1,5
 471 405 471 405 363 422 c 2,6,-1
 294 433 l 2,7,8
 250 439 250 439 230.5 455.5 c 128,-1,9
 211 472 211 472 211 508 c 0,10,11
 211 540 211 540 236 558 c 128,-1,12
 261 576 261 576 312 576 c 0,13,14
 408 576 408 576 462 510 c 1,15,-1
 563 612 l 1,16,17
 479 710 479 710 321 710 c 0,18,19
 197 710 197 710 129 651 c 0,20,21
 59 593 59 593 59 498 c 0,22,23
 59 318 59 318 273 290 c 2,24,-1
 342 281 l 2,25,26
 390 274 390 274 406.5 254.5 c 128,-1,27
 423 235 423 235 423 206 c 0,28,29
 423 168 423 168 396 145 c 128,-1,30
 369 122 369 122 313 122 c 0,31,32
 210 122 210 122 138 202 c 1,33,-1
 38 101 l 1,34,35
 136 -12 136 -12 303 -12 c 0,0,1
431 739 m 1,36,-1
 504 797 l 1,37,-1
 372 956 l 1,38,-1
 248 956 l 1,39,-1
 116 797 l 1,40,-1
 189 739 l 1,41,-1
 310 854 l 1,42,-1
 431 739 l 1,36,-1
EndSplineSet
EndChar

StartChar: scircumflex
Encoding: 349 349 284
Width: 504
Flags: W
LayerCount: 2
Fore
SplineSet
247 -12 m 0,0,1
 349 -12 349 -12 410.5 37.5 c 128,-1,2
 472 87 472 87 472 163 c 0,3,4
 472 298 472 298 299 321 c 0,5,6
 270 325 270 325 239 329.5 c 128,-1,7
 208 334 208 334 196.5 345.5 c 128,-1,8
 185 357 185 357 185 378 c 0,9,10
 185 422 185 422 255 422 c 0,11,12
 321 422 321 422 376 368 c 1,13,-1
 461 455 l 1,14,15
 422 494 422 494 376 515.5 c 128,-1,16
 330 537 330 537 247 537 c 0,17,18
 153 537 153 537 98 490 c 128,-1,19
 43 443 43 443 43 366 c 0,20,21
 43 227 43 227 220 204 c 2,22,-1
 277 197 l 2,23,24
 330 191 330 191 330 153 c 0,25,26
 330 130 330 130 313 116.5 c 128,-1,27
 296 103 296 103 252 103 c 0,28,29
 173 103 173 103 113 170 c 1,30,-1
 26 82 l 1,31,32
 66 37 66 37 118.5 12.5 c 128,-1,33
 171 -12 171 -12 247 -12 c 0,0,1
372 578 m 1,34,-1
 445 636 l 1,35,-1
 313 795 l 1,36,-1
 189 795 l 1,37,-1
 57 636 l 1,38,-1
 130 578 l 1,39,-1
 251 693 l 1,40,-1
 372 578 l 1,34,-1
EndSplineSet
EndChar

StartChar: Scedilla
Encoding: 350 350 285
Width: 624
Flags: W
LayerCount: 2
Fore
SplineSet
319 -212 m 0,0,1
 377 -212 377 -212 411 -192 c 0,2,3
 451 -168 451 -168 451 -121 c 0,4,5
 451 -84 451 -84 429.5 -68 c 128,-1,6
 408 -52 408 -52 378 -52 c 0,7,8
 354 -52 354 -52 330 -59 c 1,9,-1
 326 -55 l 1,10,-1
 335 -11 l 1,11,12
 451 -2 451 -2 513 59.5 c 128,-1,13
 575 121 575 121 575 215 c 0,14,15
 575 306 575 306 523 355.5 c 128,-1,16
 471 405 471 405 363 422 c 2,17,-1
 294 433 l 2,18,19
 250 439 250 439 230.5 455.5 c 128,-1,20
 211 472 211 472 211 508 c 0,21,22
 211 540 211 540 236 558 c 128,-1,23
 261 576 261 576 312 576 c 0,24,25
 408 576 408 576 462 510 c 1,26,-1
 563 612 l 1,27,28
 479 710 479 710 321 710 c 0,29,30
 197 710 197 710 129 651 c 0,31,32
 59 593 59 593 59 498 c 0,33,34
 59 318 59 318 273 290 c 2,35,-1
 342 281 l 2,36,37
 390 274 390 274 406.5 254.5 c 128,-1,38
 423 235 423 235 423 206 c 0,39,40
 423 168 423 168 396 145 c 128,-1,41
 369 122 369 122 313 122 c 0,42,43
 210 122 210 122 138 202 c 1,44,-1
 38 101 l 1,45,46
 127 1 127 1 268 -11 c 1,47,-1
 255 -74 l 1,48,49
 319 -80 319 -80 337 -92 c 0,50,51
 351 -104 351 -104 351 -116 c 0,52,53
 351 -129 351 -129 338.5 -135 c 128,-1,54
 326 -141 326 -141 307 -141 c 0,55,56
 264 -141 264 -141 241 -112 c 1,57,-1
 195 -168 l 1,58,59
 229 -212 229 -212 319 -212 c 0,0,1
EndSplineSet
EndChar

StartChar: scedilla
Encoding: 351 351 286
Width: 504
GlyphClass: 2
Flags: W
LayerCount: 2
Fore
SplineSet
262 -212 m 0,0,1
 320 -212 320 -212 354 -192 c 0,2,3
 394 -168 394 -168 394 -121 c 0,4,5
 394 -84 394 -84 372.5 -68 c 128,-1,6
 351 -52 351 -52 321 -52 c 0,7,8
 297 -52 297 -52 273 -59 c 1,9,-1
 269 -55 l 1,10,-1
 278 -11 l 1,11,12
 368 -2 368 -2 420 45.5 c 128,-1,13
 472 93 472 93 472 163 c 0,14,15
 472 298 472 298 299 321 c 0,16,17
 270 325 270 325 239 329.5 c 128,-1,18
 208 334 208 334 196.5 345.5 c 128,-1,19
 185 357 185 357 185 378 c 0,20,21
 185 422 185 422 255 422 c 0,22,23
 321 422 321 422 376 368 c 1,24,-1
 461 455 l 1,25,26
 422 494 422 494 376 515.5 c 128,-1,27
 330 537 330 537 247 537 c 0,28,29
 153 537 153 537 98 490 c 128,-1,30
 43 443 43 443 43 366 c 0,31,32
 43 227 43 227 220 204 c 2,33,-1
 277 197 l 2,34,35
 330 191 330 191 330 153 c 0,36,37
 330 130 330 130 313 116.5 c 128,-1,38
 296 103 296 103 252 103 c 0,39,40
 173 103 173 103 113 170 c 1,41,-1
 26 82 l 1,42,43
 93 2 93 2 211 -10 c 1,44,-1
 198 -74 l 1,45,46
 262 -80 262 -80 280 -92 c 0,47,48
 294 -104 294 -104 294 -116 c 0,49,50
 294 -129 294 -129 281.5 -135 c 128,-1,51
 269 -141 269 -141 250 -141 c 0,52,53
 207 -141 207 -141 184 -112 c 1,54,-1
 138 -168 l 1,55,56
 172 -212 172 -212 262 -212 c 0,0,1
EndSplineSet
EndChar

StartChar: Scaron
Encoding: 352 352 287
Width: 624
Flags: W
LayerCount: 2
Fore
SplineSet
303 -12 m 0,0,1
 434 -12 434 -12 504.5 51.5 c 128,-1,2
 575 115 575 115 575 215 c 0,3,4
 575 306 575 306 523 355.5 c 128,-1,5
 471 405 471 405 363 422 c 2,6,-1
 294 433 l 2,7,8
 250 439 250 439 230.5 455.5 c 128,-1,9
 211 472 211 472 211 508 c 0,10,11
 211 540 211 540 236 558 c 128,-1,12
 261 576 261 576 312 576 c 0,13,14
 408 576 408 576 462 510 c 1,15,-1
 563 612 l 1,16,17
 479 710 479 710 321 710 c 0,18,19
 197 710 197 710 129 651 c 0,20,21
 59 593 59 593 59 498 c 0,22,23
 59 318 59 318 273 290 c 2,24,-1
 342 281 l 2,25,26
 390 274 390 274 406.5 254.5 c 128,-1,27
 423 235 423 235 423 206 c 0,28,29
 423 168 423 168 396 145 c 128,-1,30
 369 122 369 122 313 122 c 0,31,32
 210 122 210 122 138 202 c 1,33,-1
 38 101 l 1,34,35
 136 -12 136 -12 303 -12 c 0,0,1
372 748 m 1,36,-1
 504 907 l 1,37,-1
 431 965 l 1,38,-1
 310 850 l 1,39,-1
 189 965 l 1,40,-1
 116 907 l 1,41,-1
 248 748 l 1,42,-1
 372 748 l 1,36,-1
EndSplineSet
EndChar

StartChar: scaron
Encoding: 353 353 288
Width: 504
GlyphClass: 3
Flags: W
LayerCount: 2
Fore
SplineSet
247 -12 m 0,0,1
 349 -12 349 -12 410.5 37.5 c 128,-1,2
 472 87 472 87 472 163 c 0,3,4
 472 298 472 298 299 321 c 0,5,6
 270 325 270 325 239 329.5 c 128,-1,7
 208 334 208 334 196.5 345.5 c 128,-1,8
 185 357 185 357 185 378 c 0,9,10
 185 422 185 422 255 422 c 0,11,12
 321 422 321 422 376 368 c 1,13,-1
 461 455 l 1,14,15
 422 494 422 494 376 515.5 c 128,-1,16
 330 537 330 537 247 537 c 0,17,18
 153 537 153 537 98 490 c 128,-1,19
 43 443 43 443 43 366 c 0,20,21
 43 227 43 227 220 204 c 2,22,-1
 277 197 l 2,23,24
 330 191 330 191 330 153 c 0,25,26
 330 130 330 130 313 116.5 c 128,-1,27
 296 103 296 103 252 103 c 0,28,29
 173 103 173 103 113 170 c 1,30,-1
 26 82 l 1,31,32
 66 37 66 37 118.5 12.5 c 128,-1,33
 171 -12 171 -12 247 -12 c 0,0,1
313 587 m 1,34,-1
 445 746 l 1,35,-1
 372 804 l 1,36,-1
 251 689 l 1,37,-1
 130 804 l 1,38,-1
 57 746 l 1,39,-1
 189 587 l 1,40,-1
 313 587 l 1,34,-1
EndSplineSet
EndChar

StartChar: Tcedilla
Encoding: 354 354 289
Width: 584
Flags: W
LayerCount: 2
Fore
SplineSet
368 0 m 1,0,-1
 368 563 l 1,1,-1
 557 563 l 1,2,-1
 557 698 l 1,3,-1
 27 698 l 1,4,-1
 27 563 l 1,5,-1
 216 563 l 1,6,-1
 216 0 l 1,7,-1
 368 0 l 1,0,-1
294 -275 m 1,8,9
 324 -249 324 -249 342.5 -206.5 c 128,-1,10
 361 -164 361 -164 361 -118 c 2,11,-1
 361 -104 l 2,12,13
 361 -44 361 -44 291 -42 c 0,14,15
 225 -42 225 -42 221 -104 c 1,16,-1
 221 -115 l 2,17,18
 221 -171 221 -171 271 -176 c 1,19,20
 258 -234 258 -234 209 -275 c 1,21,-1
 294 -275 l 1,8,9
EndSplineSet
EndChar

StartChar: tcedilla
Encoding: 355 355 290
Width: 383
GlyphClass: 5
Flags: W
LayerCount: 2
Fore
SplineSet
341 0 m 1,0,-1
 341 115 l 1,1,-1
 245 115 l 1,2,-1
 245 410 l 1,3,-1
 349 410 l 1,4,-1
 349 525 l 1,5,-1
 245 525 l 1,6,-1
 245 667 l 1,7,-1
 112 667 l 1,8,-1
 112 581 l 2,9,10
 112 554 112 554 101 539.5 c 128,-1,11
 90 525 90 525 60 525 c 2,12,-1
 23 525 l 1,13,-1
 23 410 l 1,14,-1
 97 410 l 1,15,-1
 97 153 l 2,16,17
 97 3 97 3 253 0 c 2,18,-1
 341 0 l 1,0,-1
231 -275 m 1,19,20
 261 -249 261 -249 279.5 -206.5 c 128,-1,21
 298 -164 298 -164 298 -118 c 2,22,-1
 298 -104 l 2,23,24
 298 -44 298 -44 228 -42 c 0,25,26
 162 -42 162 -42 158 -104 c 1,27,-1
 158 -115 l 2,28,29
 158 -171 158 -171 208 -176 c 1,30,31
 195 -234 195 -234 146 -275 c 1,32,-1
 231 -275 l 1,19,20
EndSplineSet
EndChar

StartChar: Tcaron
Encoding: 356 356 291
Width: 584
GlyphClass: 3
Flags: W
LayerCount: 2
Fore
SplineSet
368 0 m 1,0,-1
 368 563 l 1,1,-1
 557 563 l 1,2,-1
 557 698 l 1,3,-1
 27 698 l 1,4,-1
 27 563 l 1,5,-1
 216 563 l 1,6,-1
 216 0 l 1,7,-1
 368 0 l 1,0,-1
355 748 m 1,8,-1
 487 907 l 1,9,-1
 414 965 l 1,10,-1
 293 850 l 1,11,-1
 172 965 l 1,12,-1
 99 907 l 1,13,-1
 231 748 l 1,14,-1
 355 748 l 1,8,-1
EndSplineSet
EndChar

StartChar: tcaron
Encoding: 357 357 292
Width: 388
GlyphClass: 3
Flags: W
LayerCount: 2
Fore
SplineSet
341 0 m 1,0,-1
 341 115 l 1,1,-1
 245 115 l 1,2,-1
 245 410 l 1,3,-1
 349 410 l 1,4,-1
 349 525 l 1,5,-1
 245 525 l 1,6,-1
 245 667 l 1,7,-1
 112 667 l 1,8,-1
 112 581 l 2,9,10
 112 554 112 554 101 539.5 c 128,-1,11
 90 525 90 525 60 525 c 2,12,-1
 23 525 l 1,13,-1
 23 410 l 1,14,-1
 97 410 l 1,15,-1
 97 153 l 2,16,17
 97 3 97 3 253 0 c 2,18,-1
 341 0 l 1,0,-1
405 576 m 1,19,-1
 471 791 l 1,20,-1
 314 791 l 1,21,-1
 308 576 l 1,22,-1
 405 576 l 1,19,-1
EndSplineSet
EndChar

StartChar: Tbar
Encoding: 358 358 293
Width: 594
GlyphClass: 5
Flags: W
LayerCount: 2
Fore
SplineSet
373 0 m 1,0,-1
 373 282 l 1,1,-1
 512 282 l 1,2,-1
 512 396 l 1,3,-1
 373 396 l 1,4,-1
 373 563 l 1,5,-1
 562 563 l 1,6,-1
 562 698 l 1,7,-1
 32 698 l 1,8,-1
 32 563 l 1,9,-1
 221 563 l 1,10,-1
 221 396 l 1,11,-1
 82 396 l 1,12,-1
 82 282 l 1,13,-1
 221 282 l 1,14,-1
 221 0 l 1,15,-1
 373 0 l 1,0,-1
EndSplineSet
EndChar

StartChar: tbar
Encoding: 359 359 294
Width: 391
GlyphClass: 6
Flags: W
LayerCount: 2
Fore
SplineSet
345 0 m 1,0,-1
 345 115 l 1,1,-1
 249 115 l 1,2,-1
 249 221 l 1,3,-1
 334 221 l 1,4,-1
 334 321 l 1,5,-1
 249 321 l 1,6,-1
 249 410 l 1,7,-1
 353 410 l 1,8,-1
 353 525 l 1,9,-1
 249 525 l 1,10,-1
 249 667 l 1,11,-1
 116 667 l 1,12,-1
 116 581 l 2,13,14
 116 554 116 554 105 539.5 c 128,-1,15
 94 525 94 525 64 525 c 2,16,-1
 27 525 l 1,17,-1
 27 410 l 1,18,-1
 101 410 l 1,19,-1
 101 321 l 1,20,-1
 37 321 l 1,21,-1
 37 221 l 1,22,-1
 101 221 l 1,23,-1
 101 153 l 2,24,25
 101 3 101 3 257 0 c 2,26,-1
 345 0 l 1,0,-1
EndSplineSet
EndChar

StartChar: Utilde
Encoding: 360 360 295
Width: 694
Flags: W
LayerCount: 2
Fore
SplineSet
347 -12 m 256,0,1
 497 -12 497 -12 559 60 c 0,2,3
 621 128 621 128 621 286 c 2,4,-1
 621 698 l 1,5,-1
 473 698 l 1,6,-1
 473 270 l 2,7,8
 473 196 473 196 444 159.5 c 128,-1,9
 415 123 415 123 347 123 c 256,10,11
 279 123 279 123 250 159.5 c 128,-1,12
 221 196 221 196 221 270 c 2,13,-1
 221 698 l 1,14,-1
 73 698 l 1,15,-1
 73 286 l 2,16,17
 73 128 73 128 135 60 c 0,18,19
 197 -12 197 -12 347 -12 c 256,0,1
423 762 m 0,20,21
 496 762 496 762 537 826 c 1,22,-1
 485 894 l 1,23,24
 470 881 470 881 456.5 875 c 128,-1,25
 443 869 443 869 426 869 c 0,26,27
 407 869 407 869 390 874.5 c 128,-1,28
 373 880 373 880 354 889 c 2,29,-1
 312 905 l 2,30,31
 294 911 294 911 271 911 c 0,32,33
 198 911 198 911 157 847 c 1,34,-1
 209 779 l 1,35,36
 224 792 224 792 237.5 798 c 128,-1,37
 251 804 251 804 268 804 c 0,38,39
 287 804 287 804 304 798.5 c 128,-1,40
 321 793 321 793 340 784 c 2,41,-1
 382 768 l 2,42,43
 400 762 400 762 423 762 c 0,20,21
EndSplineSet
EndChar

